solid OpenSCAD_Model
  facet normal -1 -0 0
    outer loop
      vertex -10 5.5 -10
      vertex -10 5.5 10
      vertex -10 10.5 -10
    endloop
  endfacet
  facet normal -1 0 -0
    outer loop
      vertex -10 10.5 -10
      vertex -10 5.5 10
      vertex -10 10.5 10
    endloop
  endfacet
  facet normal 0 -1 0
    outer loop
      vertex -8.225 5.5 -8.225
      vertex -10 5.5 -10
      vertex 10 5.5 -10
    endloop
  endfacet
  facet normal 0 -1 0
    outer loop
      vertex 8.225 5.5 -8.225
      vertex -8.225 5.5 -8.225
      vertex 10 5.5 -10
    endloop
  endfacet
  facet normal -2.22045e-16 -1 2.22045e-16
    outer loop
      vertex -10 5.5 10
      vertex -10 5.5 -10
      vertex -8.225 5.5 -8.225
    endloop
  endfacet
  facet normal 2.69963e-16 -1 2.69963e-16
    outer loop
      vertex 8.225 5.5 8.225
      vertex 8.225 5.5 -8.225
      vertex 10 5.5 -10
    endloop
  endfacet
  facet normal 2.69963e-16 -1 2.69963e-16
    outer loop
      vertex -10 5.5 10
      vertex -8.225 5.5 -8.225
      vertex -8.225 5.5 8.225
    endloop
  endfacet
  facet normal -2.22045e-16 -1 2.22045e-16
    outer loop
      vertex 10 5.5 10
      vertex 8.225 5.5 8.225
      vertex 10 5.5 -10
    endloop
  endfacet
  facet normal 0 -1 0
    outer loop
      vertex 10 5.5 10
      vertex -10 5.5 10
      vertex 8.225 5.5 8.225
    endloop
  endfacet
  facet normal -0 -1 -0
    outer loop
      vertex -8.225 5.5 8.225
      vertex 8.225 5.5 8.225
      vertex -10 5.5 10
    endloop
  endfacet
  facet normal -0 -3.55271e-16 -1
    outer loop
      vertex -10 5.5 -10
      vertex -10 10.5 -10
      vertex 10 5.5 -10
    endloop
  endfacet
  facet normal 0 -3.55271e-16 -1
    outer loop
      vertex 10 5.5 -10
      vertex -10 10.5 -10
      vertex 10 10.5 -10
    endloop
  endfacet
  facet normal 0 1 -6.39045e-16
    outer loop
      vertex 1.93467 10.5 7.2203
      vertex -10 10.5 10
      vertex 10 10.5 10
    endloop
  endfacet
  facet normal -3.51754e-16 1 -2.66454e-16
    outer loop
      vertex -10 10.5 -10
      vertex -10 10.5 10
      vertex -7.475 10.5 -4.37428e-16
    endloop
  endfacet
  facet normal 1.4653e-15 1 -7.25259e-16
    outer loop
      vertex -10 10.5 -10
      vertex -7.475 10.5 -4.37428e-16
      vertex -7.2203 10.5 -1.93467
    endloop
  endfacet
  facet normal -2.90232e-16 1 -1.20218e-16
    outer loop
      vertex -10 10.5 -10
      vertex -7.2203 10.5 -1.93467
      vertex -6.47354 10.5 -3.7375
    endloop
  endfacet
  facet normal -2.13201e-16 1 -1.63595e-16
    outer loop
      vertex -10 10.5 -10
      vertex -6.47354 10.5 -3.7375
      vertex -5.28562 10.5 -5.28562
    endloop
  endfacet
  facet normal -1.63595e-16 1 -2.13201e-16
    outer loop
      vertex -10 10.5 -10
      vertex -5.28562 10.5 -5.28562
      vertex -3.7375 10.5 -6.47354
    endloop
  endfacet
  facet normal -1.20218e-16 1 -2.90232e-16
    outer loop
      vertex -10 10.5 -10
      vertex -3.7375 10.5 -6.47354
      vertex -1.93467 10.5 -7.2203
    endloop
  endfacet
  facet normal 0 1 -6.39045e-16
    outer loop
      vertex -10 10.5 -10
      vertex -1.93467 10.5 -7.2203
      vertex 10 10.5 -10
    endloop
  endfacet
  facet normal -1.93517e-16 1 -1.46991e-15
    outer loop
      vertex -1.93467 10.5 -7.2203
      vertex 0 10.5 -7.475
      vertex 10 10.5 -10
    endloop
  endfacet
  facet normal 1.20218e-16 1 -2.90232e-16
    outer loop
      vertex 3.7375 10.5 -6.47354
      vertex 10 10.5 -10
      vertex 1.93467 10.5 -7.2203
    endloop
  endfacet
  facet normal 1.63595e-16 1 -2.13201e-16
    outer loop
      vertex 5.28562 10.5 -5.28562
      vertex 10 10.5 -10
      vertex 3.7375 10.5 -6.47354
    endloop
  endfacet
  facet normal -4.6241e-16 1 -6.08773e-17
    outer loop
      vertex 7.2203 10.5 1.93467
      vertex 10 10.5 10
      vertex 7.475 10.5 -4.37428e-16
    endloop
  endfacet
  facet normal 2.13201e-16 1 -1.63595e-16
    outer loop
      vertex 10 10.5 -10
      vertex 5.28562 10.5 -5.28562
      vertex 6.47354 10.5 -3.7375
    endloop
  endfacet
  facet normal 2.90232e-16 1 -1.20218e-16
    outer loop
      vertex 10 10.5 -10
      vertex 6.47354 10.5 -3.7375
      vertex 7.2203 10.5 -1.93467
    endloop
  endfacet
  facet normal -1.34071e-16 1 -2.66454e-16
    outer loop
      vertex 10 10.5 -10
      vertex 7.2203 10.5 -1.93467
      vertex 10 10.5 10
    endloop
  endfacet
  facet normal 6.12783e-15 1 -1.72491e-15
    outer loop
      vertex 7.2203 10.5 -1.93467
      vertex 7.475 10.5 -4.37428e-16
      vertex 10 10.5 10
    endloop
  endfacet
  facet normal 2.13201e-16 1 -1.63595e-16
    outer loop
      vertex -6.47354 10.5 3.7375
      vertex -10 10.5 10
      vertex -5.28562 10.5 5.28562
    endloop
  endfacet
  facet normal 6.08773e-17 1 -4.6241e-16
    outer loop
      vertex -1.93467 10.5 7.2203
      vertex -10 10.5 10
      vertex 0 10.5 7.475
    endloop
  endfacet
  facet normal -2.90232e-16 1 -1.20218e-16
    outer loop
      vertex 7.2203 10.5 1.93467
      vertex 6.47354 10.5 3.7375
      vertex 10 10.5 10
    endloop
  endfacet
  facet normal 1.20218e-16 1 -2.90232e-16
    outer loop
      vertex -3.7375 10.5 6.47354
      vertex -10 10.5 10
      vertex -1.93467 10.5 7.2203
    endloop
  endfacet
  facet normal -2.13201e-16 1 -1.63595e-16
    outer loop
      vertex 6.47354 10.5 3.7375
      vertex 5.28562 10.5 5.28562
      vertex 10 10.5 10
    endloop
  endfacet
  facet normal -1.63595e-16 1 -2.13201e-16
    outer loop
      vertex 5.28562 10.5 5.28562
      vertex 3.7375 10.5 6.47354
      vertex 10 10.5 10
    endloop
  endfacet
  facet normal -1.93517e-16 1 -1.46991e-15
    outer loop
      vertex 0 10.5 7.475
      vertex -10 10.5 10
      vertex 1.93467 10.5 7.2203
    endloop
  endfacet
  facet normal -1.20218e-16 1 -2.90232e-16
    outer loop
      vertex 3.7375 10.5 6.47354
      vertex 1.93467 10.5 7.2203
      vertex 10 10.5 10
    endloop
  endfacet
  facet normal 1.63595e-16 1 -2.13201e-16
    outer loop
      vertex -5.28562 10.5 5.28562
      vertex -10 10.5 10
      vertex -3.7375 10.5 6.47354
    endloop
  endfacet
  facet normal 2.90232e-16 1 -1.20218e-16
    outer loop
      vertex -7.2203 10.5 1.93467
      vertex -10 10.5 10
      vertex -6.47354 10.5 3.7375
    endloop
  endfacet
  facet normal 4.6241e-16 1 -6.08773e-17
    outer loop
      vertex -7.475 10.5 -4.37428e-16
      vertex -10 10.5 10
      vertex -7.2203 10.5 1.93467
    endloop
  endfacet
  facet normal 6.08773e-17 1 -4.6241e-16
    outer loop
      vertex 1.93467 10.5 -7.2203
      vertex 10 10.5 -10
      vertex 0 10.5 -7.475
    endloop
  endfacet
  facet normal 0 3.55271e-16 1
    outer loop
      vertex -10 10.5 10
      vertex -10 5.5 10
      vertex 10 5.5 10
    endloop
  endfacet
  facet normal -0 3.55271e-16 1
    outer loop
      vertex 10 10.5 10
      vertex -10 10.5 10
      vertex 10 5.5 10
    endloop
  endfacet
  facet normal 1 0 -0
    outer loop
      vertex 10 5.5 10
      vertex 10 5.5 -10
      vertex 10 10.5 -10
    endloop
  endfacet
  facet normal 1 -0 0
    outer loop
      vertex 10 10.5 10
      vertex 10 5.5 10
      vertex 10 10.5 -10
    endloop
  endfacet
  facet normal -1 -0 -0
    outer loop
      vertex -8.225 3.9 -8.1
      vertex -8.225 3.9 -8
      vertex -8.225 4.025 -8.225
    endloop
  endfacet
  facet normal -1 0 -0
    outer loop
      vertex -8.225 4.025 -8.225
      vertex -8.225 3.9 -8
      vertex -8.225 4.025 -8
    endloop
  endfacet
  facet normal -1 0 -0
    outer loop
      vertex -8.225 4.025 -8
      vertex -8.225 4.025 8.225
      vertex -8.225 5.5 8.225
    endloop
  endfacet
  facet normal -1 -0 0
    outer loop
      vertex -8.225 4.025 -8
      vertex -8.225 5.5 8.225
      vertex -8.225 4.025 -8.225
    endloop
  endfacet
  facet normal -1 -0 0
    outer loop
      vertex -8.225 4.025 -8.225
      vertex -8.225 5.5 8.225
      vertex -8.225 5.5 -8.225
    endloop
  endfacet
  facet normal 0 -0 -1
    outer loop
      vertex -8.225 4.025 -8.225
      vertex -8.225 5.5 -8.225
      vertex 8 4.025 -8.225
    endloop
  endfacet
  facet normal 0 -0 -1
    outer loop
      vertex 8 4.025 -8.225
      vertex -8.225 5.5 -8.225
      vertex 8.225 5.5 -8.225
    endloop
  endfacet
  facet normal -0 0 -1
    outer loop
      vertex 8 4.025 -8.225
      vertex 8.225 5.5 -8.225
      vertex 8.225 4.025 -8.225
    endloop
  endfacet
  facet normal 0 0 -1
    outer loop
      vertex 8 4.025 -8.225
      vertex 8.225 4.025 -8.225
      vertex 8.1 3.9 -8.225
    endloop
  endfacet
  facet normal 0 0 -1
    outer loop
      vertex 8 4.025 -8.225
      vertex 8.1 3.9 -8.225
      vertex 8 3.9 -8.225
    endloop
  endfacet
  facet normal 1 0 -0
    outer loop
      vertex 8.225 3.9 8.1
      vertex 8.225 3.9 8
      vertex 8.225 4.025 8
    endloop
  endfacet
  facet normal 1 0 0
    outer loop
      vertex 8.225 5.5 8.225
      vertex 8.225 3.9 8.1
      vertex 8.225 4.025 8
    endloop
  endfacet
  facet normal 1 0 0
    outer loop
      vertex 8.225 4.025 -8.225
      vertex 8.225 5.5 -8.225
      vertex 8.225 4.025 8
    endloop
  endfacet
  facet normal 1 0 0
    outer loop
      vertex 8.225 5.5 -8.225
      vertex 8.225 5.5 8.225
      vertex 8.225 4.025 8
    endloop
  endfacet
  facet normal 1 0 0
    outer loop
      vertex 8.225 5.5 8.225
      vertex 8.225 4.025 8.225
      vertex 8.225 3.9 8.1
    endloop
  endfacet
  facet normal 0 -0 1
    outer loop
      vertex -8.225 5.5 8.225
      vertex -8.225 4.025 8.225
      vertex -8.1 3.9 8.225
    endloop
  endfacet
  facet normal -0 0 1
    outer loop
      vertex -8 4.025 8.225
      vertex -8.225 5.5 8.225
      vertex -8 3.9 8.225
    endloop
  endfacet
  facet normal -0 0 1
    outer loop
      vertex -8 3.9 8.225
      vertex -8.225 5.5 8.225
      vertex -8.1 3.9 8.225
    endloop
  endfacet
  facet normal 0 0 1
    outer loop
      vertex 8.225 4.025 8.225
      vertex -8.225 5.5 8.225
      vertex -8 4.025 8.225
    endloop
  endfacet
  facet normal 0 0 1
    outer loop
      vertex 8.225 5.5 8.225
      vertex -8.225 5.5 8.225
      vertex 8.225 4.025 8.225
    endloop
  endfacet
  facet normal 0.991445 -1.40281e-17 -0.130526
    outer loop
      vertex -7.475 10.5 -4.37428e-16
      vertex -7.2203 10.5 1.93467
      vertex -7.2203 6.555 1.93467
    endloop
  endfacet
  facet normal 0.991445 -2.89826e-17 -0.130526
    outer loop
      vertex -7.475 6.555 4.38538e-16
      vertex -7.475 10.5 -4.37428e-16
      vertex -7.2203 6.555 1.93467
    endloop
  endfacet
  facet normal 0.991445 2.204e-17 0.130526
    outer loop
      vertex -7.2203 6.555 -1.93467
      vertex -7.2203 10.5 -1.93467
      vertex -7.475 10.5 -4.37428e-16
    endloop
  endfacet
  facet normal 0.991445 2.89826e-17 0.130526
    outer loop
      vertex -7.475 6.555 4.38538e-16
      vertex -7.2203 6.555 -1.93467
      vertex -7.475 10.5 -4.37428e-16
    endloop
  endfacet
  facet normal 0.923879 -2.80562e-17 -0.382684
    outer loop
      vertex -7.2203 10.5 1.93467
      vertex -6.47354 10.5 3.7375
      vertex -6.47354 6.555 3.7375
    endloop
  endfacet
  facet normal 0.923879 -6.46181e-17 -0.382684
    outer loop
      vertex -7.2203 6.555 1.93467
      vertex -7.2203 10.5 1.93467
      vertex -6.47354 6.555 3.7375
    endloop
  endfacet
  facet normal 0.793353 -1.12225e-16 -0.608762
    outer loop
      vertex -6.47354 10.5 3.7375
      vertex -5.28562 10.5 5.28562
      vertex -5.28562 6.555 5.28562
    endloop
  endfacet
  facet normal 0.793353 -6.85284e-17 -0.608762
    outer loop
      vertex -6.47354 6.555 3.7375
      vertex -6.47354 10.5 3.7375
      vertex -5.28562 6.555 5.28562
    endloop
  endfacet
  facet normal 0.608762 -1.78616e-16 -0.793353
    outer loop
      vertex -3.7375 10.5 6.47354
      vertex -3.7375 6.555 6.47354
      vertex -5.28562 10.5 5.28562
    endloop
  endfacet
  facet normal 0.608762 -1.78616e-16 -0.793353
    outer loop
      vertex -5.28562 10.5 5.28562
      vertex -3.7375 6.555 6.47354
      vertex -5.28562 6.555 5.28562
    endloop
  endfacet
  facet normal 0.382684 -2.08002e-16 -0.923879
    outer loop
      vertex -1.93467 10.5 7.2203
      vertex -1.93467 6.555 7.2203
      vertex -3.7375 10.5 6.47354
    endloop
  endfacet
  facet normal 0.382684 -2.08002e-16 -0.923879
    outer loop
      vertex -3.7375 10.5 6.47354
      vertex -1.93467 6.555 7.2203
      vertex -3.7375 6.555 6.47354
    endloop
  endfacet
  facet normal 0.130526 -2.23214e-16 -0.991445
    outer loop
      vertex 0 10.5 7.475
      vertex 0 6.555 7.475
      vertex -1.93467 10.5 7.2203
    endloop
  endfacet
  facet normal 0.130526 -2.23214e-16 -0.991445
    outer loop
      vertex -1.93467 10.5 7.2203
      vertex 0 6.555 7.475
      vertex -1.93467 6.555 7.2203
    endloop
  endfacet
  facet normal -0.130526 -2.23214e-16 -0.991445
    outer loop
      vertex 1.93467 10.5 7.2203
      vertex 1.93467 6.555 7.2203
      vertex 0 10.5 7.475
    endloop
  endfacet
  facet normal -0.130526 -2.23214e-16 -0.991445
    outer loop
      vertex 0 10.5 7.475
      vertex 1.93467 6.555 7.2203
      vertex 0 6.555 7.475
    endloop
  endfacet
  facet normal -0.382684 -2.08002e-16 -0.923879
    outer loop
      vertex 3.7375 10.5 6.47354
      vertex 3.7375 6.555 6.47354
      vertex 1.93467 10.5 7.2203
    endloop
  endfacet
  facet normal -0.382684 -2.08002e-16 -0.923879
    outer loop
      vertex 1.93467 10.5 7.2203
      vertex 3.7375 6.555 6.47354
      vertex 1.93467 6.555 7.2203
    endloop
  endfacet
  facet normal -0.608762 -1.78616e-16 -0.793353
    outer loop
      vertex 5.28562 10.5 5.28562
      vertex 5.28562 6.555 5.28562
      vertex 3.7375 10.5 6.47354
    endloop
  endfacet
  facet normal -0.608762 -1.78616e-16 -0.793353
    outer loop
      vertex 3.7375 10.5 6.47354
      vertex 5.28562 6.555 5.28562
      vertex 3.7375 6.555 6.47354
    endloop
  endfacet
  facet normal -0.793353 -6.85284e-17 -0.608762
    outer loop
      vertex 6.47354 10.5 3.7375
      vertex 6.47354 6.555 3.7375
      vertex 5.28562 10.5 5.28562
    endloop
  endfacet
  facet normal -0.793353 -1.37057e-16 -0.608762
    outer loop
      vertex 5.28562 10.5 5.28562
      vertex 6.47354 6.555 3.7375
      vertex 5.28562 6.555 5.28562
    endloop
  endfacet
  facet normal -0.923879 -6.46181e-17 -0.382684
    outer loop
      vertex 7.2203 10.5 1.93467
      vertex 7.2203 6.555 1.93467
      vertex 6.47354 10.5 3.7375
    endloop
  endfacet
  facet normal -0.923879 -4.30787e-17 -0.382684
    outer loop
      vertex 6.47354 10.5 3.7375
      vertex 7.2203 6.555 1.93467
      vertex 6.47354 6.555 3.7375
    endloop
  endfacet
  facet normal -0.991445 -2.89826e-17 -0.130526
    outer loop
      vertex 7.475 10.5 -4.37428e-16
      vertex 7.475 6.555 4.38538e-16
      vertex 7.2203 10.5 1.93467
    endloop
  endfacet
  facet normal -0.991445 -2.204e-17 -0.130526
    outer loop
      vertex 7.2203 10.5 1.93467
      vertex 7.475 6.555 4.38538e-16
      vertex 7.2203 6.555 1.93467
    endloop
  endfacet
  facet normal -0.991445 2.89826e-17 0.130526
    outer loop
      vertex 7.475 10.5 -4.37428e-16
      vertex 7.2203 10.5 -1.93467
      vertex 7.475 6.555 4.38538e-16
    endloop
  endfacet
  facet normal -0.991445 1.40281e-17 0.130526
    outer loop
      vertex 7.475 6.555 4.38538e-16
      vertex 7.2203 10.5 -1.93467
      vertex 7.2203 6.555 -1.93467
    endloop
  endfacet
  facet normal -0.923879 6.46181e-17 0.382684
    outer loop
      vertex 7.2203 10.5 -1.93467
      vertex 6.47354 10.5 -3.7375
      vertex 7.2203 6.555 -1.93467
    endloop
  endfacet
  facet normal -0.923879 5.61123e-17 0.382684
    outer loop
      vertex 7.2203 6.555 -1.93467
      vertex 6.47354 10.5 -3.7375
      vertex 6.47354 6.555 -3.7375
    endloop
  endfacet
  facet normal -0.793353 6.85284e-17 0.608762
    outer loop
      vertex 6.47354 10.5 -3.7375
      vertex 5.28562 10.5 -5.28562
      vertex 6.47354 6.555 -3.7375
    endloop
  endfacet
  facet normal -0.793353 1.40281e-16 0.608762
    outer loop
      vertex 6.47354 6.555 -3.7375
      vertex 5.28562 10.5 -5.28562
      vertex 5.28562 6.555 -5.28562
    endloop
  endfacet
  facet normal -0.608762 1.78616e-16 0.793353
    outer loop
      vertex 5.28562 6.555 -5.28562
      vertex 5.28562 10.5 -5.28562
      vertex 3.7375 10.5 -6.47354
    endloop
  endfacet
  facet normal -0.608762 1.78616e-16 0.793353
    outer loop
      vertex 3.7375 6.555 -6.47354
      vertex 5.28562 6.555 -5.28562
      vertex 3.7375 10.5 -6.47354
    endloop
  endfacet
  facet normal -0.382684 2.08002e-16 0.923879
    outer loop
      vertex 3.7375 6.555 -6.47354
      vertex 3.7375 10.5 -6.47354
      vertex 1.93467 10.5 -7.2203
    endloop
  endfacet
  facet normal -0.382684 2.08002e-16 0.923879
    outer loop
      vertex 1.93467 6.555 -7.2203
      vertex 3.7375 6.555 -6.47354
      vertex 1.93467 10.5 -7.2203
    endloop
  endfacet
  facet normal -0.130526 2.23214e-16 0.991445
    outer loop
      vertex 1.93467 6.555 -7.2203
      vertex 1.93467 10.5 -7.2203
      vertex 0 10.5 -7.475
    endloop
  endfacet
  facet normal -0.130526 2.23214e-16 0.991445
    outer loop
      vertex 0 6.555 -7.475
      vertex 1.93467 6.555 -7.2203
      vertex 0 10.5 -7.475
    endloop
  endfacet
  facet normal 0.130526 2.23214e-16 0.991445
    outer loop
      vertex 0 6.555 -7.475
      vertex 0 10.5 -7.475
      vertex -1.93467 10.5 -7.2203
    endloop
  endfacet
  facet normal 0.130526 2.23214e-16 0.991445
    outer loop
      vertex -1.93467 6.555 -7.2203
      vertex 0 6.555 -7.475
      vertex -1.93467 10.5 -7.2203
    endloop
  endfacet
  facet normal 0.382684 2.08002e-16 0.923879
    outer loop
      vertex -1.93467 6.555 -7.2203
      vertex -1.93467 10.5 -7.2203
      vertex -3.7375 10.5 -6.47354
    endloop
  endfacet
  facet normal 0.382684 2.08002e-16 0.923879
    outer loop
      vertex -3.7375 6.555 -6.47354
      vertex -1.93467 6.555 -7.2203
      vertex -3.7375 10.5 -6.47354
    endloop
  endfacet
  facet normal 0.608762 1.78616e-16 0.793353
    outer loop
      vertex -3.7375 6.555 -6.47354
      vertex -3.7375 10.5 -6.47354
      vertex -5.28562 10.5 -5.28562
    endloop
  endfacet
  facet normal 0.608762 1.78616e-16 0.793353
    outer loop
      vertex -5.28562 6.555 -5.28562
      vertex -3.7375 6.555 -6.47354
      vertex -5.28562 10.5 -5.28562
    endloop
  endfacet
  facet normal 0.793353 1.37057e-16 0.608762
    outer loop
      vertex -5.28562 6.555 -5.28562
      vertex -5.28562 10.5 -5.28562
      vertex -6.47354 10.5 -3.7375
    endloop
  endfacet
  facet normal 0.793353 6.85284e-17 0.608762
    outer loop
      vertex -6.47354 6.555 -3.7375
      vertex -5.28562 6.555 -5.28562
      vertex -6.47354 10.5 -3.7375
    endloop
  endfacet
  facet normal 0.923879 4.30787e-17 0.382684
    outer loop
      vertex -6.47354 6.555 -3.7375
      vertex -6.47354 10.5 -3.7375
      vertex -7.2203 10.5 -1.93467
    endloop
  endfacet
  facet normal 0.923879 6.46181e-17 0.382684
    outer loop
      vertex -7.2203 6.555 -1.93467
      vertex -6.47354 6.555 -3.7375
      vertex -7.2203 10.5 -1.93467
    endloop
  endfacet
  facet normal 2.32248e-16 -0.707107 -0.707107
    outer loop
      vertex -8.225 4.025 -8.225
      vertex 8 4.025 -8.225
      vertex 8 3.9 -8.1
    endloop
  endfacet
  facet normal 2.32248e-16 -0.707107 -0.707107
    outer loop
      vertex -8.225 3.9 -8.1
      vertex -8.225 4.025 -8.225
      vertex 8 3.9 -8.1
    endloop
  endfacet
  facet normal -0.707107 -0.707107 -3.09727e-16
    outer loop
      vertex -8.225 4.025 -8
      vertex -8.1 3.9 -8
      vertex -8.1 3.9 8.225
    endloop
  endfacet
  facet normal -0.707107 -0.707107 -3.09664e-16
    outer loop
      vertex -8.225 4.025 8.225
      vertex -8.225 4.025 -8
      vertex -8.1 3.9 8.225
    endloop
  endfacet
  facet normal -0 0 1
    outer loop
      vertex -8.1 3.9 -8
      vertex -8.225 4.025 -8
      vertex -8.225 3.9 -8
    endloop
  endfacet
  facet normal 0 -1 0
    outer loop
      vertex 8 3.9 -8.1
      vertex 8 3.9 -8.225
      vertex 8.1 3.9 -8.225
    endloop
  endfacet
  facet normal -0 -1 0
    outer loop
      vertex 8 3.9 -8
      vertex 8 3.9 -8.1
      vertex 8.1 3.9 8
    endloop
  endfacet
  facet normal 0 -1 0
    outer loop
      vertex 8.1 3.9 8
      vertex 8 3.9 -8.1
      vertex 8.1 3.9 -8.225
    endloop
  endfacet
  facet normal 0 -1 0
    outer loop
      vertex 8.225 3.9 8.1
      vertex 8.1 3.9 8
      vertex 8.225 3.9 8
    endloop
  endfacet
  facet normal -0 -1 0
    outer loop
      vertex -8 3.9 8.1
      vertex 8.1 3.9 8
      vertex 8.225 3.9 8.1
    endloop
  endfacet
  facet normal 0 -1 0
    outer loop
      vertex -8.1 3.9 8.225
      vertex -8 3.9 8.1
      vertex -8 3.9 8.225
    endloop
  endfacet
  facet normal 0 -1 -0
    outer loop
      vertex -8.1 3.9 -8
      vertex -8 3.9 8.1
      vertex -8.1 3.9 8.225
    endloop
  endfacet
  facet normal 0 -1 0
    outer loop
      vertex -8.1 3.9 -8
      vertex -8 3.9 8
      vertex -8 3.9 8.1
    endloop
  endfacet
  facet normal -0 -1 0
    outer loop
      vertex -8 3.9 8
      vertex 8 3.9 8
      vertex -8 3.9 8.1
    endloop
  endfacet
  facet normal 0 -1 0
    outer loop
      vertex -8 3.9 8.1
      vertex 8 3.9 8
      vertex 8.1 3.9 8
    endloop
  endfacet
  facet normal 0 -1 0
    outer loop
      vertex 8 3.9 8
      vertex 8 3.9 -8
      vertex 8.1 3.9 8
    endloop
  endfacet
  facet normal -0 -1 0
    outer loop
      vertex -8.1 3.9 -8
      vertex -8 3.9 -8
      vertex -8 3.9 8
    endloop
  endfacet
  facet normal 0 -1 -0
    outer loop
      vertex -8.225 3.9 -8.1
      vertex -8.1 3.9 -8
      vertex -8.225 3.9 -8
    endloop
  endfacet
  facet normal 0 -1 0
    outer loop
      vertex -8.225 3.9 -8.1
      vertex -8 3.9 -8
      vertex -8.1 3.9 -8
    endloop
  endfacet
  facet normal 0 -1 0
    outer loop
      vertex 8 3.9 -8
      vertex -8 3.9 -8
      vertex 8 3.9 -8.1
    endloop
  endfacet
  facet normal 0 -1 0
    outer loop
      vertex -8.225 3.9 -8.1
      vertex 8 3.9 -8.1
      vertex -8 3.9 -8
    endloop
  endfacet
  facet normal -1 0 0
    outer loop
      vertex 8 4.025 -8.225
      vertex 8 3.9 -8.225
      vertex 8 3.9 -8.1
    endloop
  endfacet
  facet normal 0.707107 -0.707107 3.09727e-16
    outer loop
      vertex 8.1 3.9 -8.225
      vertex 8.225 4.025 -8.225
      vertex 8.225 4.025 8
    endloop
  endfacet
  facet normal 0.707107 -0.707107 3.09664e-16
    outer loop
      vertex 8.1 3.9 8
      vertex 8.1 3.9 -8.225
      vertex 8.225 4.025 8
    endloop
  endfacet
  facet normal -1.54832e-16 -0.707107 0.707107
    outer loop
      vertex -8 3.9 8.1
      vertex 8.225 3.9 8.1
      vertex 8.225 4.025 8.225
    endloop
  endfacet
  facet normal -1.54832e-16 -0.707107 0.707107
    outer loop
      vertex -8 4.025 8.225
      vertex -8 3.9 8.1
      vertex 8.225 4.025 8.225
    endloop
  endfacet
  facet normal 0 0 -1
    outer loop
      vertex 8.225 4.025 8
      vertex 8.225 3.9 8
      vertex 8.1 3.9 8
    endloop
  endfacet
  facet normal 1 0 0
    outer loop
      vertex -8 3.9 8.1
      vertex -8 4.025 8.225
      vertex -8 3.9 8.225
    endloop
  endfacet
  facet normal -1.62473e-15 1 6.72984e-16
    outer loop
      vertex -6.47354 6.555 3.7375
      vertex -5.28562 6.555 5.28562
      vertex -7.2203 6.555 1.93467
    endloop
  endfacet
  facet normal 3.65149e-16 1 -4.75872e-16
    outer loop
      vertex -7.2203 6.555 1.93467
      vertex -5.28562 6.555 5.28562
      vertex -3.7375 6.555 6.47354
    endloop
  endfacet
  facet normal 1.1882e-16 1 -2.86857e-16
    outer loop
      vertex -7.2203 6.555 1.93467
      vertex -3.7375 6.555 6.47354
      vertex -1.93467 6.555 7.2203
    endloop
  endfacet
  facet normal 2.54764e-17 1 -1.93513e-16
    outer loop
      vertex -7.2203 6.555 1.93467
      vertex -1.93467 6.555 7.2203
      vertex 0 6.555 7.475
    endloop
  endfacet
  facet normal -1.80146e-17 1 -1.36834e-16
    outer loop
      vertex -7.2203 6.555 1.93467
      vertex 0 6.555 7.475
      vertex 1.93467 6.555 7.2203
    endloop
  endfacet
  facet normal -4.05272e-17 1 -9.78414e-17
    outer loop
      vertex -7.2203 6.555 1.93467
      vertex 1.93467 6.555 7.2203
      vertex 3.7375 6.555 6.47354
    endloop
  endfacet
  facet normal -5.26392e-17 1 -6.86007e-17
    outer loop
      vertex -7.2203 6.555 1.93467
      vertex 3.7375 6.555 6.47354
      vertex 5.28562 6.555 5.28562
    endloop
  endfacet
  facet normal 6.86007e-17 1 -5.21074e-16
    outer loop
      vertex -7.2203 6.555 1.93467
      vertex 5.28562 6.555 5.28562
      vertex 6.47354 6.555 3.7375
    endloop
  endfacet
  facet normal 0 1 0
    outer loop
      vertex -7.2203 6.555 1.93467
      vertex 6.47354 6.555 3.7375
      vertex 7.2203 6.555 1.93467
    endloop
  endfacet
  facet normal 0 1 -4.59085e-16
    outer loop
      vertex -7.2203 6.555 1.93467
      vertex 7.2203 6.555 1.93467
      vertex 7.475 6.555 4.38538e-16
    endloop
  endfacet
  facet normal 5.94099e-17 1 -7.82145e-18
    outer loop
      vertex -7.2203 6.555 1.93467
      vertex 7.475 6.555 4.38538e-16
      vertex 7.2203 6.555 -1.93467
    endloop
  endfacet
  facet normal -6.34586e-17 1 -4.66373e-16
    outer loop
      vertex -7.2203 6.555 1.93467
      vertex 7.2203 6.555 -1.93467
      vertex 6.47354 6.555 -3.7375
    endloop
  endfacet
  facet normal 9.84336e-17 1 -7.55308e-17
    outer loop
      vertex -7.2203 6.555 1.93467
      vertex 6.47354 6.555 -3.7375
      vertex 5.28562 6.555 -5.28562
    endloop
  endfacet
  facet normal 8.10545e-17 1 -1.05632e-16
    outer loop
      vertex -7.2203 6.555 1.93467
      vertex 5.28562 6.555 -5.28562
      vertex 3.7375 6.555 -6.47354
    endloop
  endfacet
  facet normal -2.63116e-16 1 -5.54164e-16
    outer loop
      vertex -7.2203 6.555 1.93467
      vertex 3.7375 6.555 -6.47354
      vertex 1.93467 6.555 -7.2203
    endloop
  endfacet
  facet normal 3.38595e-17 1 -2.57189e-16
    outer loop
      vertex -7.2203 6.555 1.93467
      vertex 1.93467 6.555 -7.2203
      vertex 0 6.555 -7.475
    endloop
  endfacet
  facet normal -4.14692e-17 1 -3.1499e-16
    outer loop
      vertex -7.2203 6.555 1.93467
      vertex 0 6.555 -7.475
      vertex -1.93467 6.555 -7.2203
    endloop
  endfacet
  facet normal 4.89059e-16 1 -8.68957e-18
    outer loop
      vertex -7.2203 6.555 1.93467
      vertex -1.93467 6.555 -7.2203
      vertex -3.7375 6.555 -6.47354
    endloop
  endfacet
  facet normal -2.3764e-16 1 -3.09698e-16
    outer loop
      vertex -7.2203 6.555 1.93467
      vertex -3.7375 6.555 -6.47354
      vertex -5.28562 6.555 -5.28562
    endloop
  endfacet
  facet normal -4.92658e-16 1 -3.7803e-16
    outer loop
      vertex -7.2203 6.555 1.93467
      vertex -5.28562 6.555 -5.28562
      vertex -6.47354 6.555 -3.7375
    endloop
  endfacet
  facet normal 6.35218e-16 1 -2.29542e-16
    outer loop
      vertex -7.2203 6.555 1.93467
      vertex -6.47354 6.555 -3.7375
      vertex -7.2203 6.555 -1.93467
    endloop
  endfacet
  facet normal -1.74355e-15 1 -2.29542e-16
    outer loop
      vertex -7.2203 6.555 1.93467
      vertex -7.2203 6.555 -1.93467
      vertex -7.475 6.555 4.38538e-16
    endloop
  endfacet
  facet normal 0 0 1
    outer loop
      vertex 8 3.9 8
      vertex -8 3.8 8
      vertex 8 3.8 8
    endloop
  endfacet
  facet normal 0 0 1
    outer loop
      vertex -8 3.9 8
      vertex -8 3.8 8
      vertex 8 3.9 8
    endloop
  endfacet
  facet normal -1 0 -2.22045e-16
    outer loop
      vertex -8 3.9 -8
      vertex -8 3.8 -8
      vertex -8 3.9 8
    endloop
  endfacet
  facet normal -1 0 -2.22045e-16
    outer loop
      vertex -8 3.9 8
      vertex -8 3.8 -8
      vertex -8 3.8 8
    endloop
  endfacet
  facet normal 1.11022e-16 3.9443e-30 -1
    outer loop
      vertex -8 3.8 -8
      vertex -8 3.9 -8
      vertex 8 3.8 -8
    endloop
  endfacet
  facet normal 1.11022e-16 -1.97215e-30 -1
    outer loop
      vertex 8 3.9 -8
      vertex 8 3.8 -8
      vertex -8 3.9 -8
    endloop
  endfacet
  facet normal 1 0 2.22045e-16
    outer loop
      vertex 8 3.8 -8
      vertex 8 3.9 -8
      vertex 8 3.9 8
    endloop
  endfacet
  facet normal 1 0 2.22045e-16
    outer loop
      vertex 8 3.8 8
      vertex 8 3.8 -8
      vertex 8 3.9 8
    endloop
  endfacet
  facet normal -0.707107 -0.707107 -2.74766e-16
    outer loop
      vertex -8 3.8 8
      vertex -8 3.8 -8
      vertex -5.5 1.3 5.5
    endloop
  endfacet
  facet normal -0.707107 -0.707107 -2.85471e-16
    outer loop
      vertex -5.5 1.3 5.5
      vertex -8 3.8 -8
      vertex -5.5 1.3 -5.5
    endloop
  endfacet
  facet normal 0.707107 -0.707107 2.68265e-16
    outer loop
      vertex 5.5 1.3 -5.5
      vertex 8 3.8 -8
      vertex 8 3.8 8
    endloop
  endfacet
  facet normal 0.707107 -0.707107 2.85471e-16
    outer loop
      vertex 5.5 1.3 5.5
      vertex 5.5 1.3 -5.5
      vertex 8 3.8 8
    endloop
  endfacet
  facet normal -1.95102e-16 -0.707107 0.707107
    outer loop
      vertex -8 3.8 8
      vertex -5.5 1.3 5.5
      vertex 5.5 1.3 5.5
    endloop
  endfacet
  facet normal -1.96262e-16 -0.707107 0.707107
    outer loop
      vertex 8 3.8 8
      vertex -8 3.8 8
      vertex 5.5 1.3 5.5
    endloop
  endfacet
  facet normal 2.35514e-16 -0.707107 -0.707107
    outer loop
      vertex -8 3.8 -8
      vertex 8 3.8 -8
      vertex -5.5 1.3 -5.5
    endloop
  endfacet
  facet normal 2.85471e-16 -0.707107 -0.707107
    outer loop
      vertex -5.5 1.3 -5.5
      vertex 8 3.8 -8
      vertex 5.5 1.3 -5.5
    endloop
  endfacet
  facet normal 0 1 0
    outer loop
      vertex 5.5 1.3 5.5
      vertex 8 1.3 8
      vertex 5.5 1.3 -5.5
    endloop
  endfacet
  facet normal -0 1 0
    outer loop
      vertex -5.5 1.3 5.5
      vertex -8 1.3 -8
      vertex -8 1.3 8
    endloop
  endfacet
  facet normal -0 1 0
    outer loop
      vertex 8 1.3 -8
      vertex -8 1.3 -8
      vertex -5.5 1.3 -5.5
    endloop
  endfacet
  facet normal 0 1 0
    outer loop
      vertex 8 1.3 -8
      vertex -5.5 1.3 -5.5
      vertex 5.5 1.3 -5.5
    endloop
  endfacet
  facet normal 0 1 0
    outer loop
      vertex 8 1.3 -8
      vertex 5.5 1.3 -5.5
      vertex 8 1.3 8
    endloop
  endfacet
  facet normal 0 1 0
    outer loop
      vertex 8 1.3 8
      vertex 5.5 1.3 5.5
      vertex -8 1.3 8
    endloop
  endfacet
  facet normal -0 1 0
    outer loop
      vertex 5.5 1.3 5.5
      vertex -5.5 1.3 5.5
      vertex -8 1.3 8
    endloop
  endfacet
  facet normal -0 1 0
    outer loop
      vertex -5.5 1.3 -5.5
      vertex -8 1.3 -8
      vertex -5.5 1.3 5.5
    endloop
  endfacet
  facet normal 0 0 1
    outer loop
      vertex 8 1.3 8
      vertex -8 0.2 8
      vertex 8 0.2 8
    endloop
  endfacet
  facet normal 0 0 1
    outer loop
      vertex -8 1.3 8
      vertex -8 0.2 8
      vertex 8 1.3 8
    endloop
  endfacet
  facet normal 1 0 2.22045e-16
    outer loop
      vertex 8 0.2 -8
      vertex 8 1.3 -8
      vertex 8 1.3 8
    endloop
  endfacet
  facet normal 1 0 2.22045e-16
    outer loop
      vertex 8 0.2 8
      vertex 8 0.2 -8
      vertex 8 1.3 8
    endloop
  endfacet
  facet normal -1 0 -2.22045e-16
    outer loop
      vertex -8 1.3 -8
      vertex -8 0.2 -8
      vertex -8 1.3 8
    endloop
  endfacet
  facet normal -1 0 -2.22045e-16
    outer loop
      vertex -8 1.3 8
      vertex -8 0.2 -8
      vertex -8 0.2 8
    endloop
  endfacet
  facet normal 1.11022e-16 3.58573e-31 -1
    outer loop
      vertex -8 0.2 -8
      vertex -8 1.3 -8
      vertex 8 0.2 -8
    endloop
  endfacet
  facet normal 1.11022e-16 -1.79287e-31 -1
    outer loop
      vertex 8 1.3 -8
      vertex 8 0.2 -8
      vertex -8 1.3 -8
    endloop
  endfacet
  facet normal -0.707107 -0.707107 -2.78446e-16
    outer loop
      vertex -8 0.2 8
      vertex -8 0.2 -8
      vertex -5.5 -2.3 5.5
    endloop
  endfacet
  facet normal -0.707107 -0.707107 -2.85471e-16
    outer loop
      vertex -5.5 -2.3 5.5
      vertex -8 0.2 -8
      vertex -5.5 -2.3 -5.5
    endloop
  endfacet
  facet normal 0.707107 -0.707107 2.68265e-16
    outer loop
      vertex 5.5 -2.3 -5.5
      vertex 8 0.2 -8
      vertex 8 0.2 8
    endloop
  endfacet
  facet normal 0.707107 -0.707107 2.85471e-16
    outer loop
      vertex 5.5 -2.3 5.5
      vertex 5.5 -2.3 -5.5
      vertex 8 0.2 8
    endloop
  endfacet
  facet normal -1.95102e-16 -0.707107 0.707107
    outer loop
      vertex -8 0.2 8
      vertex -5.5 -2.3 5.5
      vertex 5.5 -2.3 5.5
    endloop
  endfacet
  facet normal -1.91355e-16 -0.707107 0.707107
    outer loop
      vertex 8 0.2 8
      vertex -8 0.2 8
      vertex 5.5 -2.3 5.5
    endloop
  endfacet
  facet normal 2.35514e-16 -0.707107 -0.707107
    outer loop
      vertex -8 0.2 -8
      vertex 8 0.2 -8
      vertex -5.5 -2.3 -5.5
    endloop
  endfacet
  facet normal 2.85471e-16 -0.707107 -0.707107
    outer loop
      vertex -5.5 -2.3 -5.5
      vertex 8 0.2 -8
      vertex 5.5 -2.3 -5.5
    endloop
  endfacet
  facet normal 0 1 0
    outer loop
      vertex 5.5 -2.3 5.5
      vertex 8 -2.3 8
      vertex 5.5 -2.3 -5.5
    endloop
  endfacet
  facet normal -0 1 0
    outer loop
      vertex -5.5 -2.3 5.5
      vertex -8 -2.3 -8
      vertex -8 -2.3 8
    endloop
  endfacet
  facet normal -0 1 0
    outer loop
      vertex 8 -2.3 -8
      vertex -8 -2.3 -8
      vertex -5.5 -2.3 -5.5
    endloop
  endfacet
  facet normal 0 1 0
    outer loop
      vertex 8 -2.3 -8
      vertex -5.5 -2.3 -5.5
      vertex 5.5 -2.3 -5.5
    endloop
  endfacet
  facet normal 0 1 0
    outer loop
      vertex 8 -2.3 -8
      vertex 5.5 -2.3 -5.5
      vertex 8 -2.3 8
    endloop
  endfacet
  facet normal 0 1 0
    outer loop
      vertex 8 -2.3 8
      vertex 5.5 -2.3 5.5
      vertex -8 -2.3 8
    endloop
  endfacet
  facet normal -0 1 0
    outer loop
      vertex 5.5 -2.3 5.5
      vertex -5.5 -2.3 5.5
      vertex -8 -2.3 8
    endloop
  endfacet
  facet normal -0 1 0
    outer loop
      vertex -5.5 -2.3 -5.5
      vertex -8 -2.3 -8
      vertex -5.5 -2.3 5.5
    endloop
  endfacet
  facet normal 0 0 1
    outer loop
      vertex 8 -2.3 8
      vertex -8 -2.8 8
      vertex 8 -2.8 8
    endloop
  endfacet
  facet normal 0 0 1
    outer loop
      vertex -8 -2.3 8
      vertex -8 -2.8 8
      vertex 8 -2.3 8
    endloop
  endfacet
  facet normal 1 0 2.22045e-16
    outer loop
      vertex 8 -2.8 -8
      vertex 8 -2.3 -8
      vertex 8 -2.3 8
    endloop
  endfacet
  facet normal 1 0 2.22045e-16
    outer loop
      vertex 8 -2.8 8
      vertex 8 -2.8 -8
      vertex 8 -2.3 8
    endloop
  endfacet
  facet normal -1 0 -2.22045e-16
    outer loop
      vertex -8 -2.3 -8
      vertex -8 -2.8 -8
      vertex -8 -2.3 8
    endloop
  endfacet
  facet normal -1 0 -2.22045e-16
    outer loop
      vertex -8 -2.3 8
      vertex -8 -2.8 -8
      vertex -8 -2.8 8
    endloop
  endfacet
  facet normal 1.11022e-16 7.88861e-31 -1
    outer loop
      vertex -8 -2.8 -8
      vertex -8 -2.3 -8
      vertex 8 -2.8 -8
    endloop
  endfacet
  facet normal 1.11022e-16 -3.9443e-31 -1
    outer loop
      vertex 8 -2.3 -8
      vertex 8 -2.8 -8
      vertex -8 -2.3 -8
    endloop
  endfacet
  facet normal -0.707107 -0.707107 -2.74766e-16
    outer loop
      vertex -8 -2.8 8
      vertex -8 -2.8 -8
      vertex -5.5 -5.3 5.5
    endloop
  endfacet
  facet normal -0.707107 -0.707107 -2.85471e-16
    outer loop
      vertex -5.5 -5.3 5.5
      vertex -8 -2.8 -8
      vertex -5.5 -5.3 -5.5
    endloop
  endfacet
  facet normal 0.707107 -0.707107 2.68265e-16
    outer loop
      vertex 5.5 -5.3 -5.5
      vertex 8 -2.8 -8
      vertex 8 -2.8 8
    endloop
  endfacet
  facet normal 0.707107 -0.707107 2.85471e-16
    outer loop
      vertex 5.5 -5.3 5.5
      vertex 5.5 -5.3 -5.5
      vertex 8 -2.8 8
    endloop
  endfacet
  facet normal -1.95102e-16 -0.707107 0.707107
    outer loop
      vertex -8 -2.8 8
      vertex -5.5 -5.3 5.5
      vertex 5.5 -5.3 5.5
    endloop
  endfacet
  facet normal -1.76635e-16 -0.707107 0.707107
    outer loop
      vertex 8 -2.8 8
      vertex -8 -2.8 8
      vertex 5.5 -5.3 5.5
    endloop
  endfacet
  facet normal 2.15888e-16 -0.707107 -0.707107
    outer loop
      vertex -8 -2.8 -8
      vertex 8 -2.8 -8
      vertex -5.5 -5.3 -5.5
    endloop
  endfacet
  facet normal 2.85471e-16 -0.707107 -0.707107
    outer loop
      vertex -5.5 -5.3 -5.5
      vertex 8 -2.8 -8
      vertex 5.5 -5.3 -5.5
    endloop
  endfacet
  facet normal 0 1 0
    outer loop
      vertex 5.5 -5.3 5.5
      vertex 8 -5.3 8
      vertex 5.5 -5.3 -5.5
    endloop
  endfacet
  facet normal -0 1 0
    outer loop
      vertex -5.5 -5.3 5.5
      vertex -8 -5.3 -8
      vertex -8 -5.3 8
    endloop
  endfacet
  facet normal -0 1 0
    outer loop
      vertex 8 -5.3 -8
      vertex -8 -5.3 -8
      vertex -5.5 -5.3 -5.5
    endloop
  endfacet
  facet normal 0 1 0
    outer loop
      vertex 8 -5.3 -8
      vertex -5.5 -5.3 -5.5
      vertex 5.5 -5.3 -5.5
    endloop
  endfacet
  facet normal 0 1 0
    outer loop
      vertex 8 -5.3 -8
      vertex 5.5 -5.3 -5.5
      vertex 8 -5.3 8
    endloop
  endfacet
  facet normal 0 1 0
    outer loop
      vertex 8 -5.3 8
      vertex 5.5 -5.3 5.5
      vertex -8 -5.3 8
    endloop
  endfacet
  facet normal -0 1 0
    outer loop
      vertex 5.5 -5.3 5.5
      vertex -5.5 -5.3 5.5
      vertex -8 -5.3 8
    endloop
  endfacet
  facet normal -0 1 0
    outer loop
      vertex -5.5 -5.3 -5.5
      vertex -8 -5.3 -8
      vertex -5.5 -5.3 5.5
    endloop
  endfacet
  facet normal 0 0 1
    outer loop
      vertex 8 -5.3 8
      vertex -8 -5.8 8
      vertex 8 -5.8 8
    endloop
  endfacet
  facet normal 0 0 1
    outer loop
      vertex -8 -5.3 8
      vertex -8 -5.8 8
      vertex 8 -5.3 8
    endloop
  endfacet
  facet normal 1 0 2.22045e-16
    outer loop
      vertex 8 -5.8 -8
      vertex 8 -5.3 -8
      vertex 8 -5.3 8
    endloop
  endfacet
  facet normal 1 0 2.22045e-16
    outer loop
      vertex 8 -5.8 8
      vertex 8 -5.8 -8
      vertex 8 -5.3 8
    endloop
  endfacet
  facet normal -1 0 -2.22045e-16
    outer loop
      vertex -8 -5.3 -8
      vertex -8 -5.8 -8
      vertex -8 -5.3 8
    endloop
  endfacet
  facet normal -1 0 -2.22045e-16
    outer loop
      vertex -8 -5.3 8
      vertex -8 -5.8 -8
      vertex -8 -5.8 8
    endloop
  endfacet
  facet normal 1.11022e-16 7.88861e-31 -1
    outer loop
      vertex -8 -5.8 -8
      vertex -8 -5.3 -8
      vertex 8 -5.8 -8
    endloop
  endfacet
  facet normal 1.11022e-16 -3.9443e-31 -1
    outer loop
      vertex 8 -5.3 -8
      vertex 8 -5.8 -8
      vertex -8 -5.3 -8
    endloop
  endfacet
  facet normal -0.707107 -0.707107 -2.74766e-16
    outer loop
      vertex -8 -5.8 8
      vertex -8 -5.8 -8
      vertex -5.575 -8.225 5.575
    endloop
  endfacet
  facet normal -0.707107 -0.707107 -2.81631e-16
    outer loop
      vertex -5.575 -8.225 5.575
      vertex -8 -5.8 -8
      vertex -5.575 -8.225 -5.575
    endloop
  endfacet
  facet normal 0.707107 -0.707107 2.79643e-16
    outer loop
      vertex 5.575 -8.225 -5.575
      vertex 8 -5.8 -8
      vertex 8 -5.8 8
    endloop
  endfacet
  facet normal 0.707107 -0.707107 2.81631e-16
    outer loop
      vertex 5.575 -8.225 5.575
      vertex 5.575 -8.225 -5.575
      vertex 8 -5.8 8
    endloop
  endfacet
  facet normal -1.67201e-16 -0.707107 0.707107
    outer loop
      vertex -8 -5.8 8
      vertex -5.575 -8.225 5.575
      vertex 5.575 -8.225 5.575
    endloop
  endfacet
  facet normal -1.57009e-16 -0.707107 0.707107
    outer loop
      vertex 8 -5.8 8
      vertex -8 -5.8 8
      vertex 5.575 -8.225 5.575
    endloop
  endfacet
  facet normal 1.96262e-16 -0.707107 -0.707107
    outer loop
      vertex -8 -5.8 -8
      vertex 8 -5.8 -8
      vertex -5.575 -8.225 -5.575
    endloop
  endfacet
  facet normal 2.81631e-16 -0.707107 -0.707107
    outer loop
      vertex -5.575 -8.225 -5.575
      vertex 8 -5.8 -8
      vertex 5.575 -8.225 -5.575
    endloop
  endfacet
  facet normal 0 -1 0
    outer loop
      vertex -4 -8.225 -4
      vertex -5.575 -8.225 5.575
      vertex -5.575 -8.225 -5.575
    endloop
  endfacet
  facet normal -0 -1 0
    outer loop
      vertex -4 -8.225 4
      vertex 4 -8.225 4
      vertex 5.575 -8.225 5.575
    endloop
  endfacet
  facet normal 0 -1 0
    outer loop
      vertex -4 -8.225 4
      vertex -5.575 -8.225 5.575
      vertex -4 -8.225 -4
    endloop
  endfacet
  facet normal 0 -1 0
    outer loop
      vertex 5.575 -8.225 5.575
      vertex -5.575 -8.225 5.575
      vertex -4 -8.225 4
    endloop
  endfacet
  facet normal 0 -1 0
    outer loop
      vertex 5.575 -8.225 -5.575
      vertex 5.575 -8.225 5.575
      vertex 4 -8.225 4
    endloop
  endfacet
  facet normal 0 -1 0
    outer loop
      vertex 5.575 -8.225 -5.575
      vertex 4 -8.225 -4
      vertex -5.575 -8.225 -5.575
    endloop
  endfacet
  facet normal 0 -1 0
    outer loop
      vertex 5.575 -8.225 -5.575
      vertex 4 -8.225 4
      vertex 4 -8.225 -4
    endloop
  endfacet
  facet normal 0 -1 0
    outer loop
      vertex 4 -8.225 -4
      vertex -4 -8.225 -4
      vertex -5.575 -8.225 -5.575
    endloop
  endfacet
  facet normal 1 0 0
    outer loop
      vertex -4 0 -4
      vertex -4 0 4
      vertex -4 -8.225 4
    endloop
  endfacet
  facet normal 1 0 0
    outer loop
      vertex -4 -8.225 -4
      vertex -4 0 -4
      vertex -4 -8.225 4
    endloop
  endfacet
  facet normal 0 0 1
    outer loop
      vertex 4 -8.225 -4
      vertex 4 0 -4
      vertex -4 0 -4
    endloop
  endfacet
  facet normal 0 0 1
    outer loop
      vertex -4 -8.225 -4
      vertex 4 -8.225 -4
      vertex -4 0 -4
    endloop
  endfacet
  facet normal -1 0 0
    outer loop
      vertex 4 0 4
      vertex 4 0 -4
      vertex 4 -8.225 4
    endloop
  endfacet
  facet normal -1 0 0
    outer loop
      vertex 4 -8.225 4
      vertex 4 0 -4
      vertex 4 -8.225 -4
    endloop
  endfacet
  facet normal 0 0 -1
    outer loop
      vertex 4 0 4
      vertex 4 -8.225 4
      vertex -4 0 4
    endloop
  endfacet
  facet normal 0 0 -1
    outer loop
      vertex -4 0 4
      vertex 4 -8.225 4
      vertex -4 -8.225 4
    endloop
  endfacet
  facet normal 0 -1 0
    outer loop
      vertex 4 0 -4
      vertex 4 0 4
      vertex -4 0 4
    endloop
  endfacet
  facet normal -0 -1 -0
    outer loop
      vertex -4 0 -4
      vertex 4 0 -4
      vertex -4 0 4
    endloop
  endfacet
endsolid OpenSCAD_Model
