solid OpenSCAD_Model
  facet normal -0 0 -1
    outer loop
      vertex -18 0 -10
      vertex -17.6067 3.74241 -10
      vertex -17.6067 -3.74241 -10
    endloop
  endfacet
  facet normal 0 -0 -1
    outer loop
      vertex -17.6067 -3.74241 -10
      vertex -17.6067 3.74241 -10
      vertex -16.4438 7.32126 -10
    endloop
  endfacet
  facet normal 0 0 -1
    outer loop
      vertex -17.6067 -3.74241 -10
      vertex -16.4438 7.32126 -10
      vertex -14.5623 10.5801 -10
    endloop
  endfacet
  facet normal 0 0 -1
    outer loop
      vertex -17.6067 -3.74241 -10
      vertex -14.5623 10.5801 -10
      vertex -12.0444 13.3766 -10
    endloop
  endfacet
  facet normal 0 0 -1
    outer loop
      vertex -17.6067 -3.74241 -10
      vertex -12.0444 13.3766 -10
      vertex -9 15.5885 -10
    endloop
  endfacet
  facet normal 0 0 -1
    outer loop
      vertex -10.0625 10.0625 -10
      vertex -9 15.5885 -10
      vertex -5.56231 17.119 -10
    endloop
  endfacet
  facet normal 0 0 -1
    outer loop
      vertex 10.0625 10.0625 -10
      vertex 14.5623 10.5801 -10
      vertex 14.6086 10.5 -10
    endloop
  endfacet
  facet normal -0 0 -1
    outer loop
      vertex 10.0625 10.0625 -10
      vertex 14.6086 10.5 -10
      vertex 16.7107 6.5 -10
    endloop
  endfacet
  facet normal 0 0 -1
    outer loop
      vertex 9.5 10.0625 -10
      vertex -10.0625 10.0625 -10
      vertex 9.5 10.5 -10
    endloop
  endfacet
  facet normal 0 0 -1
    outer loop
      vertex 10.0625 10.0625 -10
      vertex 12.0444 13.3766 -10
      vertex 14.5623 10.5801 -10
    endloop
  endfacet
  facet normal 0 -0 -1
    outer loop
      vertex 16.7107 6.5 -10
      vertex 14.6086 10.5 -10
      vertex 48.5 10.5 -10
    endloop
  endfacet
  facet normal 0 0 -1
    outer loop
      vertex -10.0625 10.0625 -10
      vertex 1.88151 17.9014 -10
      vertex 5.56231 17.119 -10
    endloop
  endfacet
  facet normal 0 0 -1
    outer loop
      vertex -10.0625 10.0625 -10
      vertex -1.88151 17.9014 -10
      vertex 1.88151 17.9014 -10
    endloop
  endfacet
  facet normal 0 0 -1
    outer loop
      vertex -10.0625 10.0625 -10
      vertex -5.56231 17.119 -10
      vertex -1.88151 17.9014 -10
    endloop
  endfacet
  facet normal 0 0 -1
    outer loop
      vertex 10.0625 -10.0625 -10
      vertex 14.5623 -10.5801 -10
      vertex 12.0444 -13.3766 -10
    endloop
  endfacet
  facet normal 0 0 -1
    outer loop
      vertex 10.0625 -10.0625 -10
      vertex 1.88151 -17.9014 -10
      vertex -10.0625 -10.0625 -10
    endloop
  endfacet
  facet normal 0 0 -1
    outer loop
      vertex 10.0625 -10.0625 -10
      vertex 5.56231 -17.119 -10
      vertex 1.88151 -17.9014 -10
    endloop
  endfacet
  facet normal 0 0 -1
    outer loop
      vertex 10.0625 -10.0625 -10
      vertex 9 -15.5885 -10
      vertex 5.56231 -17.119 -10
    endloop
  endfacet
  facet normal 0 0 -1
    outer loop
      vertex -10.0625 -10.0625 -10
      vertex 1.88151 -17.9014 -10
      vertex -1.88151 -17.9014 -10
    endloop
  endfacet
  facet normal 0 0 -1
    outer loop
      vertex -17.6067 -3.74241 -10
      vertex -1.88151 -17.9014 -10
      vertex -5.56231 -17.119 -10
    endloop
  endfacet
  facet normal 0 0 -1
    outer loop
      vertex -17.6067 -3.74241 -10
      vertex -5.56231 -17.119 -10
      vertex -9 -15.5885 -10
    endloop
  endfacet
  facet normal 0 0 -1
    outer loop
      vertex -17.6067 -3.74241 -10
      vertex -9 -15.5885 -10
      vertex -12.0444 -13.3766 -10
    endloop
  endfacet
  facet normal 0 0 -1
    outer loop
      vertex -17.6067 -3.74241 -10
      vertex -12.0444 -13.3766 -10
      vertex -14.5623 -10.5801 -10
    endloop
  endfacet
  facet normal 0 0 -1
    outer loop
      vertex -17.6067 -3.74241 -10
      vertex -14.5623 -10.5801 -10
      vertex -16.4438 -7.32126 -10
    endloop
  endfacet
  facet normal 0 0 -1
    outer loop
      vertex -17.6067 -3.74241 -10
      vertex -9 15.5885 -10
      vertex -10.0625 10.0625 -10
    endloop
  endfacet
  facet normal 0 0 -1
    outer loop
      vertex -10.0625 -10.0625 -10
      vertex -17.6067 -3.74241 -10
      vertex -10.0625 10.0625 -10
    endloop
  endfacet
  facet normal 0 0 -1
    outer loop
      vertex 10.0625 -10.0625 -10
      vertex 12.0444 -13.3766 -10
      vertex 9 -15.5885 -10
    endloop
  endfacet
  facet normal 0 0 -1
    outer loop
      vertex -17.6067 -3.74241 -10
      vertex -10.0625 -10.0625 -10
      vertex -1.88151 -17.9014 -10
    endloop
  endfacet
  facet normal 0 0 -1
    outer loop
      vertex 10.0625 10.0625 -10
      vertex 14.5623 -10.5801 -10
      vertex 10.0625 -10.0625 -10
    endloop
  endfacet
  facet normal -0 0 -1
    outer loop
      vertex 9.5 10.0625 -10
      vertex 12.0444 13.3766 -10
      vertex 10.0625 10.0625 -10
    endloop
  endfacet
  facet normal -0 0 -1
    outer loop
      vertex 9.5 10.5 -10
      vertex 12.0444 13.3766 -10
      vertex 9.5 10.0625 -10
    endloop
  endfacet
  facet normal -0 0 -1
    outer loop
      vertex 16.7107 6.5 -10
      vertex 48.5 10.5 -10
      vertex 48.5 6.5 -10
    endloop
  endfacet
  facet normal 0 0 -1
    outer loop
      vertex -10.0625 10.0625 -10
      vertex 5.56231 17.119 -10
      vertex 9 15.5885 -10
    endloop
  endfacet
  facet normal 0 0 -1
    outer loop
      vertex -10.0625 10.0625 -10
      vertex 9 15.5885 -10
      vertex 12.0444 13.3766 -10
    endloop
  endfacet
  facet normal 0 0 -1
    outer loop
      vertex -10.0625 10.0625 -10
      vertex 12.0444 13.3766 -10
      vertex 9.5 10.5 -10
    endloop
  endfacet
  facet normal 0 0 -1
    outer loop
      vertex 10.0625 10.0625 -10
      vertex 16.7107 6.5 -10
      vertex 17.6067 3.74241 -10
    endloop
  endfacet
  facet normal 0 0 -1
    outer loop
      vertex 10.0625 10.0625 -10
      vertex 17.6067 3.74241 -10
      vertex 18 0 -10
    endloop
  endfacet
  facet normal 0 0 -1
    outer loop
      vertex 10.0625 10.0625 -10
      vertex 18 0 -10
      vertex 17.6067 -3.74241 -10
    endloop
  endfacet
  facet normal 0 0 -1
    outer loop
      vertex 10.0625 10.0625 -10
      vertex 17.6067 -3.74241 -10
      vertex 16.4438 -7.32126 -10
    endloop
  endfacet
  facet normal 0 0 -1
    outer loop
      vertex 10.0625 10.0625 -10
      vertex 16.4438 -7.32126 -10
      vertex 14.5623 -10.5801 -10
    endloop
  endfacet
  facet normal -0.994522 0.104528 0
    outer loop
      vertex -18 0 -10
      vertex -18 0 10
      vertex -17.6067 3.74241 -10
    endloop
  endfacet
  facet normal -0.994522 0.104528 0
    outer loop
      vertex -17.6067 3.74241 -10
      vertex -18 0 10
      vertex -17.6067 3.74241 10
    endloop
  endfacet
  facet normal -0.994522 -0.104528 -0
    outer loop
      vertex -18 0 -10
      vertex -17.6067 -3.74241 -10
      vertex -18 0 10
    endloop
  endfacet
  facet normal -0.994522 -0.104528 0
    outer loop
      vertex -18 0 10
      vertex -17.6067 -3.74241 -10
      vertex -17.6067 -3.74241 10
    endloop
  endfacet
  facet normal -0.951057 -0.309017 -0
    outer loop
      vertex -17.6067 -3.74241 -10
      vertex -16.4438 -7.32126 -10
      vertex -17.6067 -3.74241 10
    endloop
  endfacet
  facet normal -0.951057 -0.309017 0
    outer loop
      vertex -17.6067 -3.74241 10
      vertex -16.4438 -7.32126 -10
      vertex -16.4438 -7.32126 10
    endloop
  endfacet
  facet normal -0.866025 -0.5 -0
    outer loop
      vertex -16.4438 -7.32126 -10
      vertex -14.5623 -10.5801 -10
      vertex -16.4438 -7.32126 10
    endloop
  endfacet
  facet normal -0.866025 -0.5 0
    outer loop
      vertex -16.4438 -7.32126 10
      vertex -14.5623 -10.5801 -10
      vertex -14.5623 -10.5801 10
    endloop
  endfacet
  facet normal -0.743145 -0.669131 -0
    outer loop
      vertex -14.5623 -10.5801 -10
      vertex -12.0444 -13.3766 -10
      vertex -14.5623 -10.5801 10
    endloop
  endfacet
  facet normal -0.743145 -0.669131 0
    outer loop
      vertex -14.5623 -10.5801 10
      vertex -12.0444 -13.3766 -10
      vertex -12.0444 -13.3766 10
    endloop
  endfacet
  facet normal -0.587785 -0.809017 0
    outer loop
      vertex -12.0444 -13.3766 10
      vertex -12.0444 -13.3766 -10
      vertex -9 -15.5885 -10
    endloop
  endfacet
  facet normal -0.587785 -0.809017 0
    outer loop
      vertex -9 -15.5885 10
      vertex -12.0444 -13.3766 10
      vertex -9 -15.5885 -10
    endloop
  endfacet
  facet normal -0.406737 -0.913545 0
    outer loop
      vertex -9 -15.5885 10
      vertex -9 -15.5885 -10
      vertex -5.56231 -17.119 -10
    endloop
  endfacet
  facet normal -0.406737 -0.913545 0
    outer loop
      vertex -5.56231 -17.119 10
      vertex -9 -15.5885 10
      vertex -5.56231 -17.119 -10
    endloop
  endfacet
  facet normal -0.207912 -0.978148 0
    outer loop
      vertex -5.56231 -17.119 10
      vertex -5.56231 -17.119 -10
      vertex -1.88151 -17.9014 -10
    endloop
  endfacet
  facet normal -0.207912 -0.978148 0
    outer loop
      vertex -1.88151 -17.9014 10
      vertex -5.56231 -17.119 10
      vertex -1.88151 -17.9014 -10
    endloop
  endfacet
  facet normal 0 -1 0
    outer loop
      vertex -1.88151 -17.9014 10
      vertex -1.88151 -17.9014 -10
      vertex 1.88151 -17.9014 -10
    endloop
  endfacet
  facet normal 0 -1 0
    outer loop
      vertex 1.88151 -17.9014 10
      vertex -1.88151 -17.9014 10
      vertex 1.88151 -17.9014 -10
    endloop
  endfacet
  facet normal 0.207912 -0.978148 0
    outer loop
      vertex 1.88151 -17.9014 10
      vertex 1.88151 -17.9014 -10
      vertex 5.56231 -17.119 -10
    endloop
  endfacet
  facet normal 0.207912 -0.978148 0
    outer loop
      vertex 5.56231 -17.119 10
      vertex 1.88151 -17.9014 10
      vertex 5.56231 -17.119 -10
    endloop
  endfacet
  facet normal 0.406737 -0.913545 0
    outer loop
      vertex 5.56231 -17.119 10
      vertex 5.56231 -17.119 -10
      vertex 9 -15.5885 -10
    endloop
  endfacet
  facet normal 0.406737 -0.913545 0
    outer loop
      vertex 9 -15.5885 10
      vertex 5.56231 -17.119 10
      vertex 9 -15.5885 -10
    endloop
  endfacet
  facet normal 0.587785 -0.809017 0
    outer loop
      vertex 9 -15.5885 10
      vertex 9 -15.5885 -10
      vertex 12.0444 -13.3766 -10
    endloop
  endfacet
  facet normal 0.587785 -0.809017 0
    outer loop
      vertex 12.0444 -13.3766 10
      vertex 9 -15.5885 10
      vertex 12.0444 -13.3766 -10
    endloop
  endfacet
  facet normal 0.743145 -0.669131 0
    outer loop
      vertex 12.0444 -13.3766 10
      vertex 12.0444 -13.3766 -10
      vertex 14.5623 -10.5801 -10
    endloop
  endfacet
  facet normal 0.743145 -0.669131 0
    outer loop
      vertex 14.5623 -10.5801 10
      vertex 12.0444 -13.3766 10
      vertex 14.5623 -10.5801 -10
    endloop
  endfacet
  facet normal 0.866025 -0.5 0
    outer loop
      vertex 14.5623 -10.5801 10
      vertex 14.5623 -10.5801 -10
      vertex 16.4438 -7.32126 -10
    endloop
  endfacet
  facet normal 0.866025 -0.5 0
    outer loop
      vertex 16.4438 -7.32126 10
      vertex 14.5623 -10.5801 10
      vertex 16.4438 -7.32126 -10
    endloop
  endfacet
  facet normal 0.951057 -0.309017 0
    outer loop
      vertex 16.4438 -7.32126 10
      vertex 16.4438 -7.32126 -10
      vertex 17.6067 -3.74241 -10
    endloop
  endfacet
  facet normal 0.951057 -0.309017 0
    outer loop
      vertex 17.6067 -3.74241 10
      vertex 16.4438 -7.32126 10
      vertex 17.6067 -3.74241 -10
    endloop
  endfacet
  facet normal 0.994522 -0.104528 0
    outer loop
      vertex 17.6067 -3.74241 10
      vertex 17.6067 -3.74241 -10
      vertex 18 0 -10
    endloop
  endfacet
  facet normal 0.994522 -0.104528 0
    outer loop
      vertex 18 0 10
      vertex 17.6067 -3.74241 10
      vertex 18 0 -10
    endloop
  endfacet
  facet normal 0.994522 0.104528 0
    outer loop
      vertex 18 0 -10
      vertex 17.6067 3.74241 -10
      vertex 17.6067 3.74241 -7.74606
    endloop
  endfacet
  facet normal 0.994522 0.104528 2.86454e-15
    outer loop
      vertex 17.6321 3.5 -7
      vertex 18 0 -10
      vertex 17.6067 3.74241 -7.74606
    endloop
  endfacet
  facet normal 0.994522 0.104528 -0
    outer loop
      vertex 17.6321 3.5 7
      vertex 18 0 -10
      vertex 17.6321 3.5 -7
    endloop
  endfacet
  facet normal 0.994522 0.104528 -1.63961e-15
    outer loop
      vertex 17.6067 3.74241 10
      vertex 18 0 -10
      vertex 17.6321 3.5 7
    endloop
  endfacet
  facet normal 0.994522 0.104528 -0
    outer loop
      vertex 17.6067 3.74241 10
      vertex 17.6321 3.5 7
      vertex 17.6067 3.74241 7.74606
    endloop
  endfacet
  facet normal 0.994522 0.104528 -0
    outer loop
      vertex 18 0 10
      vertex 18 0 -10
      vertex 17.6067 3.74241 10
    endloop
  endfacet
  facet normal 0.951057 0.309017 0
    outer loop
      vertex 17.6067 3.74241 -10
      vertex 16.7107 6.5 -10
      vertex 16.7107 6.5 -9.85317
    endloop
  endfacet
  facet normal 0.951057 0.309017 5.49644e-16
    outer loop
      vertex 17.4993 4.07295 -8.76336
      vertex 17.6067 3.74241 -10
      vertex 17.0119 5.57295 -9.85317
    endloop
  endfacet
  facet normal 0.951057 0.309017 5.13361e-14
    outer loop
      vertex 17.0119 5.57295 -9.85317
      vertex 17.6067 3.74241 -10
      vertex 16.7107 6.5 -9.85317
    endloop
  endfacet
  facet normal 0.951057 0.309017 -0
    outer loop
      vertex 17.6067 3.74241 -7.74606
      vertex 17.6067 3.74241 -10
      vertex 17.4993 4.07295 -8.76336
    endloop
  endfacet
  facet normal 0 -1 0
    outer loop
      vertex 16.7107 6.5 -9.85317
      vertex 16.7107 6.5 -10
      vertex 48.5 6.5 -10
    endloop
  endfacet
  facet normal 0 -3.45786e-18 0
    outer loop
      vertex 47.5729 6.5 -9.85317
      vertex 16.7107 6.5 -9.85317
      vertex 48.5 6.5 -9.85317
    endloop
  endfacet
  facet normal 0 -1 0
    outer loop
      vertex 48.5 6.5 -9.85317
      vertex 16.7107 6.5 -9.85317
      vertex 48.5 6.5 -10
    endloop
  endfacet
  facet normal 0 1 0
    outer loop
      vertex 14.6086 10.5 -10
      vertex 14.6086 10.5 -9.85317
      vertex 48.5 10.5 -10
    endloop
  endfacet
  facet normal 0 1 0
    outer loop
      vertex 48.5 10.5 -10
      vertex 14.6086 10.5 -9.85317
      vertex 47.5729 10.5 -9.85317
    endloop
  endfacet
  facet normal 0 1 -0
    outer loop
      vertex 48.0481 10.5 -9.85317
      vertex 48.5 10.5 -10
      vertex 47.5729 10.5 -9.85317
    endloop
  endfacet
  facet normal 0.866025 0.5 0
    outer loop
      vertex 14.6086 10.5 -10
      vertex 14.5623 10.5801 -10
      vertex 14.5623 10.5801 -9.85317
    endloop
  endfacet
  facet normal 0.866025 0.5 -0
    outer loop
      vertex 14.6086 10.5 -9.85317
      vertex 14.6086 10.5 -10
      vertex 14.5623 10.5801 -9.85317
    endloop
  endfacet
  facet normal 0.743145 0.669131 0
    outer loop
      vertex 12.4491 12.9271 -8.76336
      vertex 12.0444 13.3766 -10
      vertex 12.0444 13.3766 -7.37976
    endloop
  endfacet
  facet normal 0.743145 0.669131 1.47104e-15
    outer loop
      vertex 13.7997 11.4271 -9.85317
      vertex 12.0444 13.3766 -10
      vertex 12.4491 12.9271 -8.76336
    endloop
  endfacet
  facet normal 0.743145 0.669131 1.17853e-14
    outer loop
      vertex 14.5623 10.5801 -10
      vertex 12.0444 13.3766 -10
      vertex 13.7997 11.4271 -9.85317
    endloop
  endfacet
  facet normal 0.743145 0.669131 0
    outer loop
      vertex 13.7997 11.4271 -9.85317
      vertex 14.5623 10.5801 -9.85317
      vertex 14.5623 10.5801 -10
    endloop
  endfacet
  facet normal 0.587785 0.809017 0
    outer loop
      vertex 9 15.5885 -10
      vertex 9 15.5885 10
      vertex 12.0444 13.3766 -10
    endloop
  endfacet
  facet normal 0.587785 0.809017 0
    outer loop
      vertex 12.0444 13.3766 7.37976
      vertex 9 15.5885 10
      vertex 12.0444 13.3766 10
    endloop
  endfacet
  facet normal 0.587785 0.809017 -1.35684e-15
    outer loop
      vertex 11.8745 13.5 7
      vertex 9 15.5885 10
      vertex 12.0444 13.3766 7.37976
    endloop
  endfacet
  facet normal 0.587785 0.809017 1.84388e-17
    outer loop
      vertex 11.8745 13.5 -7
      vertex 9 15.5885 10
      vertex 11.8745 13.5 7
    endloop
  endfacet
  facet normal 0.587785 0.809017 -0
    outer loop
      vertex 12.0444 13.3766 -7.37976
      vertex 12.0444 13.3766 -10
      vertex 11.8745 13.5 -7
    endloop
  endfacet
  facet normal 0.587785 0.809017 3.79215e-16
    outer loop
      vertex 12.0444 13.3766 -10
      vertex 9 15.5885 10
      vertex 11.8745 13.5 -7
    endloop
  endfacet
  facet normal 0.406737 0.913545 0
    outer loop
      vertex 5.56231 17.119 -10
      vertex 5.56231 17.119 10
      vertex 9 15.5885 -10
    endloop
  endfacet
  facet normal 0.406737 0.913545 0
    outer loop
      vertex 9 15.5885 -10
      vertex 5.56231 17.119 10
      vertex 9 15.5885 10
    endloop
  endfacet
  facet normal 0.207912 0.978148 0
    outer loop
      vertex 1.88151 17.9014 -10
      vertex 1.88151 17.9014 10
      vertex 5.56231 17.119 -10
    endloop
  endfacet
  facet normal 0.207912 0.978148 0
    outer loop
      vertex 5.56231 17.119 -10
      vertex 1.88151 17.9014 10
      vertex 5.56231 17.119 10
    endloop
  endfacet
  facet normal 0 1 0
    outer loop
      vertex -1.88151 17.9014 -10
      vertex -1.88151 17.9014 10
      vertex 1.88151 17.9014 -10
    endloop
  endfacet
  facet normal 0 1 0
    outer loop
      vertex 1.88151 17.9014 -10
      vertex -1.88151 17.9014 10
      vertex 1.88151 17.9014 10
    endloop
  endfacet
  facet normal -0.207912 0.978148 0
    outer loop
      vertex -5.56231 17.119 -10
      vertex -5.56231 17.119 10
      vertex -1.88151 17.9014 -10
    endloop
  endfacet
  facet normal -0.207912 0.978148 0
    outer loop
      vertex -1.88151 17.9014 -10
      vertex -5.56231 17.119 10
      vertex -1.88151 17.9014 10
    endloop
  endfacet
  facet normal -0.406737 0.913545 0
    outer loop
      vertex -9 15.5885 -10
      vertex -9 15.5885 10
      vertex -5.56231 17.119 -10
    endloop
  endfacet
  facet normal -0.406737 0.913545 0
    outer loop
      vertex -5.56231 17.119 -10
      vertex -9 15.5885 10
      vertex -5.56231 17.119 10
    endloop
  endfacet
  facet normal -0.587785 0.809017 0
    outer loop
      vertex -12.0444 13.3766 -10
      vertex -12.0444 13.3766 10
      vertex -9 15.5885 -10
    endloop
  endfacet
  facet normal -0.587785 0.809017 0
    outer loop
      vertex -9 15.5885 -10
      vertex -12.0444 13.3766 10
      vertex -9 15.5885 10
    endloop
  endfacet
  facet normal -0.743145 0.669131 0
    outer loop
      vertex -14.5623 10.5801 -10
      vertex -14.5623 10.5801 10
      vertex -12.0444 13.3766 -10
    endloop
  endfacet
  facet normal -0.743145 0.669131 0
    outer loop
      vertex -12.0444 13.3766 -10
      vertex -14.5623 10.5801 10
      vertex -12.0444 13.3766 10
    endloop
  endfacet
  facet normal -0.866025 0.5 0
    outer loop
      vertex -16.4438 7.32126 -10
      vertex -16.4438 7.32126 10
      vertex -14.5623 10.5801 -10
    endloop
  endfacet
  facet normal -0.866025 0.5 0
    outer loop
      vertex -14.5623 10.5801 -10
      vertex -16.4438 7.32126 10
      vertex -14.5623 10.5801 10
    endloop
  endfacet
  facet normal -0.951057 0.309017 0
    outer loop
      vertex -17.6067 3.74241 -10
      vertex -17.6067 3.74241 10
      vertex -16.4438 7.32126 -10
    endloop
  endfacet
  facet normal -0.951057 0.309017 0
    outer loop
      vertex -16.4438 7.32126 -10
      vertex -17.6067 3.74241 10
      vertex -16.4438 7.32126 10
    endloop
  endfacet
  facet normal 1 0 0
    outer loop
      vertex -10.0625 10.0625 -10
      vertex -10.0625 10.0625 10
      vertex -10.0625 -10.0625 10
    endloop
  endfacet
  facet normal 1 0 0
    outer loop
      vertex -10.0625 -10.0625 -10
      vertex -10.0625 10.0625 -10
      vertex -10.0625 -10.0625 10
    endloop
  endfacet
  facet normal 0 -1 0
    outer loop
      vertex 10.0625 10.0625 -10
      vertex 10.0625 10.0625 10
      vertex 9.5 10.0625 -10
    endloop
  endfacet
  facet normal 0 -1 0
    outer loop
      vertex 10.0625 10.0625 10
      vertex -10.0625 10.0625 10
      vertex 9.5 10.0625 -10
    endloop
  endfacet
  facet normal 0 -1 0
    outer loop
      vertex -10.0625 10.0625 10
      vertex -10.0625 10.0625 -10
      vertex 9.5 10.0625 -10
    endloop
  endfacet
  facet normal -1 0 0
    outer loop
      vertex 10.0625 10.0625 10
      vertex 10.0625 10.0625 -10
      vertex 10.0625 -10.0625 10
    endloop
  endfacet
  facet normal -1 0 0
    outer loop
      vertex 10.0625 -10.0625 10
      vertex 10.0625 10.0625 -10
      vertex 10.0625 -10.0625 -10
    endloop
  endfacet
  facet normal 0 1 0
    outer loop
      vertex 10.0625 -10.0625 10
      vertex 10.0625 -10.0625 -10
      vertex -10.0625 -10.0625 10
    endloop
  endfacet
  facet normal 0 1 -0
    outer loop
      vertex -10.0625 -10.0625 10
      vertex 10.0625 -10.0625 -10
      vertex -10.0625 -10.0625 -10
    endloop
  endfacet
  facet normal 0 0 1
    outer loop
      vertex -17.6067 3.74241 10
      vertex -18 0 10
      vertex -17.6067 -3.74241 10
    endloop
  endfacet
  facet normal 0 0 1
    outer loop
      vertex -14.5623 -10.5801 10
      vertex -17.6067 3.74241 10
      vertex -16.4438 -7.32126 10
    endloop
  endfacet
  facet normal 0 0 1
    outer loop
      vertex -16.4438 -7.32126 10
      vertex -17.6067 3.74241 10
      vertex -17.6067 -3.74241 10
    endloop
  endfacet
  facet normal 0 0 1
    outer loop
      vertex -12.0444 -13.3766 10
      vertex -17.6067 3.74241 10
      vertex -14.5623 -10.5801 10
    endloop
  endfacet
  facet normal 0 0 1
    outer loop
      vertex -9 -15.5885 10
      vertex -17.6067 3.74241 10
      vertex -12.0444 -13.3766 10
    endloop
  endfacet
  facet normal -0 -0 1
    outer loop
      vertex -10.0625 -10.0625 10
      vertex -17.6067 3.74241 10
      vertex -9 -15.5885 10
    endloop
  endfacet
  facet normal 0 0 1
    outer loop
      vertex -10.0625 10.0625 10
      vertex 9 15.5885 10
      vertex 5.56231 17.119 10
    endloop
  endfacet
  facet normal 0 0 1
    outer loop
      vertex -10.0625 10.0625 10
      vertex 12.0444 13.3766 10
      vertex 9 15.5885 10
    endloop
  endfacet
  facet normal 0 0 1
    outer loop
      vertex -10.0625 10.0625 10
      vertex 10.0625 10.0625 10
      vertex 12.0444 13.3766 10
    endloop
  endfacet
  facet normal 0 0 1
    outer loop
      vertex 10.0625 10.0625 10
      vertex 14.6086 10.5 10
      vertex 14.5623 10.5801 10
    endloop
  endfacet
  facet normal 0 0 1
    outer loop
      vertex 10.0625 10.0625 10
      vertex 48.5 10.5 10
      vertex 14.6086 10.5 10
    endloop
  endfacet
  facet normal 0 0 1
    outer loop
      vertex 10.0625 10.0625 10
      vertex 16.7107 6.5 10
      vertex 48.5 10.5 10
    endloop
  endfacet
  facet normal 0 -0 1
    outer loop
      vertex 10.0625 -10.0625 10
      vertex 9 -15.5885 10
      vertex 12.0444 -13.3766 10
    endloop
  endfacet
  facet normal 0 -0 1
    outer loop
      vertex 10.0625 10.0625 10
      vertex 10.0625 -10.0625 10
      vertex 14.5623 -10.5801 10
    endloop
  endfacet
  facet normal 0 0 1
    outer loop
      vertex 10.0625 10.0625 10
      vertex 14.5623 -10.5801 10
      vertex 16.4438 -7.32126 10
    endloop
  endfacet
  facet normal 0 0 1
    outer loop
      vertex 10.0625 10.0625 10
      vertex 17.6067 -3.74241 10
      vertex 18 0 10
    endloop
  endfacet
  facet normal 0 0 1
    outer loop
      vertex 10.0625 10.0625 10
      vertex 18 0 10
      vertex 17.6067 3.74241 10
    endloop
  endfacet
  facet normal 0 0 1
    outer loop
      vertex 10.0625 10.0625 10
      vertex 17.6067 3.74241 10
      vertex 16.7107 6.5 10
    endloop
  endfacet
  facet normal 0 -0 1
    outer loop
      vertex -5.56231 17.119 10
      vertex -17.6067 3.74241 10
      vertex -1.88151 17.9014 10
    endloop
  endfacet
  facet normal 0 -0 1
    outer loop
      vertex -9 15.5885 10
      vertex -17.6067 3.74241 10
      vertex -5.56231 17.119 10
    endloop
  endfacet
  facet normal 0 -0 1
    outer loop
      vertex -12.0444 13.3766 10
      vertex -17.6067 3.74241 10
      vertex -9 15.5885 10
    endloop
  endfacet
  facet normal 0 -0 1
    outer loop
      vertex -14.5623 10.5801 10
      vertex -17.6067 3.74241 10
      vertex -12.0444 13.3766 10
    endloop
  endfacet
  facet normal 0 -0 1
    outer loop
      vertex -16.4438 7.32126 10
      vertex -17.6067 3.74241 10
      vertex -14.5623 10.5801 10
    endloop
  endfacet
  facet normal 0 0 1
    outer loop
      vertex -5.56231 -17.119 10
      vertex -10.0625 -10.0625 10
      vertex -9 -15.5885 10
    endloop
  endfacet
  facet normal 0 0 1
    outer loop
      vertex -10.0625 10.0625 10
      vertex 5.56231 17.119 10
      vertex 1.88151 17.9014 10
    endloop
  endfacet
  facet normal 0 -0 1
    outer loop
      vertex -1.88151 17.9014 10
      vertex -10.0625 10.0625 10
      vertex 1.88151 17.9014 10
    endloop
  endfacet
  facet normal 0 0 1
    outer loop
      vertex -1.88151 17.9014 10
      vertex -17.6067 3.74241 10
      vertex -10.0625 10.0625 10
    endloop
  endfacet
  facet normal 0 -0 1
    outer loop
      vertex 12.0444 13.3766 10
      vertex 10.0625 10.0625 10
      vertex 14.5623 10.5801 10
    endloop
  endfacet
  facet normal 0 0 1
    outer loop
      vertex 10.0625 10.0625 10
      vertex 16.4438 -7.32126 10
      vertex 17.6067 -3.74241 10
    endloop
  endfacet
  facet normal -0 0 1
    outer loop
      vertex 14.5623 -10.5801 10
      vertex 10.0625 -10.0625 10
      vertex 12.0444 -13.3766 10
    endloop
  endfacet
  facet normal -0 0 1
    outer loop
      vertex 48.5 6.5 10
      vertex 48.5 10.5 10
      vertex 16.7107 6.5 10
    endloop
  endfacet
  facet normal 0 0 1
    outer loop
      vertex 10.0625 -10.0625 10
      vertex 5.56231 -17.119 10
      vertex 9 -15.5885 10
    endloop
  endfacet
  facet normal 0 0 1
    outer loop
      vertex 10.0625 -10.0625 10
      vertex 1.88151 -17.9014 10
      vertex 5.56231 -17.119 10
    endloop
  endfacet
  facet normal 0 0 1
    outer loop
      vertex 10.0625 -10.0625 10
      vertex -1.88151 -17.9014 10
      vertex 1.88151 -17.9014 10
    endloop
  endfacet
  facet normal 0 0 1
    outer loop
      vertex 10.0625 -10.0625 10
      vertex -5.56231 -17.119 10
      vertex -1.88151 -17.9014 10
    endloop
  endfacet
  facet normal 0 0 1
    outer loop
      vertex 10.0625 -10.0625 10
      vertex -10.0625 -10.0625 10
      vertex -5.56231 -17.119 10
    endloop
  endfacet
  facet normal 0 0 1
    outer loop
      vertex -10.0625 -10.0625 10
      vertex -10.0625 10.0625 10
      vertex -17.6067 3.74241 10
    endloop
  endfacet
  facet normal 0.951057 0.309017 0
    outer loop
      vertex 17.0119 5.57295 9.85317
      vertex 16.7107 6.5 9.85317
      vertex 16.7107 6.5 10
    endloop
  endfacet
  facet normal 0.951057 0.309017 -5.49644e-16
    outer loop
      vertex 17.4993 4.07295 8.76336
      vertex 17.0119 5.57295 9.85317
      vertex 17.6067 3.74241 10
    endloop
  endfacet
  facet normal 0.951057 0.309017 -1.78474e-14
    outer loop
      vertex 17.6067 3.74241 10
      vertex 17.0119 5.57295 9.85317
      vertex 16.7107 6.5 10
    endloop
  endfacet
  facet normal 0.951057 0.309017 0
    outer loop
      vertex 17.6067 3.74241 7.74606
      vertex 17.4993 4.07295 8.76336
      vertex 17.6067 3.74241 10
    endloop
  endfacet
  facet normal -2.88811e-16 -0.951057 0.309017
    outer loop
      vertex 48.5 4.07295 8.76336
      vertex 17.4993 4.07295 8.76336
      vertex 17.6067 3.74241 7.74606
    endloop
  endfacet
  facet normal -3.10832e-16 -0.951057 0.309017
    outer loop
      vertex 17.6321 3.5 7
      vertex 48.5 4.07295 8.76336
      vertex 17.6067 3.74241 7.74606
    endloop
  endfacet
  facet normal -2.60073e-16 -0.951057 0.309017
    outer loop
      vertex 17.6321 3.5 7
      vertex 29 3.5 7
      vertex 48.5 4.07295 8.76336
    endloop
  endfacet
  facet normal -2.72892e-16 -0.951057 0.309017
    outer loop
      vertex 29 3.5 7
      vertex 48.5 3.5 7
      vertex 48.5 4.07295 8.76336
    endloop
  endfacet
  facet normal 0 -1 0
    outer loop
      vertex 17.6321 3.5 7
      vertex 17.6321 3.5 -7
      vertex 29 3.5 -7
    endloop
  endfacet
  facet normal 0 -1 0
    outer loop
      vertex 29 3.5 7
      vertex 17.6321 3.5 7
      vertex 48.5 3.5 -7
    endloop
  endfacet
  facet normal 0 -1 0
    outer loop
      vertex 48.5 3.5 -7
      vertex 17.6321 3.5 7
      vertex 29 3.5 -7
    endloop
  endfacet
  facet normal 0 -1 0
    outer loop
      vertex 48.5 3.5 7
      vertex 29 3.5 7
      vertex 48.5 3.5 -7
    endloop
  endfacet
  facet normal -1.48225e-16 -0.951057 -0.309017
    outer loop
      vertex 17.6067 3.74241 -7.74606
      vertex 17.4993 4.07295 -8.76336
      vertex 48.5 4.07295 -8.76336
    endloop
  endfacet
  facet normal -1.46217e-16 -0.951057 -0.309017
    outer loop
      vertex 29 3.5 -7
      vertex 17.6067 3.74241 -7.74606
      vertex 48.5 3.5 -7
    endloop
  endfacet
  facet normal -1.49941e-16 -0.951057 -0.309017
    outer loop
      vertex 48.5 3.5 -7
      vertex 17.6067 3.74241 -7.74606
      vertex 48.5 4.07295 -8.76336
    endloop
  endfacet
  facet normal -1.37479e-16 -0.951057 -0.309017
    outer loop
      vertex 17.6321 3.5 -7
      vertex 17.6067 3.74241 -7.74606
      vertex 29 3.5 -7
    endloop
  endfacet
  facet normal 4.99218e-17 -0.587785 -0.809017
    outer loop
      vertex 17.0119 5.57295 -9.85317
      vertex 48.5 5.57295 -9.85317
      vertex 17.4993 4.07295 -8.76336
    endloop
  endfacet
  facet normal 5.07067e-17 -0.587785 -0.809017
    outer loop
      vertex 17.4993 4.07295 -8.76336
      vertex 48.5 5.57295 -9.85317
      vertex 48.5 4.07295 -8.76336
    endloop
  endfacet
  facet normal 2.3023e-16 7.48063e-17 -1
    outer loop
      vertex 16.7107 6.5 -9.85317
      vertex 47.5729 6.5 -9.85317
      vertex 17.0119 5.57295 -9.85317
    endloop
  endfacet
  facet normal 2.3023e-16 7.48063e-17 -1
    outer loop
      vertex 17.0119 5.57295 -9.85317
      vertex 47.5729 6.5 -9.85317
      vertex 47.75 5.95509 -9.85317
    endloop
  endfacet
  facet normal 2.27271e-16 3.12812e-16 -1
    outer loop
      vertex 47.75 5.95509 -9.85317
      vertex 48.2135 5.61832 -9.85317
      vertex 17.0119 5.57295 -9.85317
    endloop
  endfacet
  facet normal 0 1.566e-13 -1
    outer loop
      vertex 48.2135 5.61832 -9.85317
      vertex 48.5 5.61832 -9.85317
      vertex 17.0119 5.57295 -9.85317
    endloop
  endfacet
  facet normal 2.25654e-16 0 -1
    outer loop
      vertex 17.0119 5.57295 -9.85317
      vertex 48.5 5.61832 -9.85317
      vertex 48.5 5.57295 -9.85317
    endloop
  endfacet
  facet normal 0 0 -1
    outer loop
      vertex 47.5729 6.5 -9.85317
      vertex 48.5 6.5 -9.85317
      vertex 47.75 5.95509 -9.85317
    endloop
  endfacet
  facet normal 0 0 -1
    outer loop
      vertex 47.75 5.95509 -9.85317
      vertex 48.5 6.5 -9.85317
      vertex 48.9519 6.5 -9.85317
    endloop
  endfacet
  facet normal 0 0 -1
    outer loop
      vertex 49.25 7.04491 -9.85317
      vertex 48.9519 6.5 -9.85317
      vertex 48.9519 7.26149 -9.85317
    endloop
  endfacet
  facet normal 0 0 -1
    outer loop
      vertex 49.4271 6.5 -9.85317
      vertex 48.9519 6.5 -9.85317
      vertex 49.25 7.04491 -9.85317
    endloop
  endfacet
  facet normal 0 0 -1
    outer loop
      vertex 47.75 5.95509 -9.85317
      vertex 48.9519 6.5 -9.85317
      vertex 49.4271 6.5 -9.85317
    endloop
  endfacet
  facet normal -0 0 -1
    outer loop
      vertex 47.75 5.95509 -9.85317
      vertex 49.4271 6.5 -9.85317
      vertex 49.25 5.95509 -9.85317
    endloop
  endfacet
  facet normal 0 0 -1
    outer loop
      vertex 47.75 5.95509 -9.85317
      vertex 49.25 5.95509 -9.85317
      vertex 48.7865 5.61832 -9.85317
    endloop
  endfacet
  facet normal 0 0 -1
    outer loop
      vertex 47.75 5.95509 -9.85317
      vertex 48.7865 5.61832 -9.85317
      vertex 48.2135 5.61832 -9.85317
    endloop
  endfacet
  facet normal 0 -1 0
    outer loop
      vertex 48.9519 6.5 -9.85317
      vertex 48.5 6.5 -9.85317
      vertex 48.5 6.5 -10
    endloop
  endfacet
  facet normal -0 0 -1
    outer loop
      vertex 47.5729 10.5 -9.85317
      vertex 47.75 11.0449 -9.85317
      vertex 48.0481 10.5 -9.85317
    endloop
  endfacet
  facet normal 0 -0 -1
    outer loop
      vertex 48.0481 10.5 -9.85317
      vertex 47.75 11.0449 -9.85317
      vertex 48.2135 11.3817 -9.85317
    endloop
  endfacet
  facet normal -0 0 -1
    outer loop
      vertex 48.9519 10.5 -9.85317
      vertex 49.25 11.0449 -9.85317
      vertex 49.4271 10.5 -9.85317
    endloop
  endfacet
  facet normal 0 0 -1
    outer loop
      vertex 48.0481 10.5 -9.85317
      vertex 48.7865 11.3817 -9.85317
      vertex 49.25 11.0449 -9.85317
    endloop
  endfacet
  facet normal -0 0 -1
    outer loop
      vertex 48.0481 10.5 -9.85317
      vertex 49.25 11.0449 -9.85317
      vertex 48.9519 10.5 -9.85317
    endloop
  endfacet
  facet normal 0 0 -1
    outer loop
      vertex 48.0481 10.5 -9.85317
      vertex 48.2135 11.3817 -9.85317
      vertex 48.7865 11.3817 -9.85317
    endloop
  endfacet
  facet normal 0 0 -1
    outer loop
      vertex 48.9519 10.5 -9.85317
      vertex 49.4271 10.5 -9.85317
      vertex 49.25 9.95509 -9.85317
    endloop
  endfacet
  facet normal 0 0 -1
    outer loop
      vertex 48.9519 10.5 -9.85317
      vertex 49.25 9.95509 -9.85317
      vertex 48.9519 9.73851 -9.85317
    endloop
  endfacet
  facet normal 2.04766e-16 1.84372e-16 -1
    outer loop
      vertex 13.7997 11.4271 -9.85317
      vertex 48.5 11.4271 -9.85317
      vertex 14.5623 10.5801 -9.85317
    endloop
  endfacet
  facet normal -0 0 -1
    outer loop
      vertex 48.2135 11.3817 -9.85317
      vertex 48.5 11.4271 -9.85317
      vertex 48.5 11.3817 -9.85317
    endloop
  endfacet
  facet normal 2.48524e-16 -1.56913e-15 -1
    outer loop
      vertex 14.5623 10.5801 -9.85317
      vertex 48.5 11.4271 -9.85317
      vertex 48.2135 11.3817 -9.85317
    endloop
  endfacet
  facet normal 2.15077e-16 -6.98827e-17 -1
    outer loop
      vertex 47.75 11.0449 -9.85317
      vertex 47.5729 10.5 -9.85317
      vertex 14.5623 10.5801 -9.85317
    endloop
  endfacet
  facet normal 2.15549e-16 1.24447e-16 -1
    outer loop
      vertex 14.5623 10.5801 -9.85317
      vertex 47.5729 10.5 -9.85317
      vertex 14.6086 10.5 -9.85317
    endloop
  endfacet
  facet normal 2.18306e-16 -3.00472e-16 -1
    outer loop
      vertex 47.75 11.0449 -9.85317
      vertex 14.5623 10.5801 -9.85317
      vertex 48.2135 11.3817 -9.85317
    endloop
  endfacet
  facet normal 3.15165e-16 0.587785 -0.809017
    outer loop
      vertex 12.4491 12.9271 -8.76336
      vertex 48.5 12.9271 -8.76336
      vertex 13.7997 11.4271 -9.85317
    endloop
  endfacet
  facet normal 2.86017e-16 0.587785 -0.809017
    outer loop
      vertex 13.7997 11.4271 -9.85317
      vertex 48.5 12.9271 -8.76336
      vertex 48.5 11.4271 -9.85317
    endloop
  endfacet
  facet normal 2.61405e-16 0.951057 -0.309017
    outer loop
      vertex 11.8745 13.5 -7
      vertex 29 13.5 -7
      vertex 12.0444 13.3766 -7.37976
    endloop
  endfacet
  facet normal 3.45819e-16 0.951057 -0.309017
    outer loop
      vertex 12.0444 13.3766 -7.37976
      vertex 29 13.5 -7
      vertex 48.5 13.5 -7
    endloop
  endfacet
  facet normal 3.0591e-16 0.951057 -0.309017
    outer loop
      vertex 48.5 13.5 -7
      vertex 48.5 12.9271 -8.76336
      vertex 12.0444 13.3766 -7.37976
    endloop
  endfacet
  facet normal 2.63751e-16 0.951057 -0.309017
    outer loop
      vertex 12.0444 13.3766 -7.37976
      vertex 48.5 12.9271 -8.76336
      vertex 12.4491 12.9271 -8.76336
    endloop
  endfacet
  facet normal 0 1 0
    outer loop
      vertex 11.8745 13.5 -7
      vertex 11.8745 13.5 7
      vertex 29 13.5 -7
    endloop
  endfacet
  facet normal 0 1 0
    outer loop
      vertex 29 13.5 -7
      vertex 11.8745 13.5 7
      vertex 29 13.5 7
    endloop
  endfacet
  facet normal 0 1 0
    outer loop
      vertex 29 13.5 -7
      vertex 29 13.5 7
      vertex 48.5 13.5 7
    endloop
  endfacet
  facet normal 0 1 0
    outer loop
      vertex 29 13.5 -7
      vertex 48.5 13.5 7
      vertex 48.5 13.5 -7
    endloop
  endfacet
  facet normal 1.17166e-16 0.951057 0.309017
    outer loop
      vertex 11.8745 13.5 7
      vertex 12.0444 13.3766 7.37976
      vertex 29 13.5 7
    endloop
  endfacet
  facet normal 1.63204e-16 0.951057 0.309017
    outer loop
      vertex 29 13.5 7
      vertex 12.0444 13.3766 7.37976
      vertex 12.4491 12.9271 8.76336
    endloop
  endfacet
  facet normal 1.1102e-16 0.951057 0.309017
    outer loop
      vertex 29 13.5 7
      vertex 12.4491 12.9271 8.76336
      vertex 48.5 12.9271 8.76336
    endloop
  endfacet
  facet normal 2.0361e-16 0.951057 0.309017
    outer loop
      vertex 29 13.5 7
      vertex 48.5 12.9271 8.76336
      vertex 48.5 13.5 7
    endloop
  endfacet
  facet normal 0.743145 0.669131 0
    outer loop
      vertex 12.4491 12.9271 8.76336
      vertex 12.0444 13.3766 7.37976
      vertex 12.0444 13.3766 10
    endloop
  endfacet
  facet normal 0.743145 0.669131 -1.47104e-15
    outer loop
      vertex 13.7997 11.4271 9.85317
      vertex 12.4491 12.9271 8.76336
      vertex 12.0444 13.3766 10
    endloop
  endfacet
  facet normal 0.743145 0.669131 -1.17853e-14
    outer loop
      vertex 14.5623 10.5801 10
      vertex 13.7997 11.4271 9.85317
      vertex 12.0444 13.3766 10
    endloop
  endfacet
  facet normal 0.743145 0.669131 0
    outer loop
      vertex 14.5623 10.5801 9.85317
      vertex 13.7997 11.4271 9.85317
      vertex 14.5623 10.5801 10
    endloop
  endfacet
  facet normal 0.866025 0.5 0
    outer loop
      vertex 14.6086 10.5 9.85317
      vertex 14.5623 10.5801 9.85317
      vertex 14.5623 10.5801 10
    endloop
  endfacet
  facet normal 0.866025 0.5 -0
    outer loop
      vertex 14.6086 10.5 10
      vertex 14.6086 10.5 9.85317
      vertex 14.5623 10.5801 10
    endloop
  endfacet
  facet normal 0 1 0
    outer loop
      vertex 14.6086 10.5 9.85317
      vertex 14.6086 10.5 10
      vertex 48.0481 10.5 9.85317
    endloop
  endfacet
  facet normal 0 1 0
    outer loop
      vertex 48.0481 10.5 9.85317
      vertex 14.6086 10.5 10
      vertex 48.5 10.5 10
    endloop
  endfacet
  facet normal -0 -1 -0
    outer loop
      vertex 48.5 6.5 9.85317
      vertex 48.9519 6.5 9.85317
      vertex 48.5 6.5 10
    endloop
  endfacet
  facet normal 0 -1 0
    outer loop
      vertex 16.7107 6.5 10
      vertex 16.7107 6.5 9.85317
      vertex 48.5 6.5 9.85317
    endloop
  endfacet
  facet normal 0 -1 0
    outer loop
      vertex 48.5 6.5 10
      vertex 16.7107 6.5 10
      vertex 48.5 6.5 9.85317
    endloop
  endfacet
  facet normal -3.15194e-16 -0.587785 0.809017
    outer loop
      vertex 48.5 5.57295 9.85317
      vertex 17.0119 5.57295 9.85317
      vertex 17.4993 4.07295 8.76336
    endloop
  endfacet
  facet normal -3.2015e-16 -0.587785 0.809017
    outer loop
      vertex 48.5 4.07295 8.76336
      vertex 48.5 5.57295 9.85317
      vertex 17.4993 4.07295 8.76336
    endloop
  endfacet
  facet normal -2.23516e-16 -7.26248e-17 1
    outer loop
      vertex 48.5 6.5 9.85317
      vertex 16.7107 6.5 9.85317
      vertex 17.0119 5.57295 9.85317
    endloop
  endfacet
  facet normal -2.25654e-16 0 1
    outer loop
      vertex 48.5 5.57295 9.85317
      vertex 48.5 6.5 9.85317
      vertex 17.0119 5.57295 9.85317
    endloop
  endfacet
  facet normal 1 -0 0
    outer loop
      vertex 48.5 4.19174 8.76336
      vertex 48.5 4.07295 8.76336
      vertex 48.5 3.5 7
    endloop
  endfacet
  facet normal 1 0 0
    outer loop
      vertex 48.5 4.19174 8.76336
      vertex 48.5 5.61832 9.85317
      vertex 48.5 5.57295 9.85317
    endloop
  endfacet
  facet normal 1 0 0
    outer loop
      vertex 48.5 5.57295 9.85317
      vertex 48.5 4.07295 8.76336
      vertex 48.5 4.19174 8.76336
    endloop
  endfacet
  facet normal 5.46706e-15 -0 0
    outer loop
      vertex 48.5 6.5 9.85317
      vertex 48.5 5.57295 9.85317
      vertex 48.5 5.61832 9.85317
    endloop
  endfacet
  facet normal 1 0 0
    outer loop
      vertex 48.5 3.64683 7
      vertex 48.5 4.19174 8.76336
      vertex 48.5 3.5 7
    endloop
  endfacet
  facet normal 1 0 -0
    outer loop
      vertex 48.5 3.5 7
      vertex 48.5 3.5 -7
      vertex 48.5 3.64683 -6.5481
    endloop
  endfacet
  facet normal 1 0 0
    outer loop
      vertex 48.5 3.64683 7
      vertex 48.5 3.5 7
      vertex 48.5 3.64683 -6.5481
    endloop
  endfacet
  facet normal 1 0 0
    outer loop
      vertex 48.5 3.64683 -7
      vertex 48.5 3.64683 -6.5481
      vertex 48.5 3.5 -7
    endloop
  endfacet
  facet normal 1 0 0
    outer loop
      vertex 48.5 4.07295 -8.76336
      vertex 48.5 3.64683 -7
      vertex 48.5 3.5 -7
    endloop
  endfacet
  facet normal 1 -0 -0
    outer loop
      vertex 48.5 4.19174 -8.76336
      vertex 48.5 4.07295 -8.76336
      vertex 48.5 5.57295 -9.85317
    endloop
  endfacet
  facet normal 1 -0 0
    outer loop
      vertex 48.5 5.61832 -9.85317
      vertex 48.5 4.19174 -8.76336
      vertex 48.5 5.57295 -9.85317
    endloop
  endfacet
  facet normal 1 0 0
    outer loop
      vertex 48.5 4.19174 -8.76336
      vertex 48.5 3.64683 -7
      vertex 48.5 4.07295 -8.76336
    endloop
  endfacet
  facet normal 0 -2.4803e-14 -4.34052e-14
    outer loop
      vertex 48.5 5.61832 -9.85317
      vertex 48.2135 5.61832 -9.85317
      vertex 48.7865 5.61832 -9.85317
    endloop
  endfacet
  facet normal 3.31993e-15 -0.607062 -0.794654
    outer loop
      vertex 48.5 5.61832 -9.85317
      vertex 48.7865 5.61832 -9.85317
      vertex 49.25 4.19174 -8.76336
    endloop
  endfacet
  facet normal 0 -0.607062 -0.794654
    outer loop
      vertex 48.5 5.61832 -9.85317
      vertex 49.25 4.19174 -8.76336
      vertex 48.5 4.19174 -8.76336
    endloop
  endfacet
  facet normal 0.356822 -0.491123 -0.794654
    outer loop
      vertex 49.25 4.19174 -8.76336
      vertex 48.7865 5.61832 -9.85317
      vertex 49.25 5.95509 -9.85317
    endloop
  endfacet
  facet normal 0.356822 -0.491123 -0.794654
    outer loop
      vertex 50.4635 5.07341 -8.76336
      vertex 49.25 4.19174 -8.76336
      vertex 49.25 5.95509 -9.85317
    endloop
  endfacet
  facet normal 0.57735 -0.187593 -0.794654
    outer loop
      vertex 50.4635 5.07341 -8.76336
      vertex 49.25 5.95509 -9.85317
      vertex 49.4271 6.5 -9.85317
    endloop
  endfacet
  facet normal 0.57735 -0.187593 -0.794654
    outer loop
      vertex 50.4635 5.07341 -8.76336
      vertex 49.4271 6.5 -9.85317
      vertex 50.9271 6.5 -8.76336
    endloop
  endfacet
  facet normal 0.57735 0.187592 -0.794654
    outer loop
      vertex 49.25 7.04491 -9.85317
      vertex 49.5481 6.94805 -9.65945
      vertex 49.4271 6.5 -9.85317
    endloop
  endfacet
  facet normal 0.57735 0.187592 -0.794654
    outer loop
      vertex 49.4271 6.5 -9.85317
      vertex 49.5481 6.94805 -9.65945
      vertex 49.8115 6.5 -9.57388
    endloop
  endfacet
  facet normal 1.8956e-15 2.05391e-15 -2.60907e-15
    outer loop
      vertex 49.4271 6.5 -9.85317
      vertex 49.8115 6.5 -9.57388
      vertex 50.5426 6.5 -9.04264
    endloop
  endfacet
  facet normal 0.57735 0.187592 -0.794654
    outer loop
      vertex 50.5426 6.5 -9.04264
      vertex 50.5832 6.61172 -8.98679
      vertex 50.9271 6.5 -8.76336
    endloop
  endfacet
  facet normal 3.88876e-15 5.10703e-15 -5.35242e-15
    outer loop
      vertex 50.5426 6.5 -9.04264
      vertex 50.9271 6.5 -8.76336
      vertex 49.4271 6.5 -9.85317
    endloop
  endfacet
  facet normal 0.57735 0.187593 -0.794654
    outer loop
      vertex 49.5481 6.94805 -9.65945
      vertex 49.25 7.04491 -9.85317
      vertex 49.419 7.16769 -9.7014
    endloop
  endfacet
  facet normal 0.356822 0.491123 -0.794654
    outer loop
      vertex 49.25 7.04491 -9.85317
      vertex 48.9519 7.26149 -9.85317
      vertex 49.419 7.16769 -9.7014
    endloop
  endfacet
  facet normal 0.309017 0 -0.951057
    outer loop
      vertex 48.5 10.5 -10
      vertex 48.9519 10.5 -9.85317
      vertex 48.5 6.5 -10
    endloop
  endfacet
  facet normal 0.309017 0 -0.951057
    outer loop
      vertex 48.5 6.5 -10
      vertex 48.9519 10.5 -9.85317
      vertex 48.9519 9.73851 -9.85317
    endloop
  endfacet
  facet normal 0.309017 1.41546e-15 -0.951057
    outer loop
      vertex 48.5 6.5 -10
      vertex 48.9519 9.73851 -9.85317
      vertex 49.25 9.79837 -9.75631
    endloop
  endfacet
  facet normal 0.309017 1.37753e-15 -0.951057
    outer loop
      vertex 48.5 6.5 -10
      vertex 49.25 9.79837 -9.75631
      vertex 49.419 9.83231 -9.7014
    endloop
  endfacet
  facet normal 0.309017 -5.25971e-15 -0.951057
    outer loop
      vertex 49.419 9.83231 -9.7014
      vertex 49.6395 10.2075 -9.62974
      vertex 48.5 6.5 -10
    endloop
  endfacet
  facet normal 0.309017 8.3337e-15 -0.951057
    outer loop
      vertex 48.5 6.5 -10
      vertex 49.6395 10.2075 -9.62974
      vertex 49.8115 10.5 -9.57388
    endloop
  endfacet
  facet normal 0.309017 -1.63559e-15 -0.951057
    outer loop
      vertex 49.8115 10.5 -9.57388
      vertex 50.2634 10.5 -9.42705
      vertex 48.5 6.5 -10
    endloop
  endfacet
  facet normal 0.309017 5.47631e-16 -0.951057
    outer loop
      vertex 49.8115 6.5 -9.57388
      vertex 50.2634 10.5 -9.42705
      vertex 50.2634 6.5 -9.42705
    endloop
  endfacet
  facet normal 0.309017 -5.71791e-16 -0.951057
    outer loop
      vertex 49.5481 6.94805 -9.65945
      vertex 50.2634 10.5 -9.42705
      vertex 49.8115 6.5 -9.57388
    endloop
  endfacet
  facet normal 0.309017 -5.05854e-16 -0.951057
    outer loop
      vertex 49.419 7.16769 -9.7014
      vertex 50.2634 10.5 -9.42705
      vertex 49.5481 6.94805 -9.65945
    endloop
  endfacet
  facet normal 0.309017 7.82792e-16 -0.951057
    outer loop
      vertex 48.9519 7.26149 -9.85317
      vertex 50.2634 10.5 -9.42705
      vertex 49.419 7.16769 -9.7014
    endloop
  endfacet
  facet normal 0.309017 2.27168e-15 -0.951057
    outer loop
      vertex 48.5 6.5 -10
      vertex 50.2634 10.5 -9.42705
      vertex 48.9519 7.26149 -9.85317
    endloop
  endfacet
  facet normal 0.309017 0 -0.951057
    outer loop
      vertex 48.9519 6.5 -9.85317
      vertex 48.5 6.5 -10
      vertex 48.9519 7.26149 -9.85317
    endloop
  endfacet
  facet normal 0 1 0
    outer loop
      vertex 48.5 10.5 -10
      vertex 48.0481 10.5 -9.85317
      vertex 48.9519 10.5 -9.85317
    endloop
  endfacet
  facet normal 0.356822 -0.491123 -0.794654
    outer loop
      vertex 49.25 9.79837 -9.75631
      vertex 48.9519 9.73851 -9.85317
      vertex 49.25 9.95509 -9.85317
    endloop
  endfacet
  facet normal 0.356822 -0.491123 -0.794654
    outer loop
      vertex 49.419 9.83231 -9.7014
      vertex 49.25 9.79837 -9.75631
      vertex 49.25 9.95509 -9.85317
    endloop
  endfacet
  facet normal 0.57735 -0.187593 -0.794654
    outer loop
      vertex 49.25 9.95509 -9.85317
      vertex 49.4271 10.5 -9.85317
      vertex 49.419 9.83231 -9.7014
    endloop
  endfacet
  facet normal 0.57735 -0.187593 -0.794654
    outer loop
      vertex 49.419 9.83231 -9.7014
      vertex 49.4271 10.5 -9.85317
      vertex 49.6395 10.2075 -9.62974
    endloop
  endfacet
  facet normal 0.57735 -0.187593 -0.794654
    outer loop
      vertex 49.6395 10.2075 -9.62974
      vertex 49.4271 10.5 -9.85317
      vertex 49.8115 10.5 -9.57388
    endloop
  endfacet
  facet normal 0.57735 0.187592 -0.794654
    outer loop
      vertex 49.25 11.0449 -9.85317
      vertex 50.9271 10.5 -8.76336
      vertex 50.5426 10.5 -9.04264
    endloop
  endfacet
  facet normal 0.57735 0.187592 -0.794654
    outer loop
      vertex 49.25 11.0449 -9.85317
      vertex 49.8115 10.5 -9.57388
      vertex 49.4271 10.5 -9.85317
    endloop
  endfacet
  facet normal 0.57735 0.187592 -0.794654
    outer loop
      vertex 49.8115 10.5 -9.57388
      vertex 49.25 11.0449 -9.85317
      vertex 50.5426 10.5 -9.04264
    endloop
  endfacet
  facet normal 0.57735 0.187593 -0.794654
    outer loop
      vertex 50.9271 10.5 -8.76336
      vertex 49.25 11.0449 -9.85317
      vertex 50.4635 11.9266 -8.76336
    endloop
  endfacet
  facet normal 0.356822 0.491123 -0.794654
    outer loop
      vertex 49.25 11.0449 -9.85317
      vertex 48.7865 11.3817 -9.85317
      vertex 50.4635 11.9266 -8.76336
    endloop
  endfacet
  facet normal 0.356822 0.491123 -0.794654
    outer loop
      vertex 50.4635 11.9266 -8.76336
      vertex 48.7865 11.3817 -9.85317
      vertex 49.25 12.8083 -8.76336
    endloop
  endfacet
  facet normal 0 0.607062 -0.794654
    outer loop
      vertex 49.25 12.8083 -8.76336
      vertex 48.5 11.3817 -9.85317
      vertex 48.5 12.8083 -8.76336
    endloop
  endfacet
  facet normal 1.43781e-15 0.607062 -0.794654
    outer loop
      vertex 48.7865 11.3817 -9.85317
      vertex 48.5 11.3817 -9.85317
      vertex 49.25 12.8083 -8.76336
    endloop
  endfacet
  facet normal 0 6.20074e-15 -9.30111e-15
    outer loop
      vertex 48.2135 11.3817 -9.85317
      vertex 48.5 11.3817 -9.85317
      vertex 48.7865 11.3817 -9.85317
    endloop
  endfacet
  facet normal 1 0 0
    outer loop
      vertex 48.5 12.8083 -8.76336
      vertex 48.5 12.9271 -8.76336
      vertex 48.5 13.5 -7
    endloop
  endfacet
  facet normal 1 -0 0
    outer loop
      vertex 48.5 13.5 -7
      vertex 48.5 13.3532 -6.5481
      vertex 48.5 13.3532 -7
    endloop
  endfacet
  facet normal 1 0 0
    outer loop
      vertex 48.5 12.8083 -8.76336
      vertex 48.5 13.5 -7
      vertex 48.5 13.3532 -7
    endloop
  endfacet
  facet normal 1 0 0
    outer loop
      vertex 48.5 11.3817 -9.85317
      vertex 48.5 11.4271 -9.85317
      vertex 48.5 12.8083 -8.76336
    endloop
  endfacet
  facet normal 1 0 0
    outer loop
      vertex 48.5 11.4271 -9.85317
      vertex 48.5 12.9271 -8.76336
      vertex 48.5 12.8083 -8.76336
    endloop
  endfacet
  facet normal 1 0 -0
    outer loop
      vertex 48.5 13.3532 7
      vertex 48.5 13.3532 -6.5481
      vertex 48.5 13.5 -7
    endloop
  endfacet
  facet normal 1 0 0
    outer loop
      vertex 48.5 13.5 -7
      vertex 48.5 13.5 7
      vertex 48.5 13.3532 7
    endloop
  endfacet
  facet normal 1 0 0
    outer loop
      vertex 48.5 12.8083 8.76336
      vertex 48.5 11.4271 9.85317
      vertex 48.5 11.3817 9.85317
    endloop
  endfacet
  facet normal 6.04424e-15 -0 0
    outer loop
      vertex 48.5 11.3817 9.85317
      vertex 48.5 11.4271 9.85317
      vertex 48.5 10.5 9.85317
    endloop
  endfacet
  facet normal 1 -0 0
    outer loop
      vertex 48.5 12.9271 8.76336
      vertex 48.5 11.4271 9.85317
      vertex 48.5 12.8083 8.76336
    endloop
  endfacet
  facet normal 1 -0 0
    outer loop
      vertex 48.5 13.5 7
      vertex 48.5 12.8083 8.76336
      vertex 48.5 13.3532 7
    endloop
  endfacet
  facet normal 1 0 -0
    outer loop
      vertex 48.5 12.9271 8.76336
      vertex 48.5 12.8083 8.76336
      vertex 48.5 13.5 7
    endloop
  endfacet
  facet normal -8.34667e-17 0.587785 0.809017
    outer loop
      vertex 48.5 12.9271 8.76336
      vertex 12.4491 12.9271 8.76336
      vertex 13.7997 11.4271 9.85317
    endloop
  endfacet
  facet normal -8.67154e-17 0.587785 0.809017
    outer loop
      vertex 48.5 11.4271 9.85317
      vertex 48.5 12.9271 8.76336
      vertex 13.7997 11.4271 9.85317
    endloop
  endfacet
  facet normal -2.55957e-16 -2.30465e-16 1
    outer loop
      vertex 48.5 11.4271 9.85317
      vertex 13.7997 11.4271 9.85317
      vertex 14.5623 10.5801 9.85317
    endloop
  endfacet
  facet normal -2.57991e-16 -1.48951e-16 1
    outer loop
      vertex 14.6086 10.5 9.85317
      vertex 48.5 11.4271 9.85317
      vertex 14.5623 10.5801 9.85317
    endloop
  endfacet
  facet normal -2.65607e-16 1.29472e-16 1
    outer loop
      vertex 14.6086 10.5 9.85317
      vertex 48.0481 10.5 9.85317
      vertex 48.5 11.4271 9.85317
    endloop
  endfacet
  facet normal 0 0 1
    outer loop
      vertex 48.0481 10.5 9.85317
      vertex 48.5 10.5 9.85317
      vertex 48.5 11.4271 9.85317
    endloop
  endfacet
  facet normal 0 1 0
    outer loop
      vertex 48.0481 10.5 9.85317
      vertex 48.5 10.5 10
      vertex 48.5 10.5 9.85317
    endloop
  endfacet
  facet normal 0 1 0
    outer loop
      vertex 48.5 10.5 9.85317
      vertex 48.5 10.5 10
      vertex 48.9519 10.5 9.85317
    endloop
  endfacet
  facet normal 0.309017 0 0.951057
    outer loop
      vertex 48.9519 10.5 9.85317
      vertex 48.5 10.5 10
      vertex 48.5 6.5 10
    endloop
  endfacet
  facet normal 0.309017 0 0.951057
    outer loop
      vertex 48.9519 9.73851 9.85317
      vertex 48.9519 10.5 9.85317
      vertex 48.5 6.5 10
    endloop
  endfacet
  facet normal 0.309017 0 0.951057
    outer loop
      vertex 48.9519 7.26149 9.85317
      vertex 48.9519 9.73851 9.85317
      vertex 48.5 6.5 10
    endloop
  endfacet
  facet normal 0.309017 0 0.951057
    outer loop
      vertex 48.9519 6.5 9.85317
      vertex 48.9519 7.26149 9.85317
      vertex 48.5 6.5 10
    endloop
  endfacet
  facet normal 0.309017 2.18985e-16 0.951057
    outer loop
      vertex 49.419 9.83231 9.7014
      vertex 49.8115 6.5 9.57388
      vertex 50.2634 6.5 9.42705
    endloop
  endfacet
  facet normal 0.309017 0 0.951057
    outer loop
      vertex 50.2634 6.5 9.42705
      vertex 50.2634 10.5 9.42705
      vertex 49.8115 10.5 9.57388
    endloop
  endfacet
  facet normal 0.309017 -5.40929e-16 0.951057
    outer loop
      vertex 50.2634 6.5 9.42705
      vertex 49.5481 10.052 9.65945
      vertex 49.419 9.83231 9.7014
    endloop
  endfacet
  facet normal 0.309017 0 0.951057
    outer loop
      vertex 49.25 7.20163 9.75631
      vertex 48.9519 9.73851 9.85317
      vertex 48.9519 7.26149 9.85317
    endloop
  endfacet
  facet normal 0.309017 -3.57316e-16 0.951057
    outer loop
      vertex 49.8115 10.5 9.57388
      vertex 49.5481 10.052 9.65945
      vertex 50.2634 6.5 9.42705
    endloop
  endfacet
  facet normal 0.309017 1.21979e-15 0.951057
    outer loop
      vertex 49.419 9.83231 9.7014
      vertex 49.6395 6.79247 9.62974
      vertex 49.8115 6.5 9.57388
    endloop
  endfacet
  facet normal 0.309017 6.34019e-16 0.951057
    outer loop
      vertex 49.419 9.83231 9.7014
      vertex 49.419 7.16769 9.7014
      vertex 49.6395 6.79247 9.62974
    endloop
  endfacet
  facet normal 0.309017 6.34019e-16 0.951057
    outer loop
      vertex 49.419 9.83231 9.7014
      vertex 49.25 7.20163 9.75631
      vertex 49.419 7.16769 9.7014
    endloop
  endfacet
  facet normal 0.309017 6.28322e-16 0.951057
    outer loop
      vertex 49.419 9.83231 9.7014
      vertex 48.9519 9.73851 9.85317
      vertex 49.25 7.20163 9.75631
    endloop
  endfacet
  facet normal 0 -0 1
    outer loop
      vertex 48.5 6.5 9.85317
      vertex 48.5 5.61832 9.85317
      vertex 48.7865 5.61832 9.85317
    endloop
  endfacet
  facet normal 0 0 1
    outer loop
      vertex 49.4271 6.5 9.85317
      vertex 48.5 6.5 9.85317
      vertex 49.25 5.95509 9.85317
    endloop
  endfacet
  facet normal -0 0 1
    outer loop
      vertex 49.25 5.95509 9.85317
      vertex 48.5 6.5 9.85317
      vertex 48.7865 5.61832 9.85317
    endloop
  endfacet
  facet normal 0 -0 1
    outer loop
      vertex 49.25 7.04491 9.85317
      vertex 48.9519 6.5 9.85317
      vertex 49.4271 6.5 9.85317
    endloop
  endfacet
  facet normal 0 -0 1.45879e-14
    outer loop
      vertex 48.9519 6.5 9.85317
      vertex 48.5 6.5 9.85317
      vertex 49.4271 6.5 9.85317
    endloop
  endfacet
  facet normal 0 -0 1
    outer loop
      vertex 48.9519 7.26149 9.85317
      vertex 48.9519 6.5 9.85317
      vertex 49.25 7.04491 9.85317
    endloop
  endfacet
  facet normal 0 -0.607062 0.794654
    outer loop
      vertex 48.5 5.61832 9.85317
      vertex 48.5 4.19174 8.76336
      vertex 49.25 4.19174 8.76336
    endloop
  endfacet
  facet normal 0 -0.607062 0.794654
    outer loop
      vertex 48.7865 5.61832 9.85317
      vertex 48.5 5.61832 9.85317
      vertex 49.25 4.19174 8.76336
    endloop
  endfacet
  facet normal 0 -0.955423 0.295242
    outer loop
      vertex 49.25 4.19174 8.76336
      vertex 48.5 4.19174 8.76336
      vertex 48.5 3.64683 7
    endloop
  endfacet
  facet normal 0 -0.955423 0.295242
    outer loop
      vertex 49.4271 3.64683 7
      vertex 49.25 4.19174 8.76336
      vertex 48.5 3.64683 7
    endloop
  endfacet
  facet normal 0 0 0
    outer loop
      vertex 48.5 3.64683 -7
      vertex 48.5 3.64683 7
      vertex 48.5 3.64683 -6.5481
    endloop
  endfacet
  facet normal -0 -1 -0
    outer loop
      vertex 48.5 3.64683 -7
      vertex 49.4271 3.64683 -7
      vertex 48.5 3.64683 7
    endloop
  endfacet
  facet normal 0 -1 0
    outer loop
      vertex 49.4271 3.64683 -7
      vertex 49.4271 3.64683 7
      vertex 48.5 3.64683 7
    endloop
  endfacet
  facet normal 0 -0.955423 -0.295242
    outer loop
      vertex 49.4271 3.64683 -7
      vertex 48.5 3.64683 -7
      vertex 48.5 4.19174 -8.76336
    endloop
  endfacet
  facet normal 0 -0.955423 -0.295242
    outer loop
      vertex 49.25 4.19174 -8.76336
      vertex 49.4271 3.64683 -7
      vertex 48.5 4.19174 -8.76336
    endloop
  endfacet
  facet normal 0.561583 -0.772953 -0.295242
    outer loop
      vertex 49.4271 3.64683 -7
      vertex 49.25 4.19174 -8.76336
      vertex 50.4635 5.07341 -8.76336
    endloop
  endfacet
  facet normal 0.561583 -0.772953 -0.295242
    outer loop
      vertex 50.9271 4.73664 -7
      vertex 49.4271 3.64683 -7
      vertex 50.4635 5.07341 -8.76336
    endloop
  endfacet
  facet normal 0.908661 -0.295242 -0.295242
    outer loop
      vertex 50.9271 4.73664 -7
      vertex 50.4635 5.07341 -8.76336
      vertex 50.9271 6.5 -8.76336
    endloop
  endfacet
  facet normal 0.908661 -0.295242 -0.295242
    outer loop
      vertex 51.5 6.5 -7
      vertex 50.9271 4.73664 -7
      vertex 50.9271 6.5 -8.76336
    endloop
  endfacet
  facet normal 4.55303e-15 4.82947e-15 -1.47937e-15
    outer loop
      vertex 51.3532 6.5 -7.4519
      vertex 51.5 6.5 -7
      vertex 50.9271 6.5 -8.76336
    endloop
  endfacet
  facet normal 0.908661 0.295242 -0.295242
    outer loop
      vertex 50.9271 6.5 -8.76336
      vertex 50.7456 7.05858 -8.76336
      vertex 51.0739 6.5 -8.31146
    endloop
  endfacet
  facet normal 2.21941e-15 1.38778e-15 -7.2113e-16
    outer loop
      vertex 51.3532 6.5 -7.4519
      vertex 50.9271 6.5 -8.76336
      vertex 51.0739 6.5 -8.31146
    endloop
  endfacet
  facet normal 0.908661 0.295242 -0.295242
    outer loop
      vertex 51.3532 6.70209 -7.2498
      vertex 51.5 6.5 -7
      vertex 51.3532 6.5 -7.4519
    endloop
  endfacet
  facet normal 0.57735 0.187593 -0.794654
    outer loop
      vertex 50.9271 6.5 -8.76336
      vertex 50.5832 6.61172 -8.98679
      vertex 50.7456 7.05858 -8.76336
    endloop
  endfacet
  facet normal 0.809017 1.4371e-15 -0.587785
    outer loop
      vertex 50.2634 6.5 -9.42705
      vertex 50.2634 10.5 -9.42705
      vertex 50.5426 10.5 -9.04264
    endloop
  endfacet
  facet normal 0.809017 -1.23597e-15 -0.587785
    outer loop
      vertex 50.9271 10.2502 -8.51355
      vertex 50.2634 6.5 -9.42705
      vertex 50.7456 9.94142 -8.76336
    endloop
  endfacet
  facet normal 0.809017 -5.63806e-15 -0.587785
    outer loop
      vertex 51.0739 10.5 -8.31146
      vertex 50.2634 6.5 -9.42705
      vertex 50.9271 10.2502 -8.51355
    endloop
  endfacet
  facet normal 0.809017 3.24197e-15 -0.587785
    outer loop
      vertex 51.3532 10.5 -7.92705
      vertex 50.2634 6.5 -9.42705
      vertex 51.0739 10.5 -8.31146
    endloop
  endfacet
  facet normal 0.809017 6.95253e-16 -0.587785
    outer loop
      vertex 50.7456 7.05858 -8.76336
      vertex 50.2634 6.5 -9.42705
      vertex 51.3532 10.5 -7.92705
    endloop
  endfacet
  facet normal 0.809017 0 -0.587785
    outer loop
      vertex 51.3532 6.5 -7.92705
      vertex 51.0739 6.5 -8.31146
      vertex 51.3532 10.5 -7.92705
    endloop
  endfacet
  facet normal 0.809017 -2.44277e-16 -0.587785
    outer loop
      vertex 51.0739 6.5 -8.31146
      vertex 50.7456 7.05858 -8.76336
      vertex 51.3532 10.5 -7.92705
    endloop
  endfacet
  facet normal 0.809017 -1.30514e-15 -0.587785
    outer loop
      vertex 50.5832 6.61172 -8.98679
      vertex 50.2634 6.5 -9.42705
      vertex 50.7456 7.05858 -8.76336
    endloop
  endfacet
  facet normal 0.809017 -3.76284e-14 -0.587785
    outer loop
      vertex 50.5426 6.5 -9.04264
      vertex 50.2634 6.5 -9.42705
      vertex 50.5832 6.61172 -8.98679
    endloop
  endfacet
  facet normal 0.809017 9.27274e-16 -0.587785
    outer loop
      vertex 50.5426 10.5 -9.04264
      vertex 50.7456 9.94142 -8.76336
      vertex 50.2634 6.5 -9.42705
    endloop
  endfacet
  facet normal 0 -1 0
    outer loop
      vertex 50.5426 6.5 -9.04264
      vertex 49.8115 6.5 -9.57388
      vertex 50.2634 6.5 -9.42705
    endloop
  endfacet
  facet normal -0 1 0
    outer loop
      vertex 50.2634 10.5 -9.42705
      vertex 49.8115 10.5 -9.57388
      vertex 50.5426 10.5 -9.04264
    endloop
  endfacet
  facet normal 0.57735 -0.187593 -0.794654
    outer loop
      vertex 50.7456 9.94142 -8.76336
      vertex 50.5426 10.5 -9.04264
      vertex 50.9271 10.5 -8.76336
    endloop
  endfacet
  facet normal 0.908661 -0.295242 -0.295242
    outer loop
      vertex 50.9271 10.2502 -8.51355
      vertex 50.7456 9.94142 -8.76336
      vertex 50.9271 10.5 -8.76336
    endloop
  endfacet
  facet normal 0.908661 -0.295242 -0.295242
    outer loop
      vertex 51.0739 10.5 -8.31146
      vertex 50.9271 10.2502 -8.51355
      vertex 50.9271 10.5 -8.76336
    endloop
  endfacet
  facet normal 0.908661 0.295242 -0.295242
    outer loop
      vertex 51.3532 10.5 -7.4519
      vertex 50.4635 11.9266 -8.76336
      vertex 51.5 10.5 -7
    endloop
  endfacet
  facet normal 0.908661 0.295242 -0.295242
    outer loop
      vertex 50.9271 10.5 -8.76336
      vertex 50.4635 11.9266 -8.76336
      vertex 51.0739 10.5 -8.31146
    endloop
  endfacet
  facet normal 0.908661 0.295242 -0.295242
    outer loop
      vertex 51.3532 10.5 -7.4519
      vertex 51.0739 10.5 -8.31146
      vertex 50.4635 11.9266 -8.76336
    endloop
  endfacet
  facet normal 0.908661 0.295242 -0.295242
    outer loop
      vertex 51.5 10.5 -7
      vertex 50.4635 11.9266 -8.76336
      vertex 50.9271 12.2634 -7
    endloop
  endfacet
  facet normal 0.561583 0.772953 -0.295242
    outer loop
      vertex 50.4635 11.9266 -8.76336
      vertex 49.25 12.8083 -8.76336
      vertex 50.9271 12.2634 -7
    endloop
  endfacet
  facet normal 0.561583 0.772953 -0.295242
    outer loop
      vertex 50.9271 12.2634 -7
      vertex 49.25 12.8083 -8.76336
      vertex 49.4271 13.3532 -7
    endloop
  endfacet
  facet normal 0 0.955423 -0.295242
    outer loop
      vertex 48.5 13.3532 -7
      vertex 49.4271 13.3532 -7
      vertex 48.5 12.8083 -8.76336
    endloop
  endfacet
  facet normal 0 0.955423 -0.295242
    outer loop
      vertex 48.5 12.8083 -8.76336
      vertex 49.4271 13.3532 -7
      vertex 49.25 12.8083 -8.76336
    endloop
  endfacet
  facet normal 0 1 0
    outer loop
      vertex 48.5 13.3532 -6.5481
      vertex 48.5 13.3532 7
      vertex 49.4271 13.3532 7
    endloop
  endfacet
  facet normal 0 1 0
    outer loop
      vertex 48.5 13.3532 -6.5481
      vertex 49.4271 13.3532 7
      vertex 49.4271 13.3532 -7
    endloop
  endfacet
  facet normal 0 1 -0
    outer loop
      vertex 48.5 13.3532 -6.5481
      vertex 49.4271 13.3532 -7
      vertex 48.5 13.3532 -7
    endloop
  endfacet
  facet normal 0 0.955423 0.295242
    outer loop
      vertex 48.5 12.8083 8.76336
      vertex 49.25 12.8083 8.76336
      vertex 48.5 13.3532 7
    endloop
  endfacet
  facet normal 0 0.955423 0.295242
    outer loop
      vertex 48.5 13.3532 7
      vertex 49.25 12.8083 8.76336
      vertex 49.4271 13.3532 7
    endloop
  endfacet
  facet normal 0 0.607062 0.794654
    outer loop
      vertex 48.5 12.8083 8.76336
      vertex 48.5 11.3817 9.85317
      vertex 48.7865 11.3817 9.85317
    endloop
  endfacet
  facet normal -0 0.607062 0.794654
    outer loop
      vertex 49.25 12.8083 8.76336
      vertex 48.5 12.8083 8.76336
      vertex 48.7865 11.3817 9.85317
    endloop
  endfacet
  facet normal 0 -0 1
    outer loop
      vertex 48.5 11.3817 9.85317
      vertex 48.5 10.5 9.85317
      vertex 48.9519 10.5 9.85317
    endloop
  endfacet
  facet normal 0 0 1
    outer loop
      vertex 49.25 9.95509 9.85317
      vertex 48.5 11.3817 9.85317
      vertex 48.9519 10.5 9.85317
    endloop
  endfacet
  facet normal 0 0 1
    outer loop
      vertex 48.9519 9.73851 9.85317
      vertex 49.25 9.95509 9.85317
      vertex 48.9519 10.5 9.85317
    endloop
  endfacet
  facet normal 0 0 1
    outer loop
      vertex 49.25 9.95509 9.85317
      vertex 49.4271 10.5 9.85317
      vertex 48.5 11.3817 9.85317
    endloop
  endfacet
  facet normal 0 0 1
    outer loop
      vertex 49.4271 10.5 9.85317
      vertex 49.25 11.0449 9.85317
      vertex 48.5 11.3817 9.85317
    endloop
  endfacet
  facet normal 0 0 1
    outer loop
      vertex 49.25 11.0449 9.85317
      vertex 48.7865 11.3817 9.85317
      vertex 48.5 11.3817 9.85317
    endloop
  endfacet
  facet normal 0.356822 -0.491123 0.794654
    outer loop
      vertex 49.25 9.95509 9.85317
      vertex 48.9519 9.73851 9.85317
      vertex 49.419 9.83231 9.7014
    endloop
  endfacet
  facet normal 0.57735 -0.187593 0.794654
    outer loop
      vertex 49.5481 10.052 9.65945
      vertex 49.25 9.95509 9.85317
      vertex 49.419 9.83231 9.7014
    endloop
  endfacet
  facet normal 0.57735 -0.187592 0.794654
    outer loop
      vertex 49.4271 10.5 9.85317
      vertex 49.25 9.95509 9.85317
      vertex 49.5481 10.052 9.65945
    endloop
  endfacet
  facet normal 0.57735 -0.187592 0.794654
    outer loop
      vertex 49.8115 10.5 9.57388
      vertex 49.4271 10.5 9.85317
      vertex 49.5481 10.052 9.65945
    endloop
  endfacet
  facet normal 0.57735 0.187593 0.794654
    outer loop
      vertex 50.4635 11.9266 8.76336
      vertex 49.4271 10.5 9.85317
      vertex 49.8115 10.5 9.57388
    endloop
  endfacet
  facet normal 0.57735 0.187593 0.794654
    outer loop
      vertex 50.9271 10.5 8.76336
      vertex 50.4635 11.9266 8.76336
      vertex 50.5426 10.5 9.04264
    endloop
  endfacet
  facet normal 0.57735 0.187593 0.794654
    outer loop
      vertex 49.8115 10.5 9.57388
      vertex 50.5426 10.5 9.04264
      vertex 50.4635 11.9266 8.76336
    endloop
  endfacet
  facet normal 0 1 0
    outer loop
      vertex 50.5426 10.5 9.04264
      vertex 49.8115 10.5 9.57388
      vertex 50.2634 10.5 9.42705
    endloop
  endfacet
  facet normal 0.809017 0 0.587785
    outer loop
      vertex 50.5426 10.5 9.04264
      vertex 50.2634 10.5 9.42705
      vertex 50.2634 6.5 9.42705
    endloop
  endfacet
  facet normal 0.809017 -2.8959e-15 0.587785
    outer loop
      vertex 50.5832 10.3883 8.98679
      vertex 51.0739 6.5 8.31146
      vertex 51.3532 6.5 7.92705
    endloop
  endfacet
  facet normal 0.809017 1.4371e-15 0.587785
    outer loop
      vertex 51.3532 10.5 7.92705
      vertex 51.0739 10.5 8.31146
      vertex 51.3532 6.5 7.92705
    endloop
  endfacet
  facet normal 0.809017 -7.57027e-16 0.587785
    outer loop
      vertex 50.7456 9.94142 8.76336
      vertex 50.5832 10.3883 8.98679
      vertex 51.3532 6.5 7.92705
    endloop
  endfacet
  facet normal 0.809017 6.55107e-16 0.587785
    outer loop
      vertex 51.0739 10.5 8.31146
      vertex 50.7456 9.94142 8.76336
      vertex 51.3532 6.5 7.92705
    endloop
  endfacet
  facet normal 0.809017 4.19476e-15 0.587785
    outer loop
      vertex 50.5832 10.3883 8.98679
      vertex 50.9271 6.7498 8.51355
      vertex 51.0739 6.5 8.31146
    endloop
  endfacet
  facet normal 0.809017 -1.21786e-16 0.587785
    outer loop
      vertex 50.5832 10.3883 8.98679
      vertex 50.7456 7.05858 8.76336
      vertex 50.9271 6.7498 8.51355
    endloop
  endfacet
  facet normal 0.809017 8.17236e-17 0.587785
    outer loop
      vertex 50.5832 10.3883 8.98679
      vertex 50.5426 6.5 9.04264
      vertex 50.7456 7.05858 8.76336
    endloop
  endfacet
  facet normal 0.809017 -2.12934e-17 0.587785
    outer loop
      vertex 50.5832 10.3883 8.98679
      vertex 50.2634 6.5 9.42705
      vertex 50.5426 6.5 9.04264
    endloop
  endfacet
  facet normal 0.809017 -3.32558e-15 0.587785
    outer loop
      vertex 50.5832 10.3883 8.98679
      vertex 50.5426 10.5 9.04264
      vertex 50.2634 6.5 9.42705
    endloop
  endfacet
  facet normal 0 -1 0
    outer loop
      vertex 50.2634 6.5 9.42705
      vertex 49.8115 6.5 9.57388
      vertex 50.5426 6.5 9.04264
    endloop
  endfacet
  facet normal 3.88876e-15 5.27356e-15 5.35242e-15
    outer loop
      vertex 50.5426 6.5 9.04264
      vertex 49.4271 6.5 9.85317
      vertex 50.9271 6.5 8.76336
    endloop
  endfacet
  facet normal 4.4127e-15 3.77476e-15 6.07355e-15
    outer loop
      vertex 49.8115 6.5 9.57388
      vertex 49.4271 6.5 9.85317
      vertex 50.5426 6.5 9.04264
    endloop
  endfacet
  facet normal 0.57735 0.187593 0.794654
    outer loop
      vertex 49.6395 6.79247 9.62974
      vertex 49.4271 6.5 9.85317
      vertex 49.8115 6.5 9.57388
    endloop
  endfacet
  facet normal 0.57735 0.187593 0.794654
    outer loop
      vertex 50.7456 7.05858 8.76336
      vertex 50.5426 6.5 9.04264
      vertex 50.9271 6.5 8.76336
    endloop
  endfacet
  facet normal 0.57735 0.187593 0.794654
    outer loop
      vertex 49.419 7.16769 9.7014
      vertex 49.25 7.04491 9.85317
      vertex 49.4271 6.5 9.85317
    endloop
  endfacet
  facet normal 0.57735 0.187593 0.794654
    outer loop
      vertex 49.6395 6.79247 9.62974
      vertex 49.419 7.16769 9.7014
      vertex 49.4271 6.5 9.85317
    endloop
  endfacet
  facet normal 0.356822 0.491123 0.794654
    outer loop
      vertex 49.25 7.20163 9.75631
      vertex 49.25 7.04491 9.85317
      vertex 49.419 7.16769 9.7014
    endloop
  endfacet
  facet normal 0.356822 0.491123 0.794654
    outer loop
      vertex 49.25 7.20163 9.75631
      vertex 48.9519 7.26149 9.85317
      vertex 49.25 7.04491 9.85317
    endloop
  endfacet
  facet normal 0.57735 -0.187592 0.794654
    outer loop
      vertex 49.4271 6.5 9.85317
      vertex 49.25 5.95509 9.85317
      vertex 50.9271 6.5 8.76336
    endloop
  endfacet
  facet normal 0.57735 -0.187593 0.794654
    outer loop
      vertex 50.9271 6.5 8.76336
      vertex 49.25 5.95509 9.85317
      vertex 50.4635 5.07341 8.76336
    endloop
  endfacet
  facet normal 0.356822 -0.491123 0.794654
    outer loop
      vertex 49.25 5.95509 9.85317
      vertex 48.7865 5.61832 9.85317
      vertex 50.4635 5.07341 8.76336
    endloop
  endfacet
  facet normal 0.356822 -0.491123 0.794654
    outer loop
      vertex 50.4635 5.07341 8.76336
      vertex 48.7865 5.61832 9.85317
      vertex 49.25 4.19174 8.76336
    endloop
  endfacet
  facet normal 0.561583 -0.772953 0.295242
    outer loop
      vertex 50.4635 5.07341 8.76336
      vertex 49.25 4.19174 8.76336
      vertex 50.9271 4.73664 7
    endloop
  endfacet
  facet normal 0.561583 -0.772953 0.295242
    outer loop
      vertex 50.9271 4.73664 7
      vertex 49.25 4.19174 8.76336
      vertex 49.4271 3.64683 7
    endloop
  endfacet
  facet normal 0.587785 -0.809017 0
    outer loop
      vertex 49.4271 3.64683 7
      vertex 49.4271 3.64683 -7
      vertex 50.9271 4.73664 -7
    endloop
  endfacet
  facet normal 0.587785 -0.809017 0
    outer loop
      vertex 50.9271 4.73664 7
      vertex 49.4271 3.64683 7
      vertex 50.9271 4.73664 -7
    endloop
  endfacet
  facet normal 0.951057 -0.309017 0
    outer loop
      vertex 50.9271 4.73664 7
      vertex 50.9271 4.73664 -7
      vertex 51.5 6.5 -7
    endloop
  endfacet
  facet normal 0.951057 -0.309017 0
    outer loop
      vertex 51.5 6.5 7
      vertex 50.9271 4.73664 7
      vertex 51.5 6.5 -7
    endloop
  endfacet
  facet normal 1 0 -0
    outer loop
      vertex 51.5 6.5 7
      vertex 51.5 6.5 -7
      vertex 51.5 10.5 -7
    endloop
  endfacet
  facet normal 1 0 0
    outer loop
      vertex 51.5 10.5 7
      vertex 51.5 6.5 7
      vertex 51.5 10.5 -7
    endloop
  endfacet
  facet normal -0 0 -1
    outer loop
      vertex 51.3532 10.0481 -7
      vertex 51.5 10.5 -7
      vertex 51.3532 6.9519 -7
    endloop
  endfacet
  facet normal -0 0 -1
    outer loop
      vertex 51.3532 6.9519 -7
      vertex 51.5 10.5 -7
      vertex 51.5 6.5 -7
    endloop
  endfacet
  facet normal 0.908661 0.295242 -0.295242
    outer loop
      vertex 51.3532 6.70209 -7.2498
      vertex 51.3532 6.9519 -7
      vertex 51.5 6.5 -7
    endloop
  endfacet
  facet normal 1 0 0
    outer loop
      vertex 51.3532 10.0481 -7
      vertex 51.3532 10.5 -7.92705
      vertex 51.3532 10.5 -7.4519
    endloop
  endfacet
  facet normal 1 0 -0
    outer loop
      vertex 51.3532 10.0481 -7
      vertex 51.3532 6.9519 -7
      vertex 51.3532 10.5 -7.92705
    endloop
  endfacet
  facet normal 1 0 -0
    outer loop
      vertex 51.3532 6.9519 -7
      vertex 51.3532 6.70209 -7.2498
      vertex 51.3532 10.5 -7.92705
    endloop
  endfacet
  facet normal 1 0 -0
    outer loop
      vertex 51.3532 6.70209 -7.2498
      vertex 51.3532 6.5 -7.4519
      vertex 51.3532 10.5 -7.92705
    endloop
  endfacet
  facet normal 1 0 -0
    outer loop
      vertex 51.3532 6.5 -7.4519
      vertex 51.3532 6.5 -7.92705
      vertex 51.3532 10.5 -7.92705
    endloop
  endfacet
  facet normal 0 -1 0
    outer loop
      vertex 51.3532 6.5 -7.4519
      vertex 51.0739 6.5 -8.31146
      vertex 51.3532 6.5 -7.92705
    endloop
  endfacet
  facet normal -0 1 0
    outer loop
      vertex 51.3532 10.5 -7.92705
      vertex 51.0739 10.5 -8.31146
      vertex 51.3532 10.5 -7.4519
    endloop
  endfacet
  facet normal 0.908661 -0.295242 -0.295242
    outer loop
      vertex 51.5 10.5 -7
      vertex 51.3532 10.0481 -7
      vertex 51.3532 10.5 -7.4519
    endloop
  endfacet
  facet normal 0.951057 0.309017 0
    outer loop
      vertex 51.5 10.5 -7
      vertex 50.9271 12.2634 -7
      vertex 50.9271 12.2634 7
    endloop
  endfacet
  facet normal 0.951057 0.309017 -0
    outer loop
      vertex 51.5 10.5 7
      vertex 51.5 10.5 -7
      vertex 50.9271 12.2634 7
    endloop
  endfacet
  facet normal 0.587785 0.809017 0
    outer loop
      vertex 49.4271 13.3532 -7
      vertex 49.4271 13.3532 7
      vertex 50.9271 12.2634 -7
    endloop
  endfacet
  facet normal 0.587785 0.809017 0
    outer loop
      vertex 50.9271 12.2634 -7
      vertex 49.4271 13.3532 7
      vertex 50.9271 12.2634 7
    endloop
  endfacet
  facet normal 0.561583 0.772953 0.295242
    outer loop
      vertex 50.9271 12.2634 7
      vertex 49.4271 13.3532 7
      vertex 50.4635 11.9266 8.76336
    endloop
  endfacet
  facet normal 0.561583 0.772953 0.295242
    outer loop
      vertex 49.4271 13.3532 7
      vertex 49.25 12.8083 8.76336
      vertex 50.4635 11.9266 8.76336
    endloop
  endfacet
  facet normal 0.356822 0.491123 0.794654
    outer loop
      vertex 49.25 12.8083 8.76336
      vertex 49.25 11.0449 9.85317
      vertex 50.4635 11.9266 8.76336
    endloop
  endfacet
  facet normal 0.356822 0.491123 0.794654
    outer loop
      vertex 49.25 12.8083 8.76336
      vertex 48.7865 11.3817 9.85317
      vertex 49.25 11.0449 9.85317
    endloop
  endfacet
  facet normal 0.57735 0.187593 0.794654
    outer loop
      vertex 50.4635 11.9266 8.76336
      vertex 49.25 11.0449 9.85317
      vertex 49.4271 10.5 9.85317
    endloop
  endfacet
  facet normal 0.908661 0.295242 0.295242
    outer loop
      vertex 50.9271 12.2634 7
      vertex 50.4635 11.9266 8.76336
      vertex 50.9271 10.5 8.76336
    endloop
  endfacet
  facet normal 0.908661 -0.295242 0.295242
    outer loop
      vertex 50.9271 10.5 8.76336
      vertex 50.7456 9.94142 8.76336
      vertex 51.0739 10.5 8.31146
    endloop
  endfacet
  facet normal 0.57735 -0.187593 0.794654
    outer loop
      vertex 50.9271 10.5 8.76336
      vertex 50.5832 10.3883 8.98679
      vertex 50.7456 9.94142 8.76336
    endloop
  endfacet
  facet normal 0.57735 -0.187592 0.794654
    outer loop
      vertex 50.9271 10.5 8.76336
      vertex 50.5426 10.5 9.04264
      vertex 50.5832 10.3883 8.98679
    endloop
  endfacet
  facet normal 0.908661 0.295242 0.295242
    outer loop
      vertex 50.9271 12.2634 7
      vertex 50.9271 10.5 8.76336
      vertex 51.0739 10.5 8.31146
    endloop
  endfacet
  facet normal 0.908661 0.295242 0.295242
    outer loop
      vertex 51.5 10.5 7
      vertex 50.9271 12.2634 7
      vertex 51.3532 10.5 7.4519
    endloop
  endfacet
  facet normal 0.908661 0.295242 0.295242
    outer loop
      vertex 51.0739 10.5 8.31146
      vertex 51.3532 10.5 7.4519
      vertex 50.9271 12.2634 7
    endloop
  endfacet
  facet normal 0 1 0
    outer loop
      vertex 51.3532 10.5 7.4519
      vertex 51.0739 10.5 8.31146
      vertex 51.3532 10.5 7.92705
    endloop
  endfacet
  facet normal 1 1.77636e-15 -1.32818e-29
    outer loop
      vertex 51.3532 10.5 7.4519
      vertex 51.3532 10.5 7.92705
      vertex 51.3532 6.5 7.92705
    endloop
  endfacet
  facet normal 1 2.29488e-15 -2.29488e-15
    outer loop
      vertex 51.3532 10.2979 7.2498
      vertex 51.3532 6.9519 7
      vertex 51.3532 10.0481 7
    endloop
  endfacet
  facet normal 1 1.97603e-15 1.97603e-15
    outer loop
      vertex 51.3532 10.2979 7.2498
      vertex 51.3532 6.5 7.4519
      vertex 51.3532 6.9519 7
    endloop
  endfacet
  facet normal 1 1.87088e-15 0
    outer loop
      vertex 51.3532 10.2979 7.2498
      vertex 51.3532 6.5 7.92705
      vertex 51.3532 6.5 7.4519
    endloop
  endfacet
  facet normal 1 1.58775e-15 -1.58775e-15
    outer loop
      vertex 51.3532 10.2979 7.2498
      vertex 51.3532 10.5 7.4519
      vertex 51.3532 6.5 7.92705
    endloop
  endfacet
  facet normal 0 -1 0
    outer loop
      vertex 51.3532 6.5 7.92705
      vertex 51.0739 6.5 8.31146
      vertex 51.3532 6.5 7.4519
    endloop
  endfacet
  facet normal 4.55303e-15 1.58207e-15 1.47937e-15
    outer loop
      vertex 51.3532 6.5 7.4519
      vertex 50.9271 6.5 8.76336
      vertex 51.5 6.5 7
    endloop
  endfacet
  facet normal 5.16646e-15 1.26565e-14 1.67868e-15
    outer loop
      vertex 51.0739 6.5 8.31146
      vertex 50.9271 6.5 8.76336
      vertex 51.3532 6.5 7.4519
    endloop
  endfacet
  facet normal 0.908661 0.295242 0.295242
    outer loop
      vertex 50.9271 6.7498 8.51355
      vertex 50.9271 6.5 8.76336
      vertex 51.0739 6.5 8.31146
    endloop
  endfacet
  facet normal 0.908661 0.295242 0.295242
    outer loop
      vertex 51.3532 6.9519 7
      vertex 51.3532 6.5 7.4519
      vertex 51.5 6.5 7
    endloop
  endfacet
  facet normal 0.908661 0.295242 0.295242
    outer loop
      vertex 50.9271 6.7498 8.51355
      vertex 50.7456 7.05858 8.76336
      vertex 50.9271 6.5 8.76336
    endloop
  endfacet
  facet normal 0.908661 -0.295242 0.295242
    outer loop
      vertex 50.9271 6.5 8.76336
      vertex 50.4635 5.07341 8.76336
      vertex 51.5 6.5 7
    endloop
  endfacet
  facet normal 0.908661 -0.295242 0.295242
    outer loop
      vertex 51.5 6.5 7
      vertex 50.4635 5.07341 8.76336
      vertex 50.9271 4.73664 7
    endloop
  endfacet
  facet normal 0 0 1
    outer loop
      vertex 51.5 10.5 7
      vertex 51.3532 10.0481 7
      vertex 51.3532 6.9519 7
    endloop
  endfacet
  facet normal 0 0 1
    outer loop
      vertex 51.5 6.5 7
      vertex 51.5 10.5 7
      vertex 51.3532 6.9519 7
    endloop
  endfacet
  facet normal 0.908661 -0.295242 0.295242
    outer loop
      vertex 51.5 10.5 7
      vertex 51.3532 10.2979 7.2498
      vertex 51.3532 10.0481 7
    endloop
  endfacet
  facet normal 0.908661 -0.295242 0.295242
    outer loop
      vertex 51.5 10.5 7
      vertex 51.3532 10.5 7.4519
      vertex 51.3532 10.2979 7.2498
    endloop
  endfacet
endsolid OpenSCAD_Model
