solid OpenSCAD_Model
  facet normal -0 -0 -1
    outer loop
      vertex -18.3582 -0.986064 -46.25
      vertex -18.3582 0.986064 -46.25
      vertex -17.292 -2.64512 -46.25
    endloop
  endfacet
  facet normal 0 0 -1
    outer loop
      vertex -17.292 -2.64512 -46.25
      vertex -18.3582 0.986064 -46.25
      vertex -17.292 2.64512 -46.25
    endloop
  endfacet
  facet normal 0 -0 -1
    outer loop
      vertex -17.292 -2.64512 -46.25
      vertex -17.292 2.64512 -46.25
      vertex -15.4981 3.46437 -46.25
    endloop
  endfacet
  facet normal 0 0 -1
    outer loop
      vertex -17.292 -2.64512 -46.25
      vertex -15.4981 3.46437 -46.25
      vertex -13.546 3.18371 -46.25
    endloop
  endfacet
  facet normal 0 0 -1
    outer loop
      vertex -17.292 -2.64512 -46.25
      vertex -13.546 3.18371 -46.25
      vertex -12.0556 1.89224 -46.25
    endloop
  endfacet
  facet normal 0 0 -1
    outer loop
      vertex -17.292 -2.64512 -46.25
      vertex -12.0556 1.89224 -46.25
      vertex -11.5 0 -46.25
    endloop
  endfacet
  facet normal 0 0 -1
    outer loop
      vertex -17.292 -2.64512 -46.25
      vertex -11.5 0 -46.25
      vertex -12.0556 -1.89224 -46.25
    endloop
  endfacet
  facet normal -0 0 -1
    outer loop
      vertex -17.292 -2.64512 -46.25
      vertex -12.0556 -1.89224 -46.25
      vertex -13.546 -3.18371 -46.25
    endloop
  endfacet
  facet normal 0 0 -1
    outer loop
      vertex -17.292 -2.64512 -46.25
      vertex -13.546 -3.18371 -46.25
      vertex -15.4981 -3.46437 -46.25
    endloop
  endfacet
  facet normal -1 -0 -0
    outer loop
      vertex -18.3582 -0.986064 -46.25
      vertex -18.3582 -0.986064 46.25
      vertex -18.3582 0.986064 -46.25
    endloop
  endfacet
  facet normal -1 0 0
    outer loop
      vertex -18.3582 0.986064 -46.25
      vertex -18.3582 -0.986064 46.25
      vertex -18.3582 0.986064 46.25
    endloop
  endfacet
  facet normal -0.841254 -0.54064 -0
    outer loop
      vertex -18.3582 -0.986064 -46.25
      vertex -17.292 -2.64512 -46.25
      vertex -18.3582 -0.986064 46.25
    endloop
  endfacet
  facet normal -0.841254 -0.54064 0
    outer loop
      vertex -18.3582 -0.986064 46.25
      vertex -17.292 -2.64512 -46.25
      vertex -17.292 -2.64512 46.25
    endloop
  endfacet
  facet normal -0.415415 -0.909632 0
    outer loop
      vertex -17.292 -2.64512 46.25
      vertex -17.292 -2.64512 -46.25
      vertex -15.4981 -3.46437 -46.25
    endloop
  endfacet
  facet normal -0.415415 -0.909632 0
    outer loop
      vertex -15.4981 -3.46437 5
      vertex -17.292 -2.64512 46.25
      vertex -15.4981 -3.46437 -5
    endloop
  endfacet
  facet normal -0.415415 -0.909632 0
    outer loop
      vertex -15.4981 -3.46437 -5
      vertex -17.292 -2.64512 46.25
      vertex -15.4981 -3.46437 -46.25
    endloop
  endfacet
  facet normal -0.415415 -0.909632 0
    outer loop
      vertex -15.4981 -3.46437 46.25
      vertex -17.292 -2.64512 46.25
      vertex -15.4981 -3.46437 5
    endloop
  endfacet
  facet normal 0.142315 -0.989821 1.18749e-17
    outer loop
      vertex -14 -3.24898 -37.25
      vertex -15.4981 -3.46437 -46.25
      vertex -13.546 -3.18371 -46.25
    endloop
  endfacet
  facet normal 0.142315 -0.989821 -4.84592e-17
    outer loop
      vertex -14 -3.24898 -35.2802
      vertex -13.546 -3.18371 -35.1373
      vertex -15.4981 -3.46437 -5
    endloop
  endfacet
  facet normal 0.142315 -0.989821 0
    outer loop
      vertex -15.4981 -3.46437 -5
      vertex -15.4981 -3.46437 -46.25
      vertex -14 -3.24898 -37.25
    endloop
  endfacet
  facet normal 0.142315 -0.989821 0
    outer loop
      vertex -13.546 -3.18371 -5.51523
      vertex -15.4981 -3.46437 -5
      vertex -13.546 -3.18371 -35.1373
    endloop
  endfacet
  facet normal 0.142315 -0.989821 1.28342e-16
    outer loop
      vertex -14 -3.24898 -37.25
      vertex -14 -3.24898 -35.2802
      vertex -15.4981 -3.46437 -5
    endloop
  endfacet
  facet normal 0.142315 -0.989821 0
    outer loop
      vertex -13.546 -3.18371 -37.704
      vertex -14 -3.24898 -37.25
      vertex -13.546 -3.18371 -46.25
    endloop
  endfacet
  facet normal 0.654861 -0.755749 0
    outer loop
      vertex -13.546 -3.18371 -37.704
      vertex -13.546 -3.18371 -46.25
      vertex -12.0556 -1.89224 -46.25
    endloop
  endfacet
  facet normal 0.654861 -0.755749 0
    outer loop
      vertex -12.0556 -1.89224 -39.1944
      vertex -13.546 -3.18371 -37.704
      vertex -12.0556 -1.89224 -46.25
    endloop
  endfacet
  facet normal 0.959493 -0.281733 0
    outer loop
      vertex -12.0556 -1.89224 -39.1944
      vertex -12.0556 -1.89224 -46.25
      vertex -11.5 0 -46.25
    endloop
  endfacet
  facet normal 0.959493 -0.281733 0
    outer loop
      vertex -11.5 0 -39.75
      vertex -12.0556 -1.89224 -39.1944
      vertex -11.5 0 -46.25
    endloop
  endfacet
  facet normal 0.959493 0.281733 0
    outer loop
      vertex -11.5 0 -46.25
      vertex -12.0556 1.89224 -46.25
      vertex -12.0556 1.89224 -39.1944
    endloop
  endfacet
  facet normal 0.959493 0.281733 -0
    outer loop
      vertex -11.5 0 -39.75
      vertex -11.5 0 -46.25
      vertex -12.0556 1.89224 -39.1944
    endloop
  endfacet
  facet normal 0.654861 0.755749 0
    outer loop
      vertex -13.546 3.18371 -46.25
      vertex -13.546 3.18371 -37.704
      vertex -12.0556 1.89224 -46.25
    endloop
  endfacet
  facet normal 0.654861 0.755749 0
    outer loop
      vertex -12.0556 1.89224 -46.25
      vertex -13.546 3.18371 -37.704
      vertex -12.0556 1.89224 -39.1944
    endloop
  endfacet
  facet normal 0.142315 0.989821 -0
    outer loop
      vertex -13.546 3.18371 -37.704
      vertex -13.546 3.18371 -46.25
      vertex -14 3.24898 -37.25
    endloop
  endfacet
  facet normal 0.142315 0.989821 0
    outer loop
      vertex -13.546 3.18371 -35.1373
      vertex -15.4981 3.46437 -5
      vertex -13.546 3.18371 -5.51523
    endloop
  endfacet
  facet normal 0.142315 0.989821 -4.84592e-17
    outer loop
      vertex -14 3.24898 -35.2802
      vertex -15.4981 3.46437 -5
      vertex -13.546 3.18371 -35.1373
    endloop
  endfacet
  facet normal 0.142315 0.989821 0
    outer loop
      vertex -15.4981 3.46437 -46.25
      vertex -15.4981 3.46437 -5
      vertex -14 3.24898 -37.25
    endloop
  endfacet
  facet normal 0.142315 0.989821 1.18749e-17
    outer loop
      vertex -15.4981 3.46437 -46.25
      vertex -14 3.24898 -37.25
      vertex -13.546 3.18371 -46.25
    endloop
  endfacet
  facet normal 0.142315 0.989821 1.28342e-16
    outer loop
      vertex -14 3.24898 -37.25
      vertex -15.4981 3.46437 -5
      vertex -14 3.24898 -35.2802
    endloop
  endfacet
  facet normal -0.415415 0.909632 0
    outer loop
      vertex -17.292 2.64512 -46.25
      vertex -17.292 2.64512 46.25
      vertex -15.4981 3.46437 -46.25
    endloop
  endfacet
  facet normal -0.415415 0.909632 0
    outer loop
      vertex -15.4981 3.46437 5
      vertex -17.292 2.64512 46.25
      vertex -15.4981 3.46437 46.25
    endloop
  endfacet
  facet normal -0.415415 0.909632 0
    outer loop
      vertex -15.4981 3.46437 -5
      vertex -17.292 2.64512 46.25
      vertex -15.4981 3.46437 5
    endloop
  endfacet
  facet normal -0.415415 0.909632 0
    outer loop
      vertex -15.4981 3.46437 -46.25
      vertex -17.292 2.64512 46.25
      vertex -15.4981 3.46437 -5
    endloop
  endfacet
  facet normal -0.841254 0.54064 0
    outer loop
      vertex -18.3582 0.986064 -46.25
      vertex -18.3582 0.986064 46.25
      vertex -17.292 2.64512 -46.25
    endloop
  endfacet
  facet normal -0.841254 0.54064 0
    outer loop
      vertex -17.292 2.64512 -46.25
      vertex -18.3582 0.986064 46.25
      vertex -17.292 2.64512 46.25
    endloop
  endfacet
  facet normal 0 -0 1
    outer loop
      vertex -18.3582 0.986064 46.25
      vertex -18.3582 -0.986064 46.25
      vertex -17.292 -2.64512 46.25
    endloop
  endfacet
  facet normal -0 0 1
    outer loop
      vertex -13.546 -3.18371 46.25
      vertex -18.3582 0.986064 46.25
      vertex -15.4981 -3.46437 46.25
    endloop
  endfacet
  facet normal 0 0 1
    outer loop
      vertex -15.4981 -3.46437 46.25
      vertex -18.3582 0.986064 46.25
      vertex -17.292 -2.64512 46.25
    endloop
  endfacet
  facet normal -0 0 1
    outer loop
      vertex -12.0556 -1.89224 46.25
      vertex -18.3582 0.986064 46.25
      vertex -13.546 -3.18371 46.25
    endloop
  endfacet
  facet normal -0 0 1
    outer loop
      vertex -11.5 0 46.25
      vertex -18.3582 0.986064 46.25
      vertex -12.0556 -1.89224 46.25
    endloop
  endfacet
  facet normal 0 -0 1
    outer loop
      vertex -12.0556 1.89224 46.25
      vertex -18.3582 0.986064 46.25
      vertex -11.5 0 46.25
    endloop
  endfacet
  facet normal 0 -0 1
    outer loop
      vertex -13.546 3.18371 46.25
      vertex -18.3582 0.986064 46.25
      vertex -12.0556 1.89224 46.25
    endloop
  endfacet
  facet normal 0 -0 1
    outer loop
      vertex -15.4981 3.46437 46.25
      vertex -18.3582 0.986064 46.25
      vertex -13.546 3.18371 46.25
    endloop
  endfacet
  facet normal 0 -0 1
    outer loop
      vertex -17.292 2.64512 46.25
      vertex -18.3582 0.986064 46.25
      vertex -15.4981 3.46437 46.25
    endloop
  endfacet
  facet normal 0.142315 -0.989821 0
    outer loop
      vertex -15.4981 -3.46437 46.25
      vertex -15.4981 -3.46437 5
      vertex -13.546 -3.18371 5.51523
    endloop
  endfacet
  facet normal 0.142315 -0.989821 4.49807e-18
    outer loop
      vertex -14 -3.24898 35.25
      vertex -15.4981 -3.46437 46.25
      vertex -13.546 -3.18371 5.51523
    endloop
  endfacet
  facet normal 0.142315 -0.989821 0
    outer loop
      vertex -13.546 -3.18371 34.796
      vertex -14 -3.24898 35.25
      vertex -13.546 -3.18371 5.51523
    endloop
  endfacet
  facet normal 0.142315 -0.989821 1.28342e-16
    outer loop
      vertex -14 -3.24898 37.2198
      vertex -15.4981 -3.46437 46.25
      vertex -14 -3.24898 35.25
    endloop
  endfacet
  facet normal 0.142315 -0.989821 0
    outer loop
      vertex -13.546 -3.18371 46.25
      vertex -15.4981 -3.46437 46.25
      vertex -13.546 -3.18371 37.3627
    endloop
  endfacet
  facet normal 0.142315 -0.989821 -1.58249e-16
    outer loop
      vertex -14 -3.24898 37.2198
      vertex -13.546 -3.18371 37.3627
      vertex -15.4981 -3.46437 46.25
    endloop
  endfacet
  facet normal -0.180746 -0.395778 0.900383
    outer loop
      vertex -13.546 -3.18371 5.51523
      vertex -15.4981 -3.46437 5
      vertex -1.48734 -3.5 7.7969
    endloop
  endfacet
  facet normal -0.180746 -0.395778 0.900383
    outer loop
      vertex -13.1811 -2.86748 5.7275
      vertex -13.546 -3.18371 5.51523
      vertex -1.48734 -3.5 7.7969
    endloop
  endfacet
  facet normal -0.00659234 -0.999772 0.0202891
    outer loop
      vertex -1.48734 -3.5 7.7969
      vertex -15.4981 -3.46437 5
      vertex -3.37962 -3.5 7.18206
    endloop
  endfacet
  facet normal -0.0041041 -0.999971 0.00646702
    outer loop
      vertex -3.37962 -3.5 7.18206
      vertex -15.4981 -3.46437 5
      vertex -5.05955 -3.5 6.11595
    endloop
  endfacet
  facet normal -0.00379363 -0.999986 0.00356246
    outer loop
      vertex -5.05955 -3.5 6.11595
      vertex -15.4981 -3.46437 5
      vertex -6.42157 -3.5 4.66554
    endloop
  endfacet
  facet normal -0.00384699 -0.99999 0.0021149
    outer loop
      vertex -6.42157 -3.5 4.66554
      vertex -15.4981 -3.46437 5
      vertex -7.3801 -3.5 2.92199
    endloop
  endfacet
  facet normal -0.00411773 -0.999991 0.00105725
    outer loop
      vertex -7.3801 -3.5 2.92199
      vertex -15.4981 -3.46437 5
      vertex -7.87491 -3.5 0.994833
    endloop
  endfacet
  facet normal -0.00467319 -0.999989 2.23195e-16
    outer loop
      vertex -7.87491 -3.5 0.994833
      vertex -15.4981 -3.46437 5
      vertex -7.87491 -3.5 -0.994833
    endloop
  endfacet
  facet normal -0.00467319 -0.999989 0
    outer loop
      vertex -15.4981 -3.46437 5
      vertex -15.4981 -3.46437 -5
      vertex -7.87491 -3.5 -0.994833
    endloop
  endfacet
  facet normal -0.00411773 -0.999991 -0.00105725
    outer loop
      vertex -7.87491 -3.5 -0.994833
      vertex -15.4981 -3.46437 -5
      vertex -7.3801 -3.5 -2.92199
    endloop
  endfacet
  facet normal -0.00384699 -0.99999 -0.0021149
    outer loop
      vertex -7.3801 -3.5 -2.92199
      vertex -15.4981 -3.46437 -5
      vertex -6.42157 -3.5 -4.66554
    endloop
  endfacet
  facet normal -0.00379363 -0.999986 -0.00356246
    outer loop
      vertex -6.42157 -3.5 -4.66554
      vertex -15.4981 -3.46437 -5
      vertex -5.05955 -3.5 -6.11595
    endloop
  endfacet
  facet normal -0.0041041 -0.999971 -0.00646702
    outer loop
      vertex -5.05955 -3.5 -6.11595
      vertex -15.4981 -3.46437 -5
      vertex -3.37962 -3.5 -7.18206
    endloop
  endfacet
  facet normal -0.00659234 -0.999772 -0.0202891
    outer loop
      vertex -3.37962 -3.5 -7.18206
      vertex -15.4981 -3.46437 -5
      vertex -1.48734 -3.5 -7.7969
    endloop
  endfacet
  facet normal -0.180746 -0.395778 -0.900383
    outer loop
      vertex -15.4981 -3.46437 -5
      vertex -13.546 -3.18371 -5.51523
      vertex -1.48734 -3.5 -7.7969
    endloop
  endfacet
  facet normal -0.180746 -0.395778 -0.900383
    outer loop
      vertex -1.48734 -3.5 -7.7969
      vertex -13.546 -3.18371 -5.51523
      vertex -13.1811 -2.86748 -5.7275
    endloop
  endfacet
  facet normal 0.654861 -0.755749 0
    outer loop
      vertex -13.546 -3.18371 -5.51523
      vertex -13.546 -3.18371 -35.1373
      vertex -12.9245 -2.64512 -33.958
    endloop
  endfacet
  facet normal 0.654861 -0.755749 -5.12128e-18
    outer loop
      vertex -12.0556 -1.89224 -33.4741
      vertex -13.546 -3.18371 -5.51523
      vertex -12.9245 -2.64512 -33.958
    endloop
  endfacet
  facet normal 0.654861 -0.755749 0
    outer loop
      vertex -12.0556 -1.89224 -33.4741
      vertex -12.0556 -1.89224 -6.04487
      vertex -12.0881 -1.92038 -6.03948
    endloop
  endfacet
  facet normal 0.654861 -0.755749 -2.5913e-17
    outer loop
      vertex -12.0556 -1.89224 -33.4741
      vertex -13.1811 -2.86748 -5.7275
      vertex -13.546 -3.18371 -5.51523
    endloop
  endfacet
  facet normal 0.654861 -0.755749 -1.68353e-17
    outer loop
      vertex -12.0556 -1.89224 -33.4741
      vertex -12.0881 -1.92038 -6.03948
      vertex -13.1811 -2.86748 -5.7275
    endloop
  endfacet
  facet normal -1.53654e-15 -0.909632 0.415415
    outer loop
      vertex -13.546 -3.18371 -35.1373
      vertex -14 -3.24898 -35.2802
      vertex -14 -3.46437 -35.7519
    endloop
  endfacet
  facet normal -5.54809e-17 -0.909632 0.415415
    outer loop
      vertex 14 -3.23517 -35.25
      vertex -13.546 -3.18371 -35.1373
      vertex 14 -3.46437 -35.7519
    endloop
  endfacet
  facet normal -1.05418e-16 -0.909632 0.415415
    outer loop
      vertex 14 -3.46437 -35.7519
      vertex -13.546 -3.18371 -35.1373
      vertex -14 -3.46437 -35.7519
    endloop
  endfacet
  facet normal -6.5208e-17 -0.909632 0.415415
    outer loop
      vertex 12.708 -2.64512 -33.958
      vertex -13.546 -3.18371 -35.1373
      vertex 14 -3.23517 -35.25
    endloop
  endfacet
  facet normal -1.15155e-16 -0.909632 0.415415
    outer loop
      vertex -12.9245 -2.64512 -33.958
      vertex -13.546 -3.18371 -35.1373
      vertex 12.708 -2.64512 -33.958
    endloop
  endfacet
  facet normal -1 1.97471e-15 -9.01818e-16
    outer loop
      vertex -14 -3.46437 -35.7519
      vertex -14 -3.24898 -35.2802
      vertex -14 -3.24898 -37.25
    endloop
  endfacet
  facet normal 3.61145e-17 -0.989821 -0.142315
    outer loop
      vertex 14 -3.46437 -35.7519
      vertex -14 -3.46437 -35.7519
      vertex -14 -3.24898 -37.25
    endloop
  endfacet
  facet normal 3.68605e-17 -0.989821 -0.142315
    outer loop
      vertex 13.8873 -3.18371 -37.704
      vertex 14 -3.46437 -35.7519
      vertex -13.546 -3.18371 -37.704
    endloop
  endfacet
  facet normal 2.58446e-17 -0.989821 -0.142315
    outer loop
      vertex -13.546 -3.18371 -37.704
      vertex 14 -3.46437 -35.7519
      vertex -14 -3.24898 -37.25
    endloop
  endfacet
  facet normal -7.77449e-16 -0.989821 -0.142315
    outer loop
      vertex 14 -3.23517 -37.3461
      vertex 14 -3.46437 -35.7519
      vertex 13.8873 -3.18371 -37.704
    endloop
  endfacet
  facet normal 1.69613e-16 -0.755749 -0.654861
    outer loop
      vertex 13.8873 -3.18371 -37.704
      vertex -13.546 -3.18371 -37.704
      vertex -12.0556 -1.89224 -39.1944
    endloop
  endfacet
  facet normal -3.14759e-17 -0.755749 -0.654861
    outer loop
      vertex 12.708 -2.64512 -38.3255
      vertex 13.8873 -3.18371 -37.704
      vertex -12.0556 -1.89224 -39.1944
    endloop
  endfacet
  facet normal 1.91644e-16 -0.755749 -0.654861
    outer loop
      vertex 12.2241 -1.89224 -39.1944
      vertex 12.708 -2.64512 -38.3255
      vertex -12.0556 -1.89224 -39.1944
    endloop
  endfacet
  facet normal 2.80794e-16 -0.281733 -0.959493
    outer loop
      vertex -12.0556 -1.89224 -39.1944
      vertex -11.5 0 -39.75
      vertex 12.2241 -1.89224 -39.1944
    endloop
  endfacet
  facet normal 2.95413e-16 -0.281733 -0.959493
    outer loop
      vertex 11.6418 -0.986064 -39.4605
      vertex -11.5 0 -39.75
      vertex 11.6418 0 -39.75
    endloop
  endfacet
  facet normal 2.81324e-16 -0.281733 -0.959493
    outer loop
      vertex 12.2241 -1.89224 -39.1944
      vertex -11.5 0 -39.75
      vertex 11.6418 -0.986064 -39.4605
    endloop
  endfacet
  facet normal 2.80794e-16 0.281733 -0.959493
    outer loop
      vertex -12.0556 1.89224 -39.1944
      vertex 12.2241 1.89224 -39.1944
      vertex -11.5 0 -39.75
    endloop
  endfacet
  facet normal 2.81324e-16 0.281733 -0.959493
    outer loop
      vertex -11.5 0 -39.75
      vertex 12.2241 1.89224 -39.1944
      vertex 11.6418 0.986064 -39.4605
    endloop
  endfacet
  facet normal 2.94602e-16 0.281733 -0.959493
    outer loop
      vertex -11.5 0 -39.75
      vertex 11.6418 0.986064 -39.4605
      vertex 11.6418 0 -39.75
    endloop
  endfacet
  facet normal 1.69613e-16 0.755749 -0.654861
    outer loop
      vertex -13.546 3.18371 -37.704
      vertex 13.8873 3.18371 -37.704
      vertex -12.0556 1.89224 -39.1944
    endloop
  endfacet
  facet normal -3.0707e-17 0.755749 -0.654861
    outer loop
      vertex -12.0556 1.89224 -39.1944
      vertex 13.8873 3.18371 -37.704
      vertex 12.708 2.64512 -38.3255
    endloop
  endfacet
  facet normal 1.91644e-16 0.755749 -0.654861
    outer loop
      vertex -12.0556 1.89224 -39.1944
      vertex 12.708 2.64512 -38.3255
      vertex 12.2241 1.89224 -39.1944
    endloop
  endfacet
  facet normal 3.61145e-17 0.989821 -0.142315
    outer loop
      vertex -14 3.46437 -35.7519
      vertex 14 3.46437 -35.7519
      vertex -14 3.24898 -37.25
    endloop
  endfacet
  facet normal 3.24555e-17 0.989821 -0.142315
    outer loop
      vertex -14 3.24898 -37.25
      vertex 14 3.46437 -35.7519
      vertex 14 3.23517 -37.3461
    endloop
  endfacet
  facet normal 3.1584e-17 0.989821 -0.142315
    outer loop
      vertex -14 3.24898 -37.25
      vertex 14 3.23517 -37.3461
      vertex 13.8873 3.18371 -37.704
    endloop
  endfacet
  facet normal 3.6441e-17 0.989821 -0.142315
    outer loop
      vertex -14 3.24898 -37.25
      vertex 13.8873 3.18371 -37.704
      vertex -13.546 3.18371 -37.704
    endloop
  endfacet
  facet normal -1 -1.97471e-15 -9.01818e-16
    outer loop
      vertex -14 3.24898 -37.25
      vertex -14 3.24898 -35.2802
      vertex -14 3.46437 -35.7519
    endloop
  endfacet
  facet normal -1.52143e-15 0.909632 0.415415
    outer loop
      vertex -14 3.24898 -35.2802
      vertex -13.546 3.18371 -35.1373
      vertex -14 3.46437 -35.7519
    endloop
  endfacet
  facet normal -1.15155e-16 0.909632 0.415415
    outer loop
      vertex 12.708 2.64512 -33.958
      vertex -13.546 3.18371 -35.1373
      vertex -12.9245 2.64512 -33.958
    endloop
  endfacet
  facet normal -6.76456e-17 0.909632 0.415415
    outer loop
      vertex -14 3.46437 -35.7519
      vertex -13.546 3.18371 -35.1373
      vertex 12.708 2.64512 -33.958
    endloop
  endfacet
  facet normal -6.29902e-17 0.909632 0.415415
    outer loop
      vertex -14 3.46437 -35.7519
      vertex 12.708 2.64512 -33.958
      vertex 14 3.23517 -35.25
    endloop
  endfacet
  facet normal -1.05418e-16 0.909632 0.415415
    outer loop
      vertex -14 3.46437 -35.7519
      vertex 14 3.23517 -35.25
      vertex 14 3.46437 -35.7519
    endloop
  endfacet
  facet normal 0.654861 0.755749 0
    outer loop
      vertex -13.546 3.18371 -35.1373
      vertex -13.546 3.18371 -5.51523
      vertex -12.9245 2.64512 -33.958
    endloop
  endfacet
  facet normal 0.654861 0.755749 4.85117e-18
    outer loop
      vertex -12.9245 2.64512 -33.958
      vertex -13.546 3.18371 -5.51523
      vertex -13.1811 2.86748 -5.7275
    endloop
  endfacet
  facet normal 0.654861 0.755749 3.71318e-18
    outer loop
      vertex -12.9245 2.64512 -33.958
      vertex -13.1811 2.86748 -5.7275
      vertex -12.0881 1.92038 -6.03948
    endloop
  endfacet
  facet normal 0.654861 0.755749 3.63652e-16
    outer loop
      vertex -12.0881 1.92038 -6.03948
      vertex -12.0556 1.89224 -6.04487
      vertex -12.9245 2.64512 -33.958
    endloop
  endfacet
  facet normal 0.654861 0.755749 0
    outer loop
      vertex -12.9245 2.64512 -33.958
      vertex -12.0556 1.89224 -6.04487
      vertex -12.0556 1.89224 -33.4741
    endloop
  endfacet
  facet normal -0.180746 0.395778 -0.900383
    outer loop
      vertex -15.4981 3.46437 -5
      vertex -1.48734 3.5 -7.7969
      vertex -13.546 3.18371 -5.51523
    endloop
  endfacet
  facet normal -0.180746 0.395778 -0.900383
    outer loop
      vertex -13.546 3.18371 -5.51523
      vertex -1.48734 3.5 -7.7969
      vertex -13.1811 2.86748 -5.7275
    endloop
  endfacet
  facet normal -0.00659234 0.999772 -0.0202891
    outer loop
      vertex -1.48734 3.5 -7.7969
      vertex -15.4981 3.46437 -5
      vertex -3.37962 3.5 -7.18206
    endloop
  endfacet
  facet normal -0.0041041 0.999971 -0.00646702
    outer loop
      vertex -3.37962 3.5 -7.18206
      vertex -15.4981 3.46437 -5
      vertex -5.05955 3.5 -6.11595
    endloop
  endfacet
  facet normal -0.00379363 0.999986 -0.00356246
    outer loop
      vertex -5.05955 3.5 -6.11595
      vertex -15.4981 3.46437 -5
      vertex -6.42157 3.5 -4.66554
    endloop
  endfacet
  facet normal -0.00384699 0.99999 -0.0021149
    outer loop
      vertex -6.42157 3.5 -4.66554
      vertex -15.4981 3.46437 -5
      vertex -7.3801 3.5 -2.92199
    endloop
  endfacet
  facet normal -0.00411773 0.999991 -0.00105725
    outer loop
      vertex -7.3801 3.5 -2.92199
      vertex -15.4981 3.46437 -5
      vertex -7.87491 3.5 -0.994833
    endloop
  endfacet
  facet normal -0.00467319 0.999989 -2.23195e-16
    outer loop
      vertex -7.87491 3.5 -0.994833
      vertex -15.4981 3.46437 -5
      vertex -7.87491 3.5 0.994833
    endloop
  endfacet
  facet normal -0.00467319 0.999989 0
    outer loop
      vertex -7.87491 3.5 0.994833
      vertex -15.4981 3.46437 -5
      vertex -15.4981 3.46437 5
    endloop
  endfacet
  facet normal -0.00411773 0.999991 0.00105725
    outer loop
      vertex -7.87491 3.5 0.994833
      vertex -15.4981 3.46437 5
      vertex -7.3801 3.5 2.92199
    endloop
  endfacet
  facet normal -0.00384699 0.99999 0.0021149
    outer loop
      vertex -7.3801 3.5 2.92199
      vertex -15.4981 3.46437 5
      vertex -6.42157 3.5 4.66554
    endloop
  endfacet
  facet normal -0.00379363 0.999986 0.00356246
    outer loop
      vertex -6.42157 3.5 4.66554
      vertex -15.4981 3.46437 5
      vertex -5.05955 3.5 6.11595
    endloop
  endfacet
  facet normal -0.0041041 0.999971 0.00646702
    outer loop
      vertex -5.05955 3.5 6.11595
      vertex -15.4981 3.46437 5
      vertex -3.37962 3.5 7.18206
    endloop
  endfacet
  facet normal -0.00659234 0.999772 0.0202891
    outer loop
      vertex -3.37962 3.5 7.18206
      vertex -15.4981 3.46437 5
      vertex -1.48734 3.5 7.7969
    endloop
  endfacet
  facet normal -0.180746 0.395778 0.900383
    outer loop
      vertex -1.48734 3.5 7.7969
      vertex -15.4981 3.46437 5
      vertex -13.546 3.18371 5.51523
    endloop
  endfacet
  facet normal -0.180746 0.395778 0.900383
    outer loop
      vertex -13.1811 2.86748 5.7275
      vertex -1.48734 3.5 7.7969
      vertex -13.546 3.18371 5.51523
    endloop
  endfacet
  facet normal 0.142315 0.989821 0
    outer loop
      vertex -15.4981 3.46437 5
      vertex -15.4981 3.46437 46.25
      vertex -13.546 3.18371 5.51523
    endloop
  endfacet
  facet normal 0.142315 0.989821 0
    outer loop
      vertex -13.546 3.18371 37.3627
      vertex -15.4981 3.46437 46.25
      vertex -13.546 3.18371 46.25
    endloop
  endfacet
  facet normal 0.142315 0.989821 -1.58249e-16
    outer loop
      vertex -14 3.24898 37.2198
      vertex -15.4981 3.46437 46.25
      vertex -13.546 3.18371 37.3627
    endloop
  endfacet
  facet normal 0.142315 0.989821 1.28342e-16
    outer loop
      vertex -14 3.24898 35.25
      vertex -15.4981 3.46437 46.25
      vertex -14 3.24898 37.2198
    endloop
  endfacet
  facet normal 0.142315 0.989821 5.065e-18
    outer loop
      vertex -13.546 3.18371 5.51523
      vertex -15.4981 3.46437 46.25
      vertex -14 3.24898 35.25
    endloop
  endfacet
  facet normal 0.142315 0.989821 -0
    outer loop
      vertex -13.546 3.18371 34.796
      vertex -13.546 3.18371 5.51523
      vertex -14 3.24898 35.25
    endloop
  endfacet
  facet normal 0.654861 0.755749 0
    outer loop
      vertex -13.546 3.18371 37.3627
      vertex -13.546 3.18371 46.25
      vertex -12.9245 2.64512 38.542
    endloop
  endfacet
  facet normal 0.654861 0.755749 -1.35602e-17
    outer loop
      vertex -12.9245 2.64512 38.542
      vertex -13.546 3.18371 46.25
      vertex -12.0556 1.89224 46.25
    endloop
  endfacet
  facet normal 0.654861 0.755749 0
    outer loop
      vertex -12.9245 2.64512 38.542
      vertex -12.0556 1.89224 46.25
      vertex -12.0556 1.89224 39.0259
    endloop
  endfacet
  facet normal 0.959493 0.281733 0
    outer loop
      vertex -11.7895 0.986064 39.6082
      vertex -12.0556 1.89224 39.0259
      vertex -12.0556 1.89224 46.25
    endloop
  endfacet
  facet normal 0.959493 0.281733 0
    outer loop
      vertex -11.5 0 39.6082
      vertex -11.7895 0.986064 39.6082
      vertex -11.5 0 46.25
    endloop
  endfacet
  facet normal 0.959493 0.281733 1.51898e-16
    outer loop
      vertex -11.5 0 46.25
      vertex -11.7895 0.986064 39.6082
      vertex -12.0556 1.89224 46.25
    endloop
  endfacet
  facet normal 0.959493 -0.281733 0
    outer loop
      vertex -12.0556 -1.89224 46.25
      vertex -12.0556 -1.89224 39.0259
      vertex -11.7895 -0.986064 39.6082
    endloop
  endfacet
  facet normal 0.959493 -0.281733 2.91491e-16
    outer loop
      vertex -11.5 0 39.6082
      vertex -12.0556 -1.89224 46.25
      vertex -11.7895 -0.986064 39.6082
    endloop
  endfacet
  facet normal 0.959493 -0.281733 0
    outer loop
      vertex -11.5 0 39.6082
      vertex -11.5 0 46.25
      vertex -12.0556 -1.89224 46.25
    endloop
  endfacet
  facet normal 0.654861 -0.755749 0
    outer loop
      vertex -13.546 -3.18371 46.25
      vertex -13.546 -3.18371 37.3627
      vertex -12.9245 -2.64512 38.542
    endloop
  endfacet
  facet normal 0.654861 -0.755749 -1.95541e-17
    outer loop
      vertex -12.0556 -1.89224 39.0259
      vertex -13.546 -3.18371 46.25
      vertex -12.9245 -2.64512 38.542
    endloop
  endfacet
  facet normal 0.654861 -0.755749 0
    outer loop
      vertex -12.0556 -1.89224 39.0259
      vertex -12.0556 -1.89224 46.25
      vertex -13.546 -3.18371 46.25
    endloop
  endfacet
  facet normal -1.53654e-15 -0.909632 0.415415
    outer loop
      vertex -13.546 -3.18371 37.3627
      vertex -14 -3.24898 37.2198
      vertex -14 -3.46437 36.7481
    endloop
  endfacet
  facet normal -5.54809e-17 -0.909632 0.415415
    outer loop
      vertex 14 -3.23517 37.25
      vertex -13.546 -3.18371 37.3627
      vertex 14 -3.46437 36.7481
    endloop
  endfacet
  facet normal -1.05418e-16 -0.909632 0.415415
    outer loop
      vertex 14 -3.46437 36.7481
      vertex -13.546 -3.18371 37.3627
      vertex -14 -3.46437 36.7481
    endloop
  endfacet
  facet normal -6.5208e-17 -0.909632 0.415415
    outer loop
      vertex 12.708 -2.64512 38.542
      vertex -13.546 -3.18371 37.3627
      vertex 14 -3.23517 37.25
    endloop
  endfacet
  facet normal -1.15155e-16 -0.909632 0.415415
    outer loop
      vertex -12.9245 -2.64512 38.542
      vertex -13.546 -3.18371 37.3627
      vertex 12.708 -2.64512 38.542
    endloop
  endfacet
  facet normal -1 1.97471e-15 -9.01818e-16
    outer loop
      vertex -14 -3.46437 36.7481
      vertex -14 -3.24898 37.2198
      vertex -14 -3.24898 35.25
    endloop
  endfacet
  facet normal 3.61145e-17 -0.989821 -0.142315
    outer loop
      vertex 14 -3.46437 36.7481
      vertex -14 -3.46437 36.7481
      vertex -14 -3.24898 35.25
    endloop
  endfacet
  facet normal 3.68605e-17 -0.989821 -0.142315
    outer loop
      vertex 13.8873 -3.18371 34.796
      vertex 14 -3.46437 36.7481
      vertex -13.546 -3.18371 34.796
    endloop
  endfacet
  facet normal 2.58446e-17 -0.989821 -0.142315
    outer loop
      vertex -13.546 -3.18371 34.796
      vertex 14 -3.46437 36.7481
      vertex -14 -3.24898 35.25
    endloop
  endfacet
  facet normal -7.77449e-16 -0.989821 -0.142315
    outer loop
      vertex 14 -3.23517 35.1539
      vertex 14 -3.46437 36.7481
      vertex 13.8873 -3.18371 34.796
    endloop
  endfacet
  facet normal 1.69613e-16 -0.755749 -0.654861
    outer loop
      vertex 13.8873 -3.18371 34.796
      vertex -13.546 -3.18371 34.796
      vertex -12.0556 -1.89224 33.3056
    endloop
  endfacet
  facet normal -3.14759e-17 -0.755749 -0.654861
    outer loop
      vertex 12.708 -2.64512 34.1745
      vertex 13.8873 -3.18371 34.796
      vertex -12.0556 -1.89224 33.3056
    endloop
  endfacet
  facet normal 1.91644e-16 -0.755749 -0.654861
    outer loop
      vertex 12.2241 -1.89224 33.3056
      vertex 12.708 -2.64512 34.1745
      vertex -12.0556 -1.89224 33.3056
    endloop
  endfacet
  facet normal 0.654861 -0.755749 0
    outer loop
      vertex -13.546 -3.18371 34.796
      vertex -13.546 -3.18371 5.51523
      vertex -13.1811 -2.86748 5.7275
    endloop
  endfacet
  facet normal 0.654861 -0.755749 -4.25e-18
    outer loop
      vertex -12.0881 -1.92038 6.03948
      vertex -13.546 -3.18371 34.796
      vertex -13.1811 -2.86748 5.7275
    endloop
  endfacet
  facet normal 0.654861 -0.755749 -6.11658e-16
    outer loop
      vertex -12.0881 -1.92038 6.03948
      vertex -12.0556 -1.89224 6.04487
      vertex -13.546 -3.18371 34.796
    endloop
  endfacet
  facet normal 0.654861 -0.755749 0
    outer loop
      vertex -12.0556 -1.89224 6.04487
      vertex -12.0556 -1.89224 33.3056
      vertex -13.546 -3.18371 34.796
    endloop
  endfacet
  facet normal -0.179135 -0.115123 0.977066
    outer loop
      vertex -12.0881 -1.92038 6.03948
      vertex -13.1811 -2.86748 5.7275
      vertex -1.48734 -3.5 7.7969
    endloop
  endfacet
  facet normal -0.163551 1.33282e-15 0.986535
    outer loop
      vertex -12.0556 -1.89224 6.04487
      vertex -12.0881 -1.92038 6.03948
      vertex -1.48734 -3.5 7.7969
    endloop
  endfacet
  facet normal -0.163551 -4.37266e-17 0.986535
    outer loop
      vertex -11.7281 -0.776917 6.09916
      vertex -12.0556 -1.89224 6.04487
      vertex -1.48734 -3.5 7.7969
    endloop
  endfacet
  facet normal -0.163551 2.64079e-14 0.986535
    outer loop
      vertex -1.48734 3.5 7.7969
      vertex -12.0881 1.92038 6.03948
      vertex -12.0556 1.89224 6.04487
    endloop
  endfacet
  facet normal -0.163551 1.64252e-16 0.986535
    outer loop
      vertex -11.5 0 6.13698
      vertex -1.48734 3.5 7.7969
      vertex -12.0556 1.89224 6.04487
    endloop
  endfacet
  facet normal -0.163551 -3.68673e-16 0.986535
    outer loop
      vertex -11.5 0 6.13698
      vertex -11.7281 -0.776917 6.09916
      vertex -1.48734 3.5 7.7969
    endloop
  endfacet
  facet normal -0.163551 1.20176e-16 0.986535
    outer loop
      vertex -11.7281 -0.776917 6.09916
      vertex -1.48734 -3.5 7.7969
      vertex -1.48734 3.5 7.7969
    endloop
  endfacet
  facet normal -0.0627905 1.26632e-16 0.998027
    outer loop
      vertex -1.48734 3.5 7.7969
      vertex -1.48734 -3.5 7.7969
      vertex 0.4984 -3.5 7.92184
    endloop
  endfacet
  facet normal -0.0627905 1.26632e-16 0.998027
    outer loop
      vertex 0.4984 3.5 7.92184
      vertex -1.48734 3.5 7.7969
      vertex 0.4984 -3.5 7.92184
    endloop
  endfacet
  facet normal -2.81969e-17 -1 2.23198e-16
    outer loop
      vertex -7.87491 -3.5 0.994833
      vertex -7.87491 -3.5 -0.994833
      vertex -7.3801 -3.5 -2.92199
    endloop
  endfacet
  facet normal -1.03789e-16 -1 2.08719e-16
    outer loop
      vertex -5.05955 -3.5 -6.11595
      vertex -7.87491 -3.5 0.994833
      vertex -6.42157 -3.5 -4.66554
    endloop
  endfacet
  facet normal -6.59931e-17 -1 2.18423e-16
    outer loop
      vertex -6.42157 -3.5 -4.66554
      vertex -7.87491 -3.5 0.994833
      vertex -7.3801 -3.5 -2.92199
    endloop
  endfacet
  facet normal 2.11737e-16 -1 3.33644e-16
    outer loop
      vertex -3.37962 -3.5 -7.18206
      vertex -7.87491 -3.5 0.994833
      vertex -5.05955 -3.5 -6.11595
    endloop
  endfacet
  facet normal 8.59363e-17 -1 2.64485e-16
    outer loop
      vertex -1.48734 -3.5 -7.7969
      vertex -7.87491 -3.5 0.994833
      vertex -3.37962 -3.5 -7.18206
    endloop
  endfacet
  facet normal 1.33207e-17 -1 2.11726e-16
    outer loop
      vertex 0.4984 -3.5 -7.92184
      vertex -7.87491 -3.5 0.994833
      vertex -1.48734 -3.5 -7.7969
    endloop
  endfacet
  facet normal -3.22294e-17 -1 1.68952e-16
    outer loop
      vertex 2.45282 -3.5 -7.54901
      vertex -7.87491 -3.5 0.994833
      vertex 0.4984 -3.5 -7.92184
    endloop
  endfacet
  facet normal -6.23626e-17 -1 1.32527e-16
    outer loop
      vertex 4.25312 -3.5 -6.70185
      vertex -7.87491 -3.5 0.994833
      vertex 2.45282 -3.5 -7.54901
    endloop
  endfacet
  facet normal 4.28657e-17 -1 2.98341e-16
    outer loop
      vertex 5.78619 -3.5 -5.43359
      vertex -7.87491 -3.5 0.994833
      vertex 4.25312 -3.5 -6.70185
    endloop
  endfacet
  facet normal 2.40708e-17 -1 2.58399e-16
    outer loop
      vertex 6.95568 -3.5 -3.82392
      vertex -7.87491 -3.5 0.994833
      vertex 5.78619 -3.5 -5.43359
    endloop
  endfacet
  facet normal 1.60462e-17 -1 2.33702e-16
    outer loop
      vertex 7.68813 -3.5 -1.97398
      vertex -7.87491 -3.5 0.994833
      vertex 6.95568 -3.5 -3.82392
    endloop
  endfacet
  facet normal -2.78634e-17 -1 3.51996e-18
    outer loop
      vertex 7.9375 -3.5 7.77156e-16
      vertex -7.87491 -3.5 0.994833
      vertex 7.68813 -3.5 -1.97398
    endloop
  endfacet
  facet normal -1.40424e-17 -1 2.23198e-16
    outer loop
      vertex 7.68813 -3.5 1.97398
      vertex -7.87491 -3.5 0.994833
      vertex 7.9375 -3.5 7.77156e-16
    endloop
  endfacet
  facet normal -1.47359e-17 -1 2.34221e-16
    outer loop
      vertex 6.95568 -3.5 3.82392
      vertex -7.87491 -3.5 0.994833
      vertex 7.68813 -3.5 1.97398
    endloop
  endfacet
  facet normal -1.9923e-17 -1 2.61413e-16
    outer loop
      vertex 5.78619 -3.5 5.43359
      vertex -7.87491 -3.5 0.994833
      vertex 6.95568 -3.5 3.82392
    endloop
  endfacet
  facet normal -3.50078e-17 -1 3.07839e-16
    outer loop
      vertex 4.25312 -3.5 6.70185
      vertex -7.87491 -3.5 0.994833
      vertex 5.78619 -3.5 5.43359
    endloop
  endfacet
  facet normal 5.49251e-17 -1 1.16722e-16
    outer loop
      vertex 2.45282 -3.5 7.54901
      vertex -7.87491 -3.5 0.994833
      vertex 4.25312 -3.5 6.70185
    endloop
  endfacet
  facet normal 2.9814e-17 -1 1.56291e-16
    outer loop
      vertex 0.4984 -3.5 7.92184
      vertex -7.87491 -3.5 0.994833
      vertex 2.45282 -3.5 7.54901
    endloop
  endfacet
  facet normal -1.30963e-17 -1 2.0816e-16
    outer loop
      vertex -1.48734 -3.5 7.7969
      vertex -7.87491 -3.5 0.994833
      vertex 0.4984 -3.5 7.92184
    endloop
  endfacet
  facet normal -9.15833e-17 -1 2.81864e-16
    outer loop
      vertex -3.37962 -3.5 7.18206
      vertex -7.87491 -3.5 0.994833
      vertex -1.48734 -3.5 7.7969
    endloop
  endfacet
  facet normal -2.53561e-16 -1 3.99548e-16
    outer loop
      vertex -5.05955 -3.5 6.11595
      vertex -7.87491 -3.5 0.994833
      vertex -3.37962 -3.5 7.18206
    endloop
  endfacet
  facet normal 1.18239e-16 -1 1.95149e-16
    outer loop
      vertex -6.42157 -3.5 4.66554
      vertex -7.87491 -3.5 0.994833
      vertex -5.05955 -3.5 6.11595
    endloop
  endfacet
  facet normal 8.28178e-17 -1 2.09174e-16
    outer loop
      vertex -7.3801 -3.5 2.92199
      vertex -7.87491 -3.5 0.994833
      vertex -6.42157 -3.5 4.66554
    endloop
  endfacet
  facet normal -0.179135 -0.115123 -0.977066
    outer loop
      vertex -1.48734 -3.5 -7.7969
      vertex -13.1811 -2.86748 -5.7275
      vertex -12.0881 -1.92038 -6.03948
    endloop
  endfacet
  facet normal -0.0627905 -1.26632e-16 -0.998027
    outer loop
      vertex -1.48734 -3.5 -7.7969
      vertex -1.48734 3.5 -7.7969
      vertex 0.4984 -3.5 -7.92184
    endloop
  endfacet
  facet normal -0.0627905 -1.26632e-16 -0.998027
    outer loop
      vertex 0.4984 -3.5 -7.92184
      vertex -1.48734 3.5 -7.7969
      vertex 0.4984 3.5 -7.92184
    endloop
  endfacet
  facet normal -0.163551 -2.52731e-14 -0.986535
    outer loop
      vertex -12.0881 -1.92038 -6.03948
      vertex -12.0556 -1.89224 -6.04487
      vertex -1.48734 -3.5 -7.7969
    endloop
  endfacet
  facet normal -0.163551 -1.4639e-16 -0.986535
    outer loop
      vertex -1.48734 -3.5 -7.7969
      vertex -12.0556 -1.89224 -6.04487
      vertex -11.5 0 -6.13698
    endloop
  endfacet
  facet normal -0.163551 3.68673e-16 -0.986535
    outer loop
      vertex -11.5 0 -6.13698
      vertex -11.7281 0.776917 -6.09916
      vertex -1.48734 -3.5 -7.7969
    endloop
  endfacet
  facet normal -0.163551 -1.25174e-16 -0.986535
    outer loop
      vertex -1.48734 -3.5 -7.7969
      vertex -11.7281 0.776917 -6.09916
      vertex -1.48734 3.5 -7.7969
    endloop
  endfacet
  facet normal 0.959493 -0.281733 0
    outer loop
      vertex -12.0556 -1.89224 -6.04487
      vertex -12.0556 -1.89224 -33.4741
      vertex -11.7895 -0.986064 -32.8918
    endloop
  endfacet
  facet normal 0.959493 -0.281733 7.36401e-17
    outer loop
      vertex -11.5 0 -32.8918
      vertex -12.0556 -1.89224 -6.04487
      vertex -11.7895 -0.986064 -32.8918
    endloop
  endfacet
  facet normal 0.959493 -0.281733 0
    outer loop
      vertex -11.5 0 -32.8918
      vertex -11.5 0 -6.13698
      vertex -12.0556 -1.89224 -6.04487
    endloop
  endfacet
  facet normal -2.34765e-16 -0.54064 0.841254
    outer loop
      vertex -12.0556 -1.89224 -33.4741
      vertex -12.9245 -2.64512 -33.958
      vertex 12.708 -2.64512 -33.958
    endloop
  endfacet
  facet normal 0 -0.54064 0.841254
    outer loop
      vertex -11.7895 -0.986064 -32.8918
      vertex -12.0556 -1.89224 -33.4741
      vertex 11.6418 -0.986064 -32.8918
    endloop
  endfacet
  facet normal -1.32241e-16 -0.54064 0.841254
    outer loop
      vertex 11.6418 -0.986064 -32.8918
      vertex -12.0556 -1.89224 -33.4741
      vertex 12.708 -2.64512 -33.958
    endloop
  endfacet
  facet normal -0.841254 -0.54064 -0
    outer loop
      vertex 11.6418 -0.986064 -32.8918
      vertex 12.708 -2.64512 -33.958
      vertex 11.6418 -0.986064 -6.11316
    endloop
  endfacet
  facet normal -0.841254 -0.54064 0
    outer loop
      vertex 12.544 -2.38992 -5.90445
      vertex 12.708 -2.64512 -33.958
      vertex 12.708 -2.64512 -5.81852
    endloop
  endfacet
  facet normal -0.841254 -0.54064 -4.60777e-18
    outer loop
      vertex 11.8402 -1.29484 -6.08095
      vertex 12.708 -2.64512 -33.958
      vertex 12.544 -2.38992 -5.90445
    endloop
  endfacet
  facet normal -0.841254 -0.54064 1.51222e-16
    outer loop
      vertex 11.6418 -0.986064 -6.11316
      vertex 12.708 -2.64512 -33.958
      vertex 11.8402 -1.29484 -6.08095
    endloop
  endfacet
  facet normal -0.415415 -0.909632 0
    outer loop
      vertex 12.708 -2.64512 -38.3255
      vertex 12.708 -2.64512 -46.25
      vertex 14.5019 -3.46437 -46.25
    endloop
  endfacet
  facet normal -0.415415 -0.909632 6.61022e-17
    outer loop
      vertex 13.8873 -3.18371 -37.704
      vertex 12.708 -2.64512 -38.3255
      vertex 14.5019 -3.46437 -46.25
    endloop
  endfacet
  facet normal -0.415415 -0.909632 0
    outer loop
      vertex 12.708 -2.64512 -5.81852
      vertex 12.708 -2.64512 -33.958
      vertex 13.9941 -3.23247 -5.45046
    endloop
  endfacet
  facet normal -0.415415 -0.909632 0
    outer loop
      vertex 14.5019 -3.46437 -5
      vertex 14 -3.23517 -35.25
      vertex 14.5019 -3.46437 -46.25
    endloop
  endfacet
  facet normal -0.415415 -0.909632 -3.5205e-16
    outer loop
      vertex 14 -3.23517 -35.25
      vertex 14 -3.23517 -37.3461
      vertex 14.5019 -3.46437 -46.25
    endloop
  endfacet
  facet normal -0.415415 -0.909632 2.18141e-16
    outer loop
      vertex 14 -3.23517 -37.3461
      vertex 13.8873 -3.18371 -37.704
      vertex 14.5019 -3.46437 -46.25
    endloop
  endfacet
  facet normal -0.415415 -0.909632 2.01367e-16
    outer loop
      vertex 12.708 -2.64512 -33.958
      vertex 14.0083 -3.23896 -5.44525
      vertex 13.9941 -3.23247 -5.45046
    endloop
  endfacet
  facet normal -0.415415 -0.909632 2.45138e-17
    outer loop
      vertex 12.708 -2.64512 -33.958
      vertex 14.5019 -3.46437 -5
      vertex 14.0083 -3.23896 -5.44525
    endloop
  endfacet
  facet normal -0.415415 -0.909632 0
    outer loop
      vertex 12.708 -2.64512 -33.958
      vertex 14 -3.23517 -35.25
      vertex 14.5019 -3.46437 -5
    endloop
  endfacet
  facet normal 1 -1.85569e-15 8.47465e-16
    outer loop
      vertex 14 -3.23517 -37.3461
      vertex 14 -3.23517 -35.25
      vertex 14 -3.46437 -35.7519
    endloop
  endfacet
  facet normal -0.841254 -0.54064 -0
    outer loop
      vertex 11.6418 -0.986064 -46.25
      vertex 12.708 -2.64512 -46.25
      vertex 11.6418 -0.986064 -39.4605
    endloop
  endfacet
  facet normal -0.841254 -0.54064 0
    outer loop
      vertex 12.2241 -1.89224 -39.1944
      vertex 12.708 -2.64512 -46.25
      vertex 12.708 -2.64512 -38.3255
    endloop
  endfacet
  facet normal -0.841254 -0.54064 6.12127e-17
    outer loop
      vertex 11.6418 -0.986064 -39.4605
      vertex 12.708 -2.64512 -46.25
      vertex 12.2241 -1.89224 -39.1944
    endloop
  endfacet
  facet normal -1 -0 -0
    outer loop
      vertex 11.6418 -0.986064 -46.25
      vertex 11.6418 -0.986064 -39.4605
      vertex 11.6418 0.986064 -46.25
    endloop
  endfacet
  facet normal -1 0 0
    outer loop
      vertex 11.6418 0.986064 -46.25
      vertex 11.6418 -0.986064 -39.4605
      vertex 11.6418 0 -39.75
    endloop
  endfacet
  facet normal -1 0 0
    outer loop
      vertex 11.6418 0.986064 -46.25
      vertex 11.6418 0 -39.75
      vertex 11.6418 0.986064 -39.4605
    endloop
  endfacet
  facet normal -0.841254 0.54064 0
    outer loop
      vertex 11.6418 0.986064 -46.25
      vertex 11.6418 0.986064 -39.4605
      vertex 12.708 2.64512 -46.25
    endloop
  endfacet
  facet normal -0.841254 0.54064 4.40696e-17
    outer loop
      vertex 12.708 2.64512 -46.25
      vertex 11.6418 0.986064 -39.4605
      vertex 12.2241 1.89224 -39.1944
    endloop
  endfacet
  facet normal -0.841254 0.54064 0
    outer loop
      vertex 12.708 2.64512 -46.25
      vertex 12.2241 1.89224 -39.1944
      vertex 12.708 2.64512 -38.3255
    endloop
  endfacet
  facet normal -0.415415 0.909632 0
    outer loop
      vertex 12.708 2.64512 -46.25
      vertex 12.708 2.64512 -38.3255
      vertex 14.5019 3.46437 -46.25
    endloop
  endfacet
  facet normal -0.415415 0.909632 6.61022e-17
    outer loop
      vertex 14.5019 3.46437 -46.25
      vertex 12.708 2.64512 -38.3255
      vertex 13.8873 3.18371 -37.704
    endloop
  endfacet
  facet normal -0.415415 0.909632 2.24752e-16
    outer loop
      vertex 14.5019 3.46437 -46.25
      vertex 13.8873 3.18371 -37.704
      vertex 14 3.23517 -37.3461
    endloop
  endfacet
  facet normal -0.415415 0.909632 -3.5205e-16
    outer loop
      vertex 14 3.23517 -37.3461
      vertex 14 3.23517 -35.25
      vertex 14.5019 3.46437 -46.25
    endloop
  endfacet
  facet normal -0.415415 0.909632 0
    outer loop
      vertex 14 3.23517 -35.25
      vertex 12.708 2.64512 -33.958
      vertex 12.708 2.64512 -5.81852
    endloop
  endfacet
  facet normal -0.415415 0.909632 0
    outer loop
      vertex 14 3.23517 -35.25
      vertex 12.708 2.64512 -5.81852
      vertex 14.5019 3.46437 -46.25
    endloop
  endfacet
  facet normal -0.415415 0.909632 -1.55875e-18
    outer loop
      vertex 14.5019 3.46437 -46.25
      vertex 12.708 2.64512 -5.81852
      vertex 13.9941 3.23247 -5.45046
    endloop
  endfacet
  facet normal -0.415415 0.909632 -7.05269e-17
    outer loop
      vertex 14.5019 3.46437 -46.25
      vertex 13.9941 3.23247 -5.45046
      vertex 14.0083 3.23896 -5.44525
    endloop
  endfacet
  facet normal -0.415415 0.909632 0
    outer loop
      vertex 14.0083 3.23896 -5.44525
      vertex 14.5019 3.46437 -5
      vertex 14.5019 3.46437 -46.25
    endloop
  endfacet
  facet normal 1 1.85569e-15 8.47465e-16
    outer loop
      vertex 14 3.46437 -35.7519
      vertex 14 3.23517 -35.25
      vertex 14 3.23517 -37.3461
    endloop
  endfacet
  facet normal -0.841254 0.54064 0
    outer loop
      vertex 11.6418 0.986064 -32.8918
      vertex 11.6418 0.986064 -6.11316
      vertex 12.708 2.64512 -33.958
    endloop
  endfacet
  facet normal -0.841254 0.54064 -3.27723e-17
    outer loop
      vertex 12.708 2.64512 -33.958
      vertex 11.6418 0.986064 -6.11316
      vertex 11.8402 1.29484 -6.08095
    endloop
  endfacet
  facet normal -0.841254 0.54064 1.98318e-17
    outer loop
      vertex 12.708 2.64512 -33.958
      vertex 11.8402 1.29484 -6.08095
      vertex 12.544 2.38992 -5.90445
    endloop
  endfacet
  facet normal -0.841254 0.54064 0
    outer loop
      vertex 12.544 2.38992 -5.90445
      vertex 12.708 2.64512 -5.81852
      vertex 12.708 2.64512 -33.958
    endloop
  endfacet
  facet normal -2.33199e-16 0.54064 0.841254
    outer loop
      vertex 12.708 2.64512 -33.958
      vertex -12.9245 2.64512 -33.958
      vertex -12.0556 1.89224 -33.4741
    endloop
  endfacet
  facet normal -2.3693e-16 0.54064 0.841254
    outer loop
      vertex -11.7895 0.986064 -32.8918
      vertex 12.708 2.64512 -33.958
      vertex -12.0556 1.89224 -33.4741
    endloop
  endfacet
  facet normal 0 0.54064 0.841254
    outer loop
      vertex -11.7895 0.986064 -32.8918
      vertex 11.6418 0.986064 -32.8918
      vertex 12.708 2.64512 -33.958
    endloop
  endfacet
  facet normal 0.959493 0.281733 0
    outer loop
      vertex -11.7895 0.986064 -32.8918
      vertex -12.0556 1.89224 -33.4741
      vertex -12.0556 1.89224 -6.04487
    endloop
  endfacet
  facet normal 0.959493 0.281733 5.54284e-17
    outer loop
      vertex -11.5 0 -6.13698
      vertex -11.7895 0.986064 -32.8918
      vertex -11.7281 0.776917 -6.09916
    endloop
  endfacet
  facet normal 0.959493 0.281733 4.99609e-17
    outer loop
      vertex -11.7281 0.776917 -6.09916
      vertex -11.7895 0.986064 -32.8918
      vertex -12.0556 1.89224 -6.04487
    endloop
  endfacet
  facet normal 0.959493 0.281733 0
    outer loop
      vertex -11.5 0 -32.8918
      vertex -11.7895 0.986064 -32.8918
      vertex -11.5 0 -6.13698
    endloop
  endfacet
  facet normal -0.163551 -1.30664e-15 -0.986535
    outer loop
      vertex -12.0881 1.92038 -6.03948
      vertex -1.48734 3.5 -7.7969
      vertex -12.0556 1.89224 -6.04487
    endloop
  endfacet
  facet normal -0.163551 3.88067e-17 -0.986535
    outer loop
      vertex -12.0556 1.89224 -6.04487
      vertex -1.48734 3.5 -7.7969
      vertex -11.7281 0.776917 -6.09916
    endloop
  endfacet
  facet normal -0.179135 0.115123 -0.977066
    outer loop
      vertex -12.0881 1.92038 -6.03948
      vertex -13.1811 2.86748 -5.7275
      vertex -1.48734 3.5 -7.7969
    endloop
  endfacet
  facet normal 2.81969e-17 1 -2.23198e-16
    outer loop
      vertex -7.87491 3.5 -0.994833
      vertex -7.87491 3.5 0.994833
      vertex -7.3801 3.5 -2.92199
    endloop
  endfacet
  facet normal -9.60005e-18 1 -2.27973e-16
    outer loop
      vertex -7.3801 3.5 -2.92199
      vertex -7.87491 3.5 0.994833
      vertex -7.3801 3.5 2.92199
    endloop
  endfacet
  facet normal -4.86224e-17 1 -2.27973e-16
    outer loop
      vertex -7.3801 3.5 -2.92199
      vertex -7.3801 3.5 2.92199
      vertex -6.42157 3.5 4.66554
    endloop
  endfacet
  facet normal -8.86736e-17 1 -2.22913e-16
    outer loop
      vertex -7.3801 3.5 -2.92199
      vertex -6.42157 3.5 4.66554
      vertex -5.05955 3.5 6.11595
    endloop
  endfacet
  facet normal 1.86264e-16 1 -2.93505e-16
    outer loop
      vertex -7.3801 3.5 -2.92199
      vertex -5.05955 3.5 6.11595
      vertex -3.37962 3.5 7.18206
    endloop
  endfacet
  facet normal 8.19455e-17 1 -2.52202e-16
    outer loop
      vertex -7.3801 3.5 -2.92199
      vertex -3.37962 3.5 7.18206
      vertex -1.48734 3.5 7.7969
    endloop
  endfacet
  facet normal 1.34998e-17 1 -2.14574e-16
    outer loop
      vertex -7.3801 3.5 -2.92199
      vertex -1.48734 3.5 7.7969
      vertex 0.4984 3.5 7.92184
    endloop
  endfacet
  facet normal -3.43065e-17 1 -1.79841e-16
    outer loop
      vertex -7.3801 3.5 -2.92199
      vertex 0.4984 3.5 7.92184
      vertex 2.45282 3.5 7.54901
    endloop
  endfacet
  facet normal -6.92052e-17 1 -1.47069e-16
    outer loop
      vertex -7.3801 3.5 -2.92199
      vertex 2.45282 3.5 7.54901
      vertex 4.25312 3.5 6.70185
    endloop
  endfacet
  facet normal 4.94017e-17 1 -2.9044e-16
    outer loop
      vertex -7.3801 3.5 -2.92199
      vertex 4.25312 3.5 6.70185
      vertex 5.78619 3.5 5.43359
    endloop
  endfacet
  facet normal 2.74912e-17 1 -2.55914e-16
    outer loop
      vertex -7.3801 3.5 -2.92199
      vertex 5.78619 3.5 5.43359
      vertex 6.95568 3.5 3.82392
    endloop
  endfacet
  facet normal 1.68831e-17 1 -2.33371e-16
    outer loop
      vertex -7.3801 3.5 -2.92199
      vertex 6.95568 3.5 3.82392
      vertex 7.68813 3.5 1.97398
    endloop
  endfacet
  facet normal -5.66197e-17 1 -7.15273e-18
    outer loop
      vertex -7.3801 3.5 -2.92199
      vertex 7.68813 3.5 1.97398
      vertex 7.9375 3.5 -7.77156e-16
    endloop
  endfacet
  facet normal -1.54406e-17 1 -2.23021e-16
    outer loop
      vertex -7.3801 3.5 -2.92199
      vertex 7.9375 3.5 -7.77156e-16
      vertex 7.68813 3.5 -1.97398
    endloop
  endfacet
  facet normal -1.47359e-17 1 -2.34221e-16
    outer loop
      vertex -7.3801 3.5 -2.92199
      vertex 7.68813 3.5 -1.97398
      vertex 6.95568 3.5 -3.82392
    endloop
  endfacet
  facet normal -1.65987e-17 1 -2.63828e-16
    outer loop
      vertex -7.3801 3.5 -2.92199
      vertex 6.95568 3.5 -3.82392
      vertex 5.78619 3.5 -5.43359
    endloop
  endfacet
  facet normal -2.68706e-17 1 -3.17675e-16
    outer loop
      vertex -7.3801 3.5 -2.92199
      vertex 5.78619 3.5 -5.43359
      vertex 4.25312 3.5 -6.70185
    endloop
  endfacet
  facet normal 4.51635e-17 1 -9.59773e-17
    outer loop
      vertex -7.3801 3.5 -2.92199
      vertex 4.25312 3.5 -6.70185
      vertex 2.45282 3.5 -7.54901
    endloop
  endfacet
  facet normal 2.6055e-17 1 -1.36585e-16
    outer loop
      vertex -7.3801 3.5 -2.92199
      vertex 2.45282 3.5 -7.54901
      vertex 0.4984 3.5 -7.92184
    endloop
  endfacet
  facet normal -1.24061e-17 1 -1.9719e-16
    outer loop
      vertex -7.3801 3.5 -2.92199
      vertex 0.4984 3.5 -7.92184
      vertex -1.48734 3.5 -7.7969
    endloop
  endfacet
  facet normal -9.74874e-17 1 -3.00036e-16
    outer loop
      vertex -7.3801 3.5 -2.92199
      vertex -1.48734 3.5 -7.7969
      vertex -3.37962 3.5 -7.18206
    endloop
  endfacet
  facet normal -3.2746e-16 1 -5.15994e-16
    outer loop
      vertex -7.3801 3.5 -2.92199
      vertex -3.37962 3.5 -7.18206
      vertex -5.05955 3.5 -6.11595
    endloop
  endfacet
  facet normal 1.32235e-16 1 -1.82006e-16
    outer loop
      vertex -7.3801 3.5 -2.92199
      vertex -5.05955 3.5 -6.11595
      vertex -6.42157 3.5 -4.66554
    endloop
  endfacet
  facet normal -0.179135 0.115123 0.977066
    outer loop
      vertex -1.48734 3.5 7.7969
      vertex -13.1811 2.86748 5.7275
      vertex -12.0881 1.92038 6.03948
    endloop
  endfacet
  facet normal 0.654861 0.755749 0
    outer loop
      vertex -13.546 3.18371 5.51523
      vertex -13.546 3.18371 34.796
      vertex -13.1811 2.86748 5.7275
    endloop
  endfacet
  facet normal 0.654861 0.755749 5.6644e-18
    outer loop
      vertex -13.1811 2.86748 5.7275
      vertex -13.546 3.18371 34.796
      vertex -12.0556 1.89224 33.3056
    endloop
  endfacet
  facet normal 0.654861 0.755749 0
    outer loop
      vertex -12.0881 1.92038 6.03948
      vertex -12.0556 1.89224 33.3056
      vertex -12.0556 1.89224 6.04487
    endloop
  endfacet
  facet normal 0.654861 0.755749 2.09178e-17
    outer loop
      vertex -13.1811 2.86748 5.7275
      vertex -12.0556 1.89224 33.3056
      vertex -12.0881 1.92038 6.03948
    endloop
  endfacet
  facet normal 3.61145e-17 0.989821 -0.142315
    outer loop
      vertex -14 3.46437 36.7481
      vertex 14 3.46437 36.7481
      vertex -14 3.24898 35.25
    endloop
  endfacet
  facet normal 3.24555e-17 0.989821 -0.142315
    outer loop
      vertex -14 3.24898 35.25
      vertex 14 3.46437 36.7481
      vertex 14 3.23517 35.1539
    endloop
  endfacet
  facet normal 3.1584e-17 0.989821 -0.142315
    outer loop
      vertex -14 3.24898 35.25
      vertex 14 3.23517 35.1539
      vertex 13.8873 3.18371 34.796
    endloop
  endfacet
  facet normal 3.6441e-17 0.989821 -0.142315
    outer loop
      vertex -14 3.24898 35.25
      vertex 13.8873 3.18371 34.796
      vertex -13.546 3.18371 34.796
    endloop
  endfacet
  facet normal 1.69613e-16 0.755749 -0.654861
    outer loop
      vertex -13.546 3.18371 34.796
      vertex 13.8873 3.18371 34.796
      vertex -12.0556 1.89224 33.3056
    endloop
  endfacet
  facet normal -3.0707e-17 0.755749 -0.654861
    outer loop
      vertex -12.0556 1.89224 33.3056
      vertex 13.8873 3.18371 34.796
      vertex 12.708 2.64512 34.1745
    endloop
  endfacet
  facet normal 1.91644e-16 0.755749 -0.654861
    outer loop
      vertex -12.0556 1.89224 33.3056
      vertex 12.708 2.64512 34.1745
      vertex 12.2241 1.89224 33.3056
    endloop
  endfacet
  facet normal -1 -1.97471e-15 -9.01818e-16
    outer loop
      vertex -14 3.24898 35.25
      vertex -14 3.24898 37.2198
      vertex -14 3.46437 36.7481
    endloop
  endfacet
  facet normal -1.52143e-15 0.909632 0.415415
    outer loop
      vertex -14 3.24898 37.2198
      vertex -13.546 3.18371 37.3627
      vertex -14 3.46437 36.7481
    endloop
  endfacet
  facet normal -1.15155e-16 0.909632 0.415415
    outer loop
      vertex 12.708 2.64512 38.542
      vertex -13.546 3.18371 37.3627
      vertex -12.9245 2.64512 38.542
    endloop
  endfacet
  facet normal -6.76456e-17 0.909632 0.415415
    outer loop
      vertex -14 3.46437 36.7481
      vertex -13.546 3.18371 37.3627
      vertex 12.708 2.64512 38.542
    endloop
  endfacet
  facet normal -6.29902e-17 0.909632 0.415415
    outer loop
      vertex -14 3.46437 36.7481
      vertex 12.708 2.64512 38.542
      vertex 14 3.23517 37.25
    endloop
  endfacet
  facet normal -1.05418e-16 0.909632 0.415415
    outer loop
      vertex -14 3.46437 36.7481
      vertex 14 3.23517 37.25
      vertex 14 3.46437 36.7481
    endloop
  endfacet
  facet normal -2.33199e-16 0.54064 0.841254
    outer loop
      vertex 12.708 2.64512 38.542
      vertex -12.9245 2.64512 38.542
      vertex -12.0556 1.89224 39.0259
    endloop
  endfacet
  facet normal -2.3693e-16 0.54064 0.841254
    outer loop
      vertex -11.7895 0.986064 39.6082
      vertex 12.708 2.64512 38.542
      vertex -12.0556 1.89224 39.0259
    endloop
  endfacet
  facet normal 0 0.54064 0.841254
    outer loop
      vertex -11.7895 0.986064 39.6082
      vertex 11.6418 0.986064 39.6082
      vertex 12.708 2.64512 38.542
    endloop
  endfacet
  facet normal 0 -0 1
    outer loop
      vertex -11.5 0 39.6082
      vertex -11.7895 -0.986064 39.6082
      vertex 11.6418 -0.986064 39.6082
    endloop
  endfacet
  facet normal 0 0 1
    outer loop
      vertex -11.7895 0.986064 39.6082
      vertex -11.5 0 39.6082
      vertex 11.6418 0.986064 39.6082
    endloop
  endfacet
  facet normal 0 0 1
    outer loop
      vertex 11.6418 0.986064 39.6082
      vertex -11.5 0 39.6082
      vertex 11.6418 -0.986064 39.6082
    endloop
  endfacet
  facet normal -2.34765e-16 -0.54064 0.841254
    outer loop
      vertex -12.0556 -1.89224 39.0259
      vertex -12.9245 -2.64512 38.542
      vertex 12.708 -2.64512 38.542
    endloop
  endfacet
  facet normal 0 -0.54064 0.841254
    outer loop
      vertex -11.7895 -0.986064 39.6082
      vertex -12.0556 -1.89224 39.0259
      vertex 11.6418 -0.986064 39.6082
    endloop
  endfacet
  facet normal -1.32241e-16 -0.54064 0.841254
    outer loop
      vertex 11.6418 -0.986064 39.6082
      vertex -12.0556 -1.89224 39.0259
      vertex 12.708 -2.64512 38.542
    endloop
  endfacet
  facet normal -0.841254 -0.54064 -0
    outer loop
      vertex 11.6418 -0.986064 39.6082
      vertex 12.708 -2.64512 38.542
      vertex 11.6418 -0.986064 46.25
    endloop
  endfacet
  facet normal -0.841254 -0.54064 0
    outer loop
      vertex 11.6418 -0.986064 46.25
      vertex 12.708 -2.64512 38.542
      vertex 12.708 -2.64512 46.25
    endloop
  endfacet
  facet normal -0.415415 -0.909632 0
    outer loop
      vertex 12.708 -2.64512 34.1745
      vertex 12.708 -2.64512 5.81852
      vertex 13.9941 -3.23247 5.45046
    endloop
  endfacet
  facet normal -0.415415 -0.909632 -4.31099e-16
    outer loop
      vertex 14.0083 -3.23896 5.44525
      vertex 12.708 -2.64512 34.1745
      vertex 13.9941 -3.23247 5.45046
    endloop
  endfacet
  facet normal -0.415415 -0.909632 2.09462e-17
    outer loop
      vertex 14.0083 -3.23896 5.44525
      vertex 14.5019 -3.46437 5
      vertex 12.708 -2.64512 34.1745
    endloop
  endfacet
  facet normal -0.415415 -0.909632 0
    outer loop
      vertex 14.5019 -3.46437 46.25
      vertex 12.708 -2.64512 46.25
      vertex 12.708 -2.64512 38.542
    endloop
  endfacet
  facet normal -0.415415 -0.909632 -0
    outer loop
      vertex 14.5019 -3.46437 5
      vertex 14.5019 -3.46437 46.25
      vertex 14 -3.23517 37.25
    endloop
  endfacet
  facet normal -0.415415 -0.909632 -3.53443e-16
    outer loop
      vertex 14.5019 -3.46437 5
      vertex 14 -3.23517 37.25
      vertex 14 -3.23517 35.1539
    endloop
  endfacet
  facet normal -0.415415 -0.909632 1.47894e-17
    outer loop
      vertex 14.5019 -3.46437 5
      vertex 13.8873 -3.18371 34.796
      vertex 12.708 -2.64512 34.1745
    endloop
  endfacet
  facet normal -0.415415 -0.909632 7.52079e-17
    outer loop
      vertex 14.5019 -3.46437 5
      vertex 14 -3.23517 35.1539
      vertex 13.8873 -3.18371 34.796
    endloop
  endfacet
  facet normal -0.415415 -0.909632 -1.52732e-17
    outer loop
      vertex 12.708 -2.64512 38.542
      vertex 14 -3.23517 37.25
      vertex 14.5019 -3.46437 46.25
    endloop
  endfacet
  facet normal 1 -1.85569e-15 8.47465e-16
    outer loop
      vertex 14 -3.23517 35.1539
      vertex 14 -3.23517 37.25
      vertex 14 -3.46437 36.7481
    endloop
  endfacet
  facet normal -0.841254 -0.54064 -0
    outer loop
      vertex 11.6418 -0.986064 6.11316
      vertex 11.8402 -1.29484 6.08095
      vertex 11.6418 -0.986064 33.0395
    endloop
  endfacet
  facet normal -0.841254 -0.54064 9.1163e-18
    outer loop
      vertex 11.6418 -0.986064 33.0395
      vertex 11.8402 -1.29484 6.08095
      vertex 12.544 -2.38992 5.90445
    endloop
  endfacet
  facet normal -0.841254 -0.54064 -9.87008e-17
    outer loop
      vertex 12.544 -2.38992 5.90445
      vertex 12.708 -2.64512 5.81852
      vertex 11.6418 -0.986064 33.0395
    endloop
  endfacet
  facet normal -0.841254 -0.54064 0
    outer loop
      vertex 12.2241 -1.89224 33.3056
      vertex 12.708 -2.64512 5.81852
      vertex 12.708 -2.64512 34.1745
    endloop
  endfacet
  facet normal -0.841254 -0.54064 1.61501e-17
    outer loop
      vertex 11.6418 -0.986064 33.0395
      vertex 12.708 -2.64512 5.81852
      vertex 12.2241 -1.89224 33.3056
    endloop
  endfacet
  facet normal 2.80794e-16 -0.281733 -0.959493
    outer loop
      vertex -12.0556 -1.89224 33.3056
      vertex -11.5 0 32.75
      vertex 12.2241 -1.89224 33.3056
    endloop
  endfacet
  facet normal 2.95413e-16 -0.281733 -0.959493
    outer loop
      vertex 11.6418 -0.986064 33.0395
      vertex -11.5 0 32.75
      vertex 11.6418 0 32.75
    endloop
  endfacet
  facet normal 2.81324e-16 -0.281733 -0.959493
    outer loop
      vertex 12.2241 -1.89224 33.3056
      vertex -11.5 0 32.75
      vertex 11.6418 -0.986064 33.0395
    endloop
  endfacet
  facet normal 0.959493 -0.281733 0
    outer loop
      vertex -12.0556 -1.89224 33.3056
      vertex -12.0556 -1.89224 6.04487
      vertex -11.7281 -0.776917 6.09916
    endloop
  endfacet
  facet normal 0.959493 -0.281733 -2.90045e-17
    outer loop
      vertex -11.5 0 6.13698
      vertex -12.0556 -1.89224 33.3056
      vertex -11.7281 -0.776917 6.09916
    endloop
  endfacet
  facet normal 0.959493 -0.281733 0
    outer loop
      vertex -11.5 0 6.13698
      vertex -11.5 0 32.75
      vertex -12.0556 -1.89224 33.3056
    endloop
  endfacet
  facet normal 0.959493 0.281733 0
    outer loop
      vertex -11.5 0 6.13698
      vertex -12.0556 1.89224 6.04487
      vertex -12.0556 1.89224 33.3056
    endloop
  endfacet
  facet normal 0.959493 0.281733 -0
    outer loop
      vertex -11.5 0 32.75
      vertex -11.5 0 6.13698
      vertex -12.0556 1.89224 33.3056
    endloop
  endfacet
  facet normal 0.175253 0.353926 0.918707
    outer loop
      vertex 2.45282 3.5 7.54901
      vertex 0.4984 3.5 7.92184
      vertex 13.9941 3.23247 5.45046
    endloop
  endfacet
  facet normal 0.175253 0.353926 0.918707
    outer loop
      vertex 14.0083 3.23896 5.44525
      vertex 2.45282 3.5 7.54901
      vertex 13.9941 3.23247 5.45046
    endloop
  endfacet
  facet normal 0.180178 0.207936 0.961404
    outer loop
      vertex 12.708 2.64512 5.81852
      vertex 0.4984 3.5 7.92184
      vertex 12.544 2.38992 5.90445
    endloop
  endfacet
  facet normal 0.180178 0.207936 0.961404
    outer loop
      vertex 13.9941 3.23247 5.45046
      vertex 0.4984 3.5 7.92184
      vertex 12.708 2.64512 5.81852
    endloop
  endfacet
  facet normal 0.169432 0.0497497 0.984285
    outer loop
      vertex 12.544 2.38992 5.90445
      vertex 0.4984 3.5 7.92184
      vertex 11.8402 1.29484 6.08095
    endloop
  endfacet
  facet normal 0.160213 1.25244e-16 0.987082
    outer loop
      vertex 0.4984 3.5 7.92184
      vertex 0.4984 -3.5 7.92184
      vertex 11.8402 -1.29484 6.08095
    endloop
  endfacet
  facet normal 0.160213 -0 0.987082
    outer loop
      vertex 11.6418 0.986064 6.11316
      vertex 0.4984 3.5 7.92184
      vertex 11.6418 -0.986064 6.11316
    endloop
  endfacet
  facet normal 0.160213 2.95937e-15 0.987082
    outer loop
      vertex 11.6418 -0.986064 6.11316
      vertex 0.4984 3.5 7.92184
      vertex 11.8402 -1.29484 6.08095
    endloop
  endfacet
  facet normal 0.160213 -2.6557e-16 0.987082
    outer loop
      vertex 11.8402 1.29484 6.08095
      vertex 0.4984 3.5 7.92184
      vertex 11.6418 0.986064 6.11316
    endloop
  endfacet
  facet normal 0.169432 -0.0497497 0.984285
    outer loop
      vertex 11.8402 -1.29484 6.08095
      vertex 0.4984 -3.5 7.92184
      vertex 12.544 -2.38992 5.90445
    endloop
  endfacet
  facet normal 0.180178 -0.207936 0.961404
    outer loop
      vertex 12.708 -2.64512 5.81852
      vertex 0.4984 -3.5 7.92184
      vertex 13.9941 -3.23247 5.45046
    endloop
  endfacet
  facet normal 0.180178 -0.207936 0.961404
    outer loop
      vertex 12.544 -2.38992 5.90445
      vertex 0.4984 -3.5 7.92184
      vertex 12.708 -2.64512 5.81852
    endloop
  endfacet
  facet normal 0.175253 -0.353926 0.918707
    outer loop
      vertex 13.9941 -3.23247 5.45046
      vertex 0.4984 -3.5 7.92184
      vertex 2.45282 -3.5 7.54901
    endloop
  endfacet
  facet normal 0.175253 -0.353926 0.918707
    outer loop
      vertex 14.0083 -3.23896 5.44525
      vertex 13.9941 -3.23247 5.45046
      vertex 2.45282 -3.5 7.54901
    endloop
  endfacet
  facet normal 0.00537113 -0.99992 0.0114142
    outer loop
      vertex 14.5019 -3.46437 5
      vertex 2.45282 -3.5 7.54901
      vertex 4.25312 -3.5 6.70185
    endloop
  endfacet
  facet normal 0.118838 -0.826539 0.550192
    outer loop
      vertex 14.0083 -3.23896 5.44525
      vertex 2.45282 -3.5 7.54901
      vertex 14.5019 -3.46437 5
    endloop
  endfacet
  facet normal 0.00434887 -0.999977 0.00525688
    outer loop
      vertex 14.5019 -3.46437 5
      vertex 4.25312 -3.5 6.70185
      vertex 5.78619 -3.5 5.43359
    endloop
  endfacet
  facet normal 0.00424067 -0.999986 0.00308103
    outer loop
      vertex 14.5019 -3.46437 5
      vertex 5.78619 -3.5 5.43359
      vertex 6.95568 -3.5 3.82392
    endloop
  endfacet
  facet normal 0.00444648 -0.999989 0.00176049
    outer loop
      vertex 14.5019 -3.46437 5
      vertex 6.95568 -3.5 3.82392
      vertex 7.68813 -3.5 1.97398
    endloop
  endfacet
  facet normal 0.00495057 -0.999988 0.000625403
    outer loop
      vertex 14.5019 -3.46437 5
      vertex 7.68813 -3.5 1.97398
      vertex 7.9375 -3.5 7.77156e-16
    endloop
  endfacet
  facet normal 0.00542692 -0.999985 0
    outer loop
      vertex 14.5019 -3.46437 5
      vertex 7.9375 -3.5 7.77156e-16
      vertex 14.5019 -3.46437 -5
    endloop
  endfacet
  facet normal 0.00495057 -0.999988 -0.000625403
    outer loop
      vertex 7.9375 -3.5 7.77156e-16
      vertex 7.68813 -3.5 -1.97398
      vertex 14.5019 -3.46437 -5
    endloop
  endfacet
  facet normal 0.00444648 -0.999989 -0.00176049
    outer loop
      vertex 7.68813 -3.5 -1.97398
      vertex 6.95568 -3.5 -3.82392
      vertex 14.5019 -3.46437 -5
    endloop
  endfacet
  facet normal 0.00424067 -0.999986 -0.00308103
    outer loop
      vertex 6.95568 -3.5 -3.82392
      vertex 5.78619 -3.5 -5.43359
      vertex 14.5019 -3.46437 -5
    endloop
  endfacet
  facet normal 0.00434887 -0.999977 -0.00525688
    outer loop
      vertex 5.78619 -3.5 -5.43359
      vertex 4.25312 -3.5 -6.70185
      vertex 14.5019 -3.46437 -5
    endloop
  endfacet
  facet normal 0.00537113 -0.99992 -0.0114142
    outer loop
      vertex 4.25312 -3.5 -6.70185
      vertex 2.45282 -3.5 -7.54901
      vertex 14.5019 -3.46437 -5
    endloop
  endfacet
  facet normal 0.118838 -0.826539 -0.550192
    outer loop
      vertex 14.5019 -3.46437 -5
      vertex 2.45282 -3.5 -7.54901
      vertex 14.0083 -3.23896 -5.44525
    endloop
  endfacet
  facet normal 0.175253 -0.353926 -0.918707
    outer loop
      vertex 0.4984 -3.5 -7.92184
      vertex 13.9941 -3.23247 -5.45046
      vertex 2.45282 -3.5 -7.54901
    endloop
  endfacet
  facet normal 0.175253 -0.353926 -0.918707
    outer loop
      vertex 2.45282 -3.5 -7.54901
      vertex 13.9941 -3.23247 -5.45046
      vertex 14.0083 -3.23896 -5.44525
    endloop
  endfacet
  facet normal 0.180178 -0.207936 -0.961404
    outer loop
      vertex 0.4984 -3.5 -7.92184
      vertex 12.708 -2.64512 -5.81852
      vertex 13.9941 -3.23247 -5.45046
    endloop
  endfacet
  facet normal 0.180178 -0.207936 -0.961404
    outer loop
      vertex 0.4984 -3.5 -7.92184
      vertex 12.544 -2.38992 -5.90445
      vertex 12.708 -2.64512 -5.81852
    endloop
  endfacet
  facet normal 0.169432 -0.0497497 -0.984285
    outer loop
      vertex 12.544 -2.38992 -5.90445
      vertex 0.4984 -3.5 -7.92184
      vertex 11.8402 -1.29484 -6.08095
    endloop
  endfacet
  facet normal 0.160213 -1.25244e-16 -0.987082
    outer loop
      vertex 0.4984 -3.5 -7.92184
      vertex 0.4984 3.5 -7.92184
      vertex 11.8402 -1.29484 -6.08095
    endloop
  endfacet
  facet normal 0.160213 -1.96991e-15 -0.987082
    outer loop
      vertex 11.6418 0.986064 -6.11316
      vertex 0.4984 3.5 -7.92184
      vertex 11.8402 1.29484 -6.08095
    endloop
  endfacet
  facet normal 0.160213 0 -0.987082
    outer loop
      vertex 11.6418 -0.986064 -6.11316
      vertex 0.4984 3.5 -7.92184
      vertex 11.6418 0.986064 -6.11316
    endloop
  endfacet
  facet normal 0.160213 4.74968e-16 -0.987082
    outer loop
      vertex 11.8402 -1.29484 -6.08095
      vertex 0.4984 3.5 -7.92184
      vertex 11.6418 -0.986064 -6.11316
    endloop
  endfacet
  facet normal 0.169432 0.0497497 -0.984285
    outer loop
      vertex 11.8402 1.29484 -6.08095
      vertex 0.4984 3.5 -7.92184
      vertex 12.544 2.38992 -5.90445
    endloop
  endfacet
  facet normal 0.180178 0.207936 -0.961404
    outer loop
      vertex 0.4984 3.5 -7.92184
      vertex 12.708 2.64512 -5.81852
      vertex 12.544 2.38992 -5.90445
    endloop
  endfacet
  facet normal 0.180178 0.207936 -0.961404
    outer loop
      vertex 0.4984 3.5 -7.92184
      vertex 13.9941 3.23247 -5.45046
      vertex 12.708 2.64512 -5.81852
    endloop
  endfacet
  facet normal 0.175253 0.353926 -0.918707
    outer loop
      vertex 0.4984 3.5 -7.92184
      vertex 2.45282 3.5 -7.54901
      vertex 13.9941 3.23247 -5.45046
    endloop
  endfacet
  facet normal 0.175253 0.353926 -0.918707
    outer loop
      vertex 13.9941 3.23247 -5.45046
      vertex 2.45282 3.5 -7.54901
      vertex 14.0083 3.23896 -5.44525
    endloop
  endfacet
  facet normal 0 -0 1
    outer loop
      vertex -11.5 0 -32.8918
      vertex -11.7895 -0.986064 -32.8918
      vertex 11.6418 -0.986064 -32.8918
    endloop
  endfacet
  facet normal 0 0 1
    outer loop
      vertex -11.7895 0.986064 -32.8918
      vertex -11.5 0 -32.8918
      vertex 11.6418 0.986064 -32.8918
    endloop
  endfacet
  facet normal 0 0 1
    outer loop
      vertex 11.6418 0.986064 -32.8918
      vertex -11.5 0 -32.8918
      vertex 11.6418 -0.986064 -32.8918
    endloop
  endfacet
  facet normal -1 -0 -0
    outer loop
      vertex 11.6418 -0.986064 -32.8918
      vertex 11.6418 -0.986064 -6.11316
      vertex 11.6418 0.986064 -32.8918
    endloop
  endfacet
  facet normal -1 0 0
    outer loop
      vertex 11.6418 0.986064 -32.8918
      vertex 11.6418 -0.986064 -6.11316
      vertex 11.6418 0.986064 -6.11316
    endloop
  endfacet
  facet normal 0.142315 -0.989821 0
    outer loop
      vertex 14.5019 -3.46437 -5
      vertex 14.5019 -3.46437 -46.25
      vertex 16.454 -3.18371 -46.25
    endloop
  endfacet
  facet normal 0.142315 -0.989821 0
    outer loop
      vertex 14.5019 -3.46437 5
      vertex 14.5019 -3.46437 -5
      vertex 16.454 -3.18371 46.25
    endloop
  endfacet
  facet normal 0.142315 -0.989821 0
    outer loop
      vertex 16.454 -3.18371 46.25
      vertex 14.5019 -3.46437 -5
      vertex 16.454 -3.18371 -46.25
    endloop
  endfacet
  facet normal 0.142315 -0.989821 0
    outer loop
      vertex 14.5019 -3.46437 46.25
      vertex 14.5019 -3.46437 5
      vertex 16.454 -3.18371 46.25
    endloop
  endfacet
  facet normal -0 -0 -1
    outer loop
      vertex 11.6418 -0.986064 -46.25
      vertex 11.6418 0.986064 -46.25
      vertex 12.708 -2.64512 -46.25
    endloop
  endfacet
  facet normal 0 0 -1
    outer loop
      vertex 12.708 -2.64512 -46.25
      vertex 11.6418 0.986064 -46.25
      vertex 12.708 2.64512 -46.25
    endloop
  endfacet
  facet normal 0 -0 -1
    outer loop
      vertex 12.708 -2.64512 -46.25
      vertex 12.708 2.64512 -46.25
      vertex 14.5019 3.46437 -46.25
    endloop
  endfacet
  facet normal 0 0 -1
    outer loop
      vertex 12.708 -2.64512 -46.25
      vertex 14.5019 3.46437 -46.25
      vertex 16.454 3.18371 -46.25
    endloop
  endfacet
  facet normal 0 0 -1
    outer loop
      vertex 12.708 -2.64512 -46.25
      vertex 16.454 3.18371 -46.25
      vertex 17.9444 1.89224 -46.25
    endloop
  endfacet
  facet normal 0 0 -1
    outer loop
      vertex 12.708 -2.64512 -46.25
      vertex 17.9444 1.89224 -46.25
      vertex 18.5 0 -46.25
    endloop
  endfacet
  facet normal 0 0 -1
    outer loop
      vertex 12.708 -2.64512 -46.25
      vertex 18.5 0 -46.25
      vertex 17.9444 -1.89224 -46.25
    endloop
  endfacet
  facet normal -0 0 -1
    outer loop
      vertex 12.708 -2.64512 -46.25
      vertex 17.9444 -1.89224 -46.25
      vertex 16.454 -3.18371 -46.25
    endloop
  endfacet
  facet normal 0 0 -1
    outer loop
      vertex 12.708 -2.64512 -46.25
      vertex 16.454 -3.18371 -46.25
      vertex 14.5019 -3.46437 -46.25
    endloop
  endfacet
  facet normal 0.142315 0.989821 0
    outer loop
      vertex 14.5019 3.46437 -46.25
      vertex 14.5019 3.46437 -5
      vertex 16.454 3.18371 -46.25
    endloop
  endfacet
  facet normal 0.142315 0.989821 0
    outer loop
      vertex 16.454 3.18371 -46.25
      vertex 14.5019 3.46437 -5
      vertex 14.5019 3.46437 5
    endloop
  endfacet
  facet normal 0.142315 0.989821 0
    outer loop
      vertex 16.454 3.18371 -46.25
      vertex 14.5019 3.46437 5
      vertex 14.5019 3.46437 46.25
    endloop
  endfacet
  facet normal 0.142315 0.989821 0
    outer loop
      vertex 16.454 3.18371 -46.25
      vertex 14.5019 3.46437 46.25
      vertex 16.454 3.18371 46.25
    endloop
  endfacet
  facet normal 0.00424067 0.999986 -0.00308103
    outer loop
      vertex 14.5019 3.46437 -5
      vertex 5.78619 3.5 -5.43359
      vertex 6.95568 3.5 -3.82392
    endloop
  endfacet
  facet normal 0.00434887 0.999977 -0.00525688
    outer loop
      vertex 14.5019 3.46437 -5
      vertex 4.25312 3.5 -6.70185
      vertex 5.78619 3.5 -5.43359
    endloop
  endfacet
  facet normal 0.00537113 0.99992 -0.0114142
    outer loop
      vertex 14.5019 3.46437 -5
      vertex 2.45282 3.5 -7.54901
      vertex 4.25312 3.5 -6.70185
    endloop
  endfacet
  facet normal 0.118838 0.826539 -0.550192
    outer loop
      vertex 14.0083 3.23896 -5.44525
      vertex 2.45282 3.5 -7.54901
      vertex 14.5019 3.46437 -5
    endloop
  endfacet
  facet normal 0.00542692 0.999985 0
    outer loop
      vertex 14.5019 3.46437 -5
      vertex 7.9375 3.5 -7.77156e-16
      vertex 14.5019 3.46437 5
    endloop
  endfacet
  facet normal 0.00495057 0.999988 -0.000625403
    outer loop
      vertex 14.5019 3.46437 -5
      vertex 7.68813 3.5 -1.97398
      vertex 7.9375 3.5 -7.77156e-16
    endloop
  endfacet
  facet normal 0.00444648 0.999989 -0.00176049
    outer loop
      vertex 14.5019 3.46437 -5
      vertex 6.95568 3.5 -3.82392
      vertex 7.68813 3.5 -1.97398
    endloop
  endfacet
  facet normal 0.00495057 0.999988 0.000625403
    outer loop
      vertex 7.9375 3.5 -7.77156e-16
      vertex 7.68813 3.5 1.97398
      vertex 14.5019 3.46437 5
    endloop
  endfacet
  facet normal 0.00444648 0.999989 0.00176049
    outer loop
      vertex 7.68813 3.5 1.97398
      vertex 6.95568 3.5 3.82392
      vertex 14.5019 3.46437 5
    endloop
  endfacet
  facet normal 0.00424067 0.999986 0.00308103
    outer loop
      vertex 6.95568 3.5 3.82392
      vertex 5.78619 3.5 5.43359
      vertex 14.5019 3.46437 5
    endloop
  endfacet
  facet normal 0.00434887 0.999977 0.00525688
    outer loop
      vertex 5.78619 3.5 5.43359
      vertex 4.25312 3.5 6.70185
      vertex 14.5019 3.46437 5
    endloop
  endfacet
  facet normal 0.00537113 0.99992 0.0114142
    outer loop
      vertex 4.25312 3.5 6.70185
      vertex 2.45282 3.5 7.54901
      vertex 14.5019 3.46437 5
    endloop
  endfacet
  facet normal 0.118838 0.826539 0.550192
    outer loop
      vertex 14.5019 3.46437 5
      vertex 2.45282 3.5 7.54901
      vertex 14.0083 3.23896 5.44525
    endloop
  endfacet
  facet normal 2.80794e-16 0.281733 -0.959493
    outer loop
      vertex -12.0556 1.89224 33.3056
      vertex 12.2241 1.89224 33.3056
      vertex -11.5 0 32.75
    endloop
  endfacet
  facet normal 2.81324e-16 0.281733 -0.959493
    outer loop
      vertex -11.5 0 32.75
      vertex 12.2241 1.89224 33.3056
      vertex 11.6418 0.986064 33.0395
    endloop
  endfacet
  facet normal 2.94602e-16 0.281733 -0.959493
    outer loop
      vertex -11.5 0 32.75
      vertex 11.6418 0.986064 33.0395
      vertex 11.6418 0 32.75
    endloop
  endfacet
  facet normal -0.415415 0.909632 0
    outer loop
      vertex 12.708 2.64512 5.81852
      vertex 12.708 2.64512 34.1745
      vertex 13.9941 3.23247 5.45046
    endloop
  endfacet
  facet normal -0.415415 0.909632 2.75549e-18
    outer loop
      vertex 13.9941 3.23247 5.45046
      vertex 12.708 2.64512 34.1745
      vertex 13.8873 3.18371 34.796
    endloop
  endfacet
  facet normal -0.415415 0.909632 1.30338e-17
    outer loop
      vertex 13.9941 3.23247 5.45046
      vertex 13.8873 3.18371 34.796
      vertex 14 3.23517 35.1539
    endloop
  endfacet
  facet normal -0.415415 0.909632 1.3992e-17
    outer loop
      vertex 14 3.23517 35.1539
      vertex 14.5019 3.46437 46.25
      vertex 13.9941 3.23247 5.45046
    endloop
  endfacet
  facet normal -0.415415 0.909632 0
    outer loop
      vertex 14 3.23517 37.25
      vertex 12.708 2.64512 38.542
      vertex 12.708 2.64512 46.25
    endloop
  endfacet
  facet normal -0.415415 0.909632 3.95829e-18
    outer loop
      vertex 14 3.23517 37.25
      vertex 12.708 2.64512 46.25
      vertex 14.5019 3.46437 46.25
    endloop
  endfacet
  facet normal -0.415415 0.909632 -3.5205e-16
    outer loop
      vertex 14 3.23517 37.25
      vertex 14.5019 3.46437 46.25
      vertex 14 3.23517 35.1539
    endloop
  endfacet
  facet normal -0.415415 0.909632 0
    outer loop
      vertex 14.0083 3.23896 5.44525
      vertex 14.5019 3.46437 46.25
      vertex 14.5019 3.46437 5
    endloop
  endfacet
  facet normal -0.415415 0.909632 1.09068e-16
    outer loop
      vertex 13.9941 3.23247 5.45046
      vertex 14.5019 3.46437 46.25
      vertex 14.0083 3.23896 5.44525
    endloop
  endfacet
  facet normal 1 1.85569e-15 8.47465e-16
    outer loop
      vertex 14 3.46437 36.7481
      vertex 14 3.23517 37.25
      vertex 14 3.23517 35.1539
    endloop
  endfacet
  facet normal -0.841254 0.54064 0
    outer loop
      vertex 11.6418 0.986064 6.11316
      vertex 11.6418 0.986064 33.0395
      vertex 11.8402 1.29484 6.08095
    endloop
  endfacet
  facet normal -0.841254 0.54064 -2.68904e-17
    outer loop
      vertex 11.8402 1.29484 6.08095
      vertex 11.6418 0.986064 33.0395
      vertex 12.2241 1.89224 33.3056
    endloop
  endfacet
  facet normal -0.841254 0.54064 -1.08099e-17
    outer loop
      vertex 11.8402 1.29484 6.08095
      vertex 12.2241 1.89224 33.3056
      vertex 12.708 2.64512 34.1745
    endloop
  endfacet
  facet normal -0.841254 0.54064 0
    outer loop
      vertex 12.544 2.38992 5.90445
      vertex 12.708 2.64512 34.1745
      vertex 12.708 2.64512 5.81852
    endloop
  endfacet
  facet normal -0.841254 0.54064 4.64383e-18
    outer loop
      vertex 11.8402 1.29484 6.08095
      vertex 12.708 2.64512 34.1745
      vertex 12.544 2.38992 5.90445
    endloop
  endfacet
  facet normal -0.841254 0.54064 0
    outer loop
      vertex 11.6418 0.986064 39.6082
      vertex 11.6418 0.986064 46.25
      vertex 12.708 2.64512 38.542
    endloop
  endfacet
  facet normal -0.841254 0.54064 0
    outer loop
      vertex 12.708 2.64512 38.542
      vertex 11.6418 0.986064 46.25
      vertex 12.708 2.64512 46.25
    endloop
  endfacet
  facet normal -1 -0 -0
    outer loop
      vertex 11.6418 -0.986064 39.6082
      vertex 11.6418 -0.986064 46.25
      vertex 11.6418 0.986064 39.6082
    endloop
  endfacet
  facet normal -1 0 0
    outer loop
      vertex 11.6418 0.986064 39.6082
      vertex 11.6418 -0.986064 46.25
      vertex 11.6418 0.986064 46.25
    endloop
  endfacet
  facet normal 0 -0 1
    outer loop
      vertex 11.6418 0.986064 46.25
      vertex 11.6418 -0.986064 46.25
      vertex 12.708 -2.64512 46.25
    endloop
  endfacet
  facet normal -0 0 1
    outer loop
      vertex 16.454 -3.18371 46.25
      vertex 11.6418 0.986064 46.25
      vertex 14.5019 -3.46437 46.25
    endloop
  endfacet
  facet normal 0 0 1
    outer loop
      vertex 14.5019 -3.46437 46.25
      vertex 11.6418 0.986064 46.25
      vertex 12.708 -2.64512 46.25
    endloop
  endfacet
  facet normal -0 0 1
    outer loop
      vertex 17.9444 -1.89224 46.25
      vertex 11.6418 0.986064 46.25
      vertex 16.454 -3.18371 46.25
    endloop
  endfacet
  facet normal -0 0 1
    outer loop
      vertex 18.5 0 46.25
      vertex 11.6418 0.986064 46.25
      vertex 17.9444 -1.89224 46.25
    endloop
  endfacet
  facet normal 0 -0 1
    outer loop
      vertex 17.9444 1.89224 46.25
      vertex 11.6418 0.986064 46.25
      vertex 18.5 0 46.25
    endloop
  endfacet
  facet normal 0 -0 1
    outer loop
      vertex 16.454 3.18371 46.25
      vertex 11.6418 0.986064 46.25
      vertex 17.9444 1.89224 46.25
    endloop
  endfacet
  facet normal 0 -0 1
    outer loop
      vertex 14.5019 3.46437 46.25
      vertex 11.6418 0.986064 46.25
      vertex 16.454 3.18371 46.25
    endloop
  endfacet
  facet normal 0 -0 1
    outer loop
      vertex 12.708 2.64512 46.25
      vertex 11.6418 0.986064 46.25
      vertex 14.5019 3.46437 46.25
    endloop
  endfacet
  facet normal -1 -0 -0
    outer loop
      vertex 11.6418 -0.986064 6.11316
      vertex 11.6418 -0.986064 33.0395
      vertex 11.6418 0.986064 6.11316
    endloop
  endfacet
  facet normal -1 0 0
    outer loop
      vertex 11.6418 0.986064 6.11316
      vertex 11.6418 -0.986064 33.0395
      vertex 11.6418 0 32.75
    endloop
  endfacet
  facet normal -1 0 0
    outer loop
      vertex 11.6418 0.986064 6.11316
      vertex 11.6418 0 32.75
      vertex 11.6418 0.986064 33.0395
    endloop
  endfacet
  facet normal 0.654861 -0.755749 0
    outer loop
      vertex 16.454 -3.18371 46.25
      vertex 16.454 -3.18371 -46.25
      vertex 17.9444 -1.89224 -46.25
    endloop
  endfacet
  facet normal 0.654861 -0.755749 0
    outer loop
      vertex 17.9444 -1.89224 46.25
      vertex 16.454 -3.18371 46.25
      vertex 17.9444 -1.89224 -46.25
    endloop
  endfacet
  facet normal 0.959493 -0.281733 0
    outer loop
      vertex 17.9444 -1.89224 46.25
      vertex 17.9444 -1.89224 -46.25
      vertex 18.5 0 -46.25
    endloop
  endfacet
  facet normal 0.959493 -0.281733 0
    outer loop
      vertex 18.5 0 46.25
      vertex 17.9444 -1.89224 46.25
      vertex 18.5 0 -46.25
    endloop
  endfacet
  facet normal 0.959493 0.281733 0
    outer loop
      vertex 18.5 0 -46.25
      vertex 17.9444 1.89224 -46.25
      vertex 17.9444 1.89224 46.25
    endloop
  endfacet
  facet normal 0.959493 0.281733 -0
    outer loop
      vertex 18.5 0 46.25
      vertex 18.5 0 -46.25
      vertex 17.9444 1.89224 46.25
    endloop
  endfacet
  facet normal 0.654861 0.755749 0
    outer loop
      vertex 16.454 3.18371 -46.25
      vertex 16.454 3.18371 46.25
      vertex 17.9444 1.89224 -46.25
    endloop
  endfacet
  facet normal 0.654861 0.755749 0
    outer loop
      vertex 17.9444 1.89224 -46.25
      vertex 16.454 3.18371 46.25
      vertex 17.9444 1.89224 46.25
    endloop
  endfacet
endsolid OpenSCAD_Model
